<mxfile host="app.diagrams.net" agent="Mozilla/5.0 (Windows NT 10.0; Win64; x64) AppleWebKit/537.36 (KHTML, like Gecko) Chrome/129.0.0.0 Safari/537.36" version="24.7.17">
  <diagram name="페이지-1" id="QRkMx-ctpRhbJmjKVdxi">
    <mxGraphModel dx="748" dy="808" grid="1" gridSize="10" guides="1" tooltips="1" connect="1" arrows="1" fold="1" page="1" pageScale="1" pageWidth="1169" pageHeight="827" math="0" shadow="0">
      <root>
        <mxCell id="0" />
        <mxCell id="1" parent="0" />
        <mxCell id="rKCySKITcyxOfwlai2oO-95" style="edgeStyle=orthogonalEdgeStyle;rounded=0;orthogonalLoop=1;jettySize=auto;html=1;entryX=0;entryY=0.5;entryDx=0;entryDy=0;" edge="1" parent="1" source="rKCySKITcyxOfwlai2oO-4" target="rKCySKITcyxOfwlai2oO-6">
          <mxGeometry relative="1" as="geometry" />
        </mxCell>
        <mxCell id="rKCySKITcyxOfwlai2oO-4" value="" style="sketch=0;outlineConnect=0;fontColor=#232F3E;gradientColor=none;fillColor=#000000;strokeColor=none;dashed=0;verticalLabelPosition=bottom;verticalAlign=top;align=center;html=1;fontSize=12;fontStyle=0;aspect=fixed;pointerEvents=1;shape=mxgraph.aws4.quicksight_paginated_reports;strokeWidth=1;" vertex="1" parent="1">
          <mxGeometry x="97.53999999999999" y="140" width="52.46" height="66" as="geometry" />
        </mxCell>
        <mxCell id="rKCySKITcyxOfwlai2oO-5" value="CTI Collection &amp;amp; Formalization Module" style="swimlane;whiteSpace=wrap;html=1;strokeWidth=2;" vertex="1" parent="1">
          <mxGeometry x="220" y="110" width="280" height="110" as="geometry" />
        </mxCell>
        <mxCell id="rKCySKITcyxOfwlai2oO-9" style="edgeStyle=orthogonalEdgeStyle;rounded=0;orthogonalLoop=1;jettySize=auto;html=1;exitX=1;exitY=0.5;exitDx=0;exitDy=0;" edge="1" parent="rKCySKITcyxOfwlai2oO-5" source="rKCySKITcyxOfwlai2oO-6" target="rKCySKITcyxOfwlai2oO-8">
          <mxGeometry relative="1" as="geometry" />
        </mxCell>
        <mxCell id="rKCySKITcyxOfwlai2oO-6" value="&lt;b&gt;CTI&lt;/b&gt;&lt;div&gt;&lt;b&gt;Collection&lt;/b&gt;&lt;/div&gt;" style="rounded=0;whiteSpace=wrap;html=1;strokeWidth=2;" vertex="1" parent="rKCySKITcyxOfwlai2oO-5">
          <mxGeometry x="20" y="38" width="80" height="50" as="geometry" />
        </mxCell>
        <mxCell id="rKCySKITcyxOfwlai2oO-19" style="edgeStyle=orthogonalEdgeStyle;rounded=0;orthogonalLoop=1;jettySize=auto;html=1;exitX=1;exitY=0.5;exitDx=0;exitDy=0;" edge="1" parent="rKCySKITcyxOfwlai2oO-5" source="rKCySKITcyxOfwlai2oO-8">
          <mxGeometry relative="1" as="geometry">
            <mxPoint x="430" y="63" as="targetPoint" />
          </mxGeometry>
        </mxCell>
        <mxCell id="rKCySKITcyxOfwlai2oO-8" value="&lt;b&gt;Data&lt;/b&gt;&lt;div&gt;&lt;b&gt;Processing&lt;/b&gt;&lt;/div&gt;" style="rounded=0;whiteSpace=wrap;html=1;strokeWidth=2;" vertex="1" parent="rKCySKITcyxOfwlai2oO-5">
          <mxGeometry x="180" y="38" width="80" height="50" as="geometry" />
        </mxCell>
        <mxCell id="rKCySKITcyxOfwlai2oO-13" value="&lt;b&gt;CTI&amp;nbsp;&lt;/b&gt;&lt;div&gt;&lt;b&gt;Raw Data&lt;/b&gt;&lt;/div&gt;" style="text;html=1;align=center;verticalAlign=middle;whiteSpace=wrap;rounded=0;" vertex="1" parent="rKCySKITcyxOfwlai2oO-5">
          <mxGeometry x="96" y="48" width="90" height="30" as="geometry" />
        </mxCell>
        <mxCell id="rKCySKITcyxOfwlai2oO-11" value="&lt;b&gt;CTI&amp;nbsp;&lt;/b&gt;&lt;div&gt;&lt;b style=&quot;background-color: initial;&quot;&gt;Raw Data&lt;/b&gt;&lt;/div&gt;" style="text;html=1;align=center;verticalAlign=middle;whiteSpace=wrap;rounded=0;" vertex="1" parent="1">
          <mxGeometry x="140" y="158" width="90" height="30" as="geometry" />
        </mxCell>
        <mxCell id="rKCySKITcyxOfwlai2oO-14" value="CTI-Based TTP Mapping Module" style="swimlane;whiteSpace=wrap;html=1;strokeWidth=2;" vertex="1" parent="1">
          <mxGeometry x="610" y="110" width="210" height="110" as="geometry" />
        </mxCell>
        <mxCell id="rKCySKITcyxOfwlai2oO-37" style="edgeStyle=orthogonalEdgeStyle;rounded=0;orthogonalLoop=1;jettySize=auto;html=1;exitX=0.5;exitY=1;exitDx=0;exitDy=0;" edge="1" parent="rKCySKITcyxOfwlai2oO-14" source="rKCySKITcyxOfwlai2oO-16">
          <mxGeometry relative="1" as="geometry">
            <mxPoint x="105" y="130" as="targetPoint" />
          </mxGeometry>
        </mxCell>
        <mxCell id="rKCySKITcyxOfwlai2oO-16" value="&lt;b&gt;Rule-Based&lt;/b&gt;&lt;div&gt;&lt;b&gt;TTP Mapping&lt;/b&gt;&lt;/div&gt;" style="rounded=0;whiteSpace=wrap;html=1;strokeWidth=2;" vertex="1" parent="rKCySKITcyxOfwlai2oO-14">
          <mxGeometry x="45" y="38" width="120" height="50" as="geometry" />
        </mxCell>
        <mxCell id="rKCySKITcyxOfwlai2oO-20" value="&lt;b&gt;Structured Data&lt;/b&gt;" style="text;html=1;align=center;verticalAlign=middle;whiteSpace=wrap;rounded=0;" vertex="1" parent="1">
          <mxGeometry x="500" y="144" width="110" height="30" as="geometry" />
        </mxCell>
        <mxCell id="rKCySKITcyxOfwlai2oO-21" value="&lt;b&gt;(CVE ID, CPE, CVSS, TTP)&lt;/b&gt;" style="text;html=1;align=center;verticalAlign=middle;whiteSpace=wrap;rounded=0;" vertex="1" parent="1">
          <mxGeometry x="500" y="180" width="110" height="30" as="geometry" />
        </mxCell>
        <mxCell id="rKCySKITcyxOfwlai2oO-27" style="edgeStyle=orthogonalEdgeStyle;rounded=0;orthogonalLoop=1;jettySize=auto;html=1;exitX=0;exitY=0.5;exitDx=0;exitDy=0;exitPerimeter=0;entryX=1;entryY=0.5;entryDx=0;entryDy=0;" edge="1" parent="1" source="rKCySKITcyxOfwlai2oO-22" target="rKCySKITcyxOfwlai2oO-24">
          <mxGeometry relative="1" as="geometry" />
        </mxCell>
        <mxCell id="rKCySKITcyxOfwlai2oO-22" value="&lt;b&gt;Internal&lt;/b&gt;&lt;div&gt;&lt;b&gt;Asset DB&lt;/b&gt;&lt;/div&gt;" style="shape=cylinder3;whiteSpace=wrap;html=1;boundedLbl=1;backgroundOutline=1;size=15;strokeWidth=2;" vertex="1" parent="1">
          <mxGeometry x="850" y="362" width="90" height="70" as="geometry" />
        </mxCell>
        <mxCell id="rKCySKITcyxOfwlai2oO-23" value="Internal Asset CPE&amp;nbsp;&lt;div&gt;Identification Module&lt;/div&gt;" style="swimlane;whiteSpace=wrap;html=1;strokeWidth=2;startSize=30;" vertex="1" parent="1">
          <mxGeometry x="610" y="332" width="210" height="110" as="geometry" />
        </mxCell>
        <mxCell id="rKCySKITcyxOfwlai2oO-24" value="&lt;b&gt;Internal Asset&lt;/b&gt;&lt;div&gt;&lt;b&gt;CPE Combination&lt;/b&gt;&lt;/div&gt;" style="rounded=0;whiteSpace=wrap;html=1;strokeWidth=2;" vertex="1" parent="rKCySKITcyxOfwlai2oO-23">
          <mxGeometry x="45" y="40" width="120" height="50" as="geometry" />
        </mxCell>
        <mxCell id="rKCySKITcyxOfwlai2oO-28" value="&lt;b&gt;CTI DB&lt;/b&gt;" style="shape=cylinder3;whiteSpace=wrap;html=1;boundedLbl=1;backgroundOutline=1;size=15;strokeWidth=2;" vertex="1" parent="1">
          <mxGeometry x="700" y="242" width="120" height="70" as="geometry" />
        </mxCell>
        <mxCell id="rKCySKITcyxOfwlai2oO-33" value="" style="group" vertex="1" connectable="0" parent="1">
          <mxGeometry x="647" y="242" width="110" height="38" as="geometry" />
        </mxCell>
        <mxCell id="rKCySKITcyxOfwlai2oO-32" value="" style="verticalLabelPosition=bottom;verticalAlign=top;html=1;shape=mxgraph.basic.layered_rect;dx=10;outlineConnect=0;whiteSpace=wrap;strokeWidth=2;" vertex="1" parent="rKCySKITcyxOfwlai2oO-33">
          <mxGeometry x="10" width="100" height="38" as="geometry" />
        </mxCell>
        <mxCell id="rKCySKITcyxOfwlai2oO-50" style="edgeStyle=orthogonalEdgeStyle;rounded=0;orthogonalLoop=1;jettySize=auto;html=1;exitX=0;exitY=0.25;exitDx=0;exitDy=0;" edge="1" parent="rKCySKITcyxOfwlai2oO-33" source="rKCySKITcyxOfwlai2oO-31">
          <mxGeometry relative="1" as="geometry">
            <mxPoint x="-187" y="88" as="targetPoint" />
          </mxGeometry>
        </mxCell>
        <mxCell id="rKCySKITcyxOfwlai2oO-31" value="&lt;b&gt;CVE Object&lt;/b&gt;" style="text;html=1;align=center;verticalAlign=middle;whiteSpace=wrap;rounded=0;" vertex="1" parent="rKCySKITcyxOfwlai2oO-33">
          <mxGeometry width="110" height="30" as="geometry" />
        </mxCell>
        <mxCell id="rKCySKITcyxOfwlai2oO-43" value="&lt;div&gt;Risk Calculation&lt;/div&gt;&lt;div&gt;&amp;amp; Response Strategies Module&lt;/div&gt;" style="swimlane;whiteSpace=wrap;html=1;strokeWidth=2;startSize=30;" vertex="1" parent="1">
          <mxGeometry x="350" y="332" width="210" height="110" as="geometry" />
        </mxCell>
        <mxCell id="rKCySKITcyxOfwlai2oO-44" value="&lt;b&gt;TTP&lt;/b&gt;&lt;div&gt;&lt;b&gt;Mitigation&lt;/b&gt;&lt;/div&gt;&lt;div&gt;&lt;b&gt;Mapping&lt;/b&gt;&lt;/div&gt;" style="rounded=0;whiteSpace=wrap;html=1;strokeWidth=2;" vertex="1" parent="rKCySKITcyxOfwlai2oO-43">
          <mxGeometry x="120" y="47" width="75" height="50" as="geometry" />
        </mxCell>
        <mxCell id="rKCySKITcyxOfwlai2oO-46" value="&lt;b&gt;Risk Formula&lt;/b&gt;" style="rounded=0;whiteSpace=wrap;html=1;strokeWidth=2;" vertex="1" parent="rKCySKITcyxOfwlai2oO-43">
          <mxGeometry x="20" y="47" width="75" height="50" as="geometry" />
        </mxCell>
        <mxCell id="rKCySKITcyxOfwlai2oO-48" style="edgeStyle=orthogonalEdgeStyle;rounded=0;orthogonalLoop=1;jettySize=auto;html=1;exitX=0;exitY=0.5;exitDx=0;exitDy=0;entryX=0;entryY=0.5;entryDx=0;entryDy=0;" edge="1" parent="1" source="rKCySKITcyxOfwlai2oO-24" target="rKCySKITcyxOfwlai2oO-31">
          <mxGeometry relative="1" as="geometry" />
        </mxCell>
        <mxCell id="rKCySKITcyxOfwlai2oO-49" value="&lt;b&gt;CPE Search&lt;/b&gt;" style="text;html=1;align=center;verticalAlign=middle;whiteSpace=wrap;rounded=0;" vertex="1" parent="1">
          <mxGeometry x="580" y="290" width="110" height="30" as="geometry" />
        </mxCell>
        <mxCell id="rKCySKITcyxOfwlai2oO-51" value="&lt;b&gt;Get CVSS, TTP&amp;nbsp;&lt;/b&gt;&lt;div&gt;&lt;b&gt;Information About&lt;/b&gt;&lt;/div&gt;&lt;div&gt;&lt;b&gt;Matching CPE&lt;/b&gt;&lt;/div&gt;" style="text;html=1;align=center;verticalAlign=middle;whiteSpace=wrap;rounded=0;" vertex="1" parent="1">
          <mxGeometry x="470" y="260" width="110" height="30" as="geometry" />
        </mxCell>
        <mxCell id="rKCySKITcyxOfwlai2oO-105" value="" style="group" vertex="1" connectable="0" parent="1">
          <mxGeometry x="80" y="467" width="872.5" height="100" as="geometry" />
        </mxCell>
        <mxCell id="rKCySKITcyxOfwlai2oO-103" value="" style="rounded=0;whiteSpace=wrap;html=1;strokeWidth=2;" vertex="1" parent="rKCySKITcyxOfwlai2oO-105">
          <mxGeometry width="872.5" height="100" as="geometry" />
        </mxCell>
        <mxCell id="rKCySKITcyxOfwlai2oO-99" value="" style="shape=image;verticalLabelPosition=bottom;labelBackgroundColor=default;verticalAlign=top;aspect=fixed;imageAspect=0;image=data:image/png,iVBORw0KGgoAAAANSUhEUgAABH0AAABpCAYAAAHQGW+8AAAAAXNSR0IArs4c6QAAAARnQU1BAACxjwv8YQUAAAAJcEhZcwAAFxEAABcRAcom8z8AAN2RSURBVHhe7P3lfyNJtjUKn3/rfr33/Z17n3OeA88ZaO4uJhczo+0yMzMzM6Mky5aZxMxgycz2endmSrZc5Z7pmeme7uqKVbWsyMjIwB07dkRmRv6LVqsFI+Pfy38BwyePtWUb9xdl7ZP8cfdgLyaUy7ybg7XjHf3dRlpVHbDrI/ca7/9zgAnQZwqrnROkfxy8AMmko0iLvEeuA4SllyP92hV4Ng9hHkyB19yNMaUNy3tAR88IxmoS0WUCtHMjgKaeu5xH66M02E3TaBgawZPbl1Fy72vef3uf/mwqeDeHzlkPnBuH0FF8p6GjW4oRkdh/9Jcx2F4M53Ci/4iDA05FM2TDY7Cv+r1+Kg6XkZcziZLmdmDfjbSU97j8v+MRESNC3+AIhmpz4MGPZPpHMFDVgYGabLSpD/w+p+HQ//vTUP40CjOlSRiTjiA2PAYHazY8uXMJ47JRDJl2+TD7WEJieg3vHpnXQdv6EmOjUiRfeAZJUzJqlfypE7h9+Xv0F4VjQ4gC7+q4NljCw4xmFEfdx/TSJlTiLPzhbj7WHeO4deFrTNRF/HY0UEZMhd/F8M9Az/i83/UxiuqMftcxDrdP75FsCPvEsW+fQkrsG2Smp6JlgbOF/rlgAvS7wAGMDi/9BXwOC5w2j+D9T8C/6PV6MDL+vWQC9DugVbcAm1sDi1FLx0Yy+sugHxXz58wGPQwGA5orEvHV11/BqFLA4V2Ehfw/jOfvIRMgxn+IvAAVZmRhnKTUYLTAqFUiKakAIxOLmB1sQn92NWKq2zElaUTDggcZPWMw2mm6vDDIj4Hc9cZ1N11rRENxOH98QDPT5PRsbB5soraj9USCHY3NsHK9IshPrzchOqoGaUnx0EwOQDfWSOO4F4PZ+QgNbYLB7EBt+gCs1MOq5EYMzhkxPdoC18Ye7DNlFJcSckk/6ocUGLO6sayWoq1nHHViZVAaf5mdNVFQteTjxasXkCiMKKqUIfu7TDRVJaI0OxIxscXQrblOvfbHOJv2HrF0nUh+ej7cC00wmw0wUt2fdv40ckslVpcdWUkZqJ9x836cBtpVd6Bp0kzHRmTmpSDx6Rv+HKeBXr+rQXtWGCQmL0yaeVSE18JmOk4zpqAZ5sUR0mIK1AzM8n5GZSmMFhNmbCZkFRTCZbKit6YNqUUdEFe8gEfeib6x+d+OBnJ5hMoIpsFi+8iP8eehTqc71Z+jTne6/2lkQ9jvgHaDHF9evoPa/tkPNPsvTyZAjP8Q2d14xr+bGo2GLSR+6hiYdwFbJuGO2p4JOu53dwJNyiXOheo72fwvjwMlNte8/oOfB0yAfqfY3RYE6JcGL0AbpiGMSEcwLpuDemcf1aXpEE9MIOJdF2Dvx+iYDOdCnsBNYZ++y4ZU2oYbEUXcpQi7eRHS4VzkS12ISk7h/ThUpT7HrqIRzwt6UfAy2u8LVHSMoiKvD92ttX6fk1CuA50LP63wZs8WXtwoBnfD/x8Fd7ca9gH+dkB9dig6Z90Ql9zlz23yf4HxCaqPnwwzcLiPkgeZ/uOPMTY2gJGBFv/RT8MGqZod+l23ifjj9LJ2/peDbFyKqDIxOtIfQbu2B+noGL79f1/jxcNW+CxqPkzC7VSIR0d5Nw/nAJ5dOksOL2KzC9CRcF/whwNttl3YqPQi8ZDfD7h3/TxSo0NxuO7gj3/TGuhgodjvYvhbcbDxT9RADJ8uHr2N5X/1Pc2wtR5r+n8WmAB94tgik4PH3ioNmXtY3dwWjv9JYOtAjH83udVsJkCfONs7xrGkEqMhMQ1xbSosOsxw6EcwqFuA2WFB6fVs9LzOQsLDizDaxbA4tDDbPr5t9PeQCRDjP8QjAeLun1hkNSgsLoPJaIKkuRhRz+rQ0SnBdGsNv0i1Ot9P09sBmE1qJKSlo1c0BYPZiK4BCzK6Rmgw1mAkvxiVPUPoUJqgN5ixOH3yTrxlUYTReRf1Eg3qRcYjf/uWC6a+GCjIverSYlimQtireHg9Iyh62warSYfedgkaZ5UwmUxISE7DqtuA8LhSxN09i6mGLvRP6aAxUKG0OmgNBmjkCyfS/ilMbBqCfLILocWdiKvrw8vQNkS8z4JGr0NdgxLZlY2nXnca2989gd6oQk1F2annOWJzAvHJ0aee+zFyjaa22mGyWPljTgPpdQaUNIwg8V0mdNQmFsc88kQzRxpIWvcWWgpjVLWiaFTD2y6B+OwzNZjrCId6sAi7ZE5Z1BPkb8DtrFY0zanwvk0Ph5nz0yNjRA+lOBeznR388W9eA60sOU71Z/wp/PG77T8X2RD2OyCngcxWG8py3mFucfrUML8UmQAx/kPkBYgfEBkYGBh+BTAFxMDwK6N32gbsrwK7Ljqyoza+gPcvGrXyv+O7NGk2jQBO4b774vIW/xtAw/0crHqWkR5ejbaEFLRlP8ef//xHOkPx7tnpl3td/Z97g+KngikgBgaGXw1HCujJ3QyM5Z6HaXEYSzYb/1TV4UIZZmwbKBxehKyujA/X2j3N/7bHPUbx61y4PEY+7GBsAXbmSuAxDKA++yU2fE7MrwNlgxoomiIQVR70BBPB4XQF7WqyQpp6jnc9e1qEZ6UzwMEu1rYPcfOPfwS/jc3BGg43DJhpEEaHADYocboasvFWjJdzuygd48Axg7n2Fug3hOOlfWEU6DccpxwMzjc9tgZLg+9x5uw5fg8mY28Wfw6768juNmNvzYZbT7OxWF1PeZ5GdGg9St73C2EIFTljGJzQ8+4e2zbanMKt8uweLb47fwEbm2sI3D2vq62hkW8JxWkP6OgQO2sbONjZwtYesLop7CNDVSBgXxj11jZ2qGAHWN3mav3nx1RbOv+7v1iD0rYxdIzPYVXbhhmqw4qZVVR2GFDYO4WCczkIfdeLoaZMfPXnZ1j2OODe9sGsGEZ2rwmKlQ00t0j5uH5uSJKisDGcTG1ihVk+iIdhbcjo5Ub6vwHuAfoj7MB1/s4N/veXQt6k0Hbc33t3cvlHJla4RwL9OLKAOBxqUFTQhvoJF6LzhCcGOTmsriuhvxY0vLiPduPxzmEcOAso4mU9lM1hyA57xvt5OLlZHubltnRhHzVFwkucp8LShXcF7bD3R5HgGbGp5J5Q5J4dBYaVepjkx09Rbh6okFRB8RK6LLsw0G/RzC4mq95j3cjVqYCZ/m5kDI0hs6wP2zPFmKt/B8c0yYNXxp+f1ZNyIDALiIGB4VcDU0AMDL8yTlhA65N48TQe9zPb6OCft8XTrwWmgBgYGH41sOc4GBl/RVrcKxBN25GbmQSXeRY4kMNgdiKjqAOHhxv8xk4tTkA02wsoClAr0aBRKjxmy+NgG6+/i8dMTyIO1jmL6QAuOvcsuxpG0ywOvAtozkyD1W2ic7t8fB/m4dcie5CMkfE3QJvZCB23Ox11SJ9vCR6vD16XHRajAU4PHft81Fm18HmcdOyFcnGcv06nM0BHv3a3E3qLAya63mnndqfTw+V0wG4ywud188/Kc482L/u8GJVNHqX7a/OEArp9NQR69TSGqSJKE5/CbFTi8qNMNFWXwGI24PLNB+gojkHPnAV37tyFaqIRmU2TiHzwkr/+3KscXLt6EUaLGZduvUDyCwpjnsGde9fw/MF1fB/WjisXL0HWmo2aXgXOXb5OaQhpG2126L1zFDZE0NATzTDOD+JBVAkMJi1S6oZx94fLUFnN+D7krlAASTFMC2OIyh4Ujk+j0YrmMT2yqzswvqBHVUoF+jVG1NWVnxre5nDDQmlwAmF3umCy2JD48gr0Zht6i8MxNMVtfmqA1aSHgSrPbrXBarP4y6GD0WyFxW6Dgdwul4v358rjsJkprBkOB7e1IvcSigEtheEo6ZyGdqETD6I7YDKYYHI5YLZ74bIY4XTNwkTpTg8WUhp2tFV2wkr5mtKSoJntcFKcp5XhH6XZZMCNkCuIKhqHVT+O69Smasqzmcr8Xch9qsNnGJgx48b/RGK8J5PaRtj28c3DyzBbTbh94ynJgA1yr4ra8yZ1otPT+Udotuhx4Wk6v+ns7RvPUPv+KeZVxy/3/CQazLh85SIM1MmvXLt5epifgTdv3sLTPCkkDSmo6p3BTepnmqluPE5p4M/rRqrw3fmraK0uhNnmxPVrl8nfiNpRA/WzWyRTBry8fg02jwnnzt9F/N17WOBlSI+rITdwOSwX9754BcVENd5mj+HGtavor0rGt//6H1Q/1E5Xf0Bd1HOINdRvL1w4deM693QDHGY93n79FaoLUqh+jTh//haeP7qBsUU9+jOf+a8zIrR0iPJpoDBqlHEvTT06C7PHgq9uvkLhu2eYVAt5E5WH8b9f3I9EQeQNGLVTuHEvHvWZ72AYq8e9q1+fVEAVVVW8FjaR26Kdh3XJhc4ZKyWshclqQW2XGEaljBLzUmQmeFfMmLCsQzmpgVarwZRShcaqUqowM5p6h6Ecb4XHpoWBOp5Gr6bE9ChqGYJhSgarx4PSsgpe43Npc/tbGUhQubDNvRPkr4LT4cCMyolFqkS1ToHBhhpYrQ6UtEswMDQMrc6MpRUfOhd9fBynUU7UWZ0w0+ghkkhh0OoxJB2HWCw+tSGkTcWIj6mHwu1Cc30VpsdEqK6sgGxeA9VAD5aWbKSkdFjST8K8tIzZsSbIJtSYH6XGKGuEXDoM1agChkUVSsurMd1Yg0WLierVhaF5ObobS0ixKbDiVkOjkGF12Q3HsgsetxuLGqoLA9fRDVSHpJRJcamn+/l8ifs6+V/JmJz/VWk+zvvPRpMV5aXF1KYWOJwmtNRW8G+SmYwqqotymCZkpEhtmO9bgMNuhX3Vw1/XWlIKm8mOyoZWak8t5Z8UskN4Y+3npsntg4gEfV7hoPTaYByrgW/1b9s3V6c1o7RSgt5xOWqahbfbfgkuaLmByYDRwSZUtkr4fqacG0RpTdCbkgsaqi8a3Aw21PeP8/1hSkEDF/XH8d4WSKvLSZk4UD6khLSrhfrnIozcdUaLkMaQHA7vEozLHlRUVsNsNlEf0mOK4q1pHIJd1Q+fXYOiohJkNguyFEyjcRFupwZmtQxG6ntaox2lPZMQ9bfBbjNCrTAgL0J4E9JEcmm2mXjlrzZrsdBdSWE8lDc5OkhW+idm+bwp58k6U3owITdQfPNkxDgxOGUlOVLw8VhIxtkUjJHxV6ZOLcf01BR1SLJoqVNPTEyQwjJCRYrLoNeces3vhUwBMTL+BtjUMgabjmYdVj0i3j5GWUYkyronsb/FfRGgEEOyadRXtJx67adMXgF9uN0vIyMj4z+D7BkgBgaGXwVM+TAw/KoQPoV9sXgOj2r1yE/g3qMSXhLs0K7ALOvA+mwNWtRAz8QwnRJ2cudQnlGBva0N/v32OY3wxnxueDcGh4T3rHrlHuTKfMi6WY3s913IKeHeI/vtgCkfBoZfFVr+L698MiZQ2SIoEWHbDMA12wuntB1V4zuYMG4BPkGxcChJK+V/jzfXEN5Wvn37NmY9QPWkHcPOTWST8skMLUNty/ELor8FMOXDwPCJYePg7935IOiV+98AmPJhYGD4VcArH5NsACGxXagaG8OWy4rXsakozC7l9/MZqkvignB7qGFyfAzi2ETYVncxNirsSfI6chApjWPYcSnQmHANOFgh68+GwneRGBnsxpRjHaK+SnTn3UNS7jhk4xP8dVeL5vlfYA/JyRIkpsRjSO+DRNLL+0qlUjj7U3ArvJKODvBVzgzvryT+r+fCx8Fu37wKrJvR3jeImPJefPiFRlHpG/53bYqb6x7AZx7nj38y9myoSn3JO0fHqvnfnwsTE4L53DQg7I3jcij435ExMf9ro3r7CI4O/scuqeF/fwk8eFaAmUnhy3Q9CjW11yTvbu+WYoEGTulIITr9e8uMSnv4X2wuIunWe0TlNkC9e4DUS1cwKR1FevHxFOHnREZGM7itnCJyG2Gi6clwc65w4m9AbHYWXN5NpN1OQv4kt3PULwPZmFB/3/x/r6CXdOF6ilj4YqEf0tEGyG3L+Dp3Fs3JD7CyB4jT72B+Wob/eduBfY8CBZGxiI2phGZ9H9Jy/3e6DrcR+iQMk4Xx/ARtaGQEKxYRYqOSIZONw0edNyytBJqdDYhbizFWWYqRBf4rpx/h/3pQwf/u728jcsCH6JcFkLo4GRX6y5R/8yl9u7Dn1pnv0nD97B2+71WnxKG3RQor5Vvalsaf5xCVReXep/Ts/XBRYxX1jpGvExlSH5VZhgXrVsDy2cEOZZZb5uJEPiM2nvdVqIdoQrmM7B4TFpe55hZml2FNcjgcTgwWv0fqqwbej9tQyUN/xq0erFBmxXnhWFVz2wYAV65fRWS0GJ0NuSisaUN5RAGelgidjENxwhCahq0oGlLC6RBepEuIe47DXTvS3rzijy8WzSKiYQEj3nU8zxY+f+mU5mGyLg7m/jqUjVqh4b7vGIR+4yEMik7UilSkVKWoz+/BgWPWf/YkpA1CXjmMlr/AN+du8u66RWHHMrtN2GztzJkz/C+n6Lqmha/8DedeRFdFlN93C3mDStLBKtJdU8h/0QFZcSTG0x7g3LnvcTHkFn9NALfOfIU1bpOx493FhL9rlO7hPtY29rCztU0qmvo493EK7hz/95fFoJNrUS+cThe+/eosbGJO4XOqPwBhTUJS/o6XirawB0isk6J7Xg5pFafshfO/BLgl2kWq6sQGGSQmG5wqYSD8W5AxYEPtqBbOgRxkRP2FDbn+USwL8tb8OIdXGFyt5IU94f0EHK/5cKiSGOGeEZQBB6WoBof6PpJ7GkxlTpx/KazzcAis+QRq+vBgD2QXYJ7bEI8wYVpDbh83yG8g5kEeUgqP4w2GxLGPx2EV/AZ+sYNedFiB1iYVnfEgtWYcIqsg54r6FpR2TaE+thk7PhVsE91UvilsLLsx5z5E5fCxfBxsTyM9T8K77UIXArfXX4qI4loVlC+bdv0DGDYdL/UxMPyzIHL9vWs3f+da0QG35+JPQ7WSG7R+GpjyYWBg+FXAlA8Dw6+I9MwINE/b8OesadSEfwsLGQ7pKSn8uXLFL7cW9VsAUz4MDL8qPljzmeY/q4DKxl50+Ddj/72CKR8Ghl8VwtdM3Gs7WHEJd6O47Uk4bO4dYm9rGc6VTf749wamfBgYGH4VsG01GBkZfxUy5cPI+CsSMGF/w40fckfxOLwNYYncM0dOHBwC73sVmO2phqKtAIVtZtRKxnHgGuKv05qsqMkuh7SuCjqnlX/WZ2UbaEjOxWhfN+xmA9L6lCiXKhB/pRQJb1ORlJj/Ufq/JpnyYWT8FWk0T/Lb+57JGcH9ejkaswcgsyzx25JajDpIehuhHaxB1ZQNA70qtA0J4blrS5Iz6NcIrdMCg9kIo9UOt8mGh0/vo3dSg97hedTMaZB5qQiZr9tQ3155Iu1fm0z5MDL+qhQ+DOBxWGB2eKDX6OHjvmChF/Zq5vZBX3LZ+S9ZaHU6eF02qOzcFyr0cDrt/C/3cQP+GoN/U306NlodsHuW6FgHp9sOk9UJq3WR3+eZD/MbIFM+jIyMvwp55aOQ1uNN1TCy49/BoJpH5oAB7x5ehsliwr38QRRE3ILGYsPFiyGIfHoF/3E7FzevhUA5I8WM2waXaRJO0qr3H8WhMS0KepcF58/fxt2rIYioEuHurWvoLXuPsnEjLl8+C6s4Dw/z+o4y8ebMDdyjsKHl3HzWgDMZIoRcuQy7UY/muhxYTTqE3H6Cksin0BiFryNE14hw++Zlfkf9QDwfsjXvLb/bv2msHEaTHvLJYf7zOg7LKZ9dodHCRuUVPnej58NYKN1vrj+mYyNCbpyD1eHgP5FjsXFftHDBxH1rifvkDo0yZouV/woId15v4Hb6pzTol/u0jsXm4L+5xH2ix+VyUhp23Lx5jTef71y7AjPFtzg1BIvVhsaWGtisZkxMaynPVjhpRLR7nWSCm+CeoXKYbZhsSjiZ95+R+XHhqKot4t1FbR24fe8R7057cw16iwdXrn6JkdZGGKwWaqNzfBnMBiWuPM5G8vPbWKD2y3pwE4+uhOBBbNWJuH8uJr98THVuQuKzW5BTXV249fDUcH+JHZUJmFKY0Jn8Dj2LwhdVfnbKx3Hv2ne8LFyldp4fKkdEyzhuhlwlPyHMtesXEVs7gq+TepD95D8xrLBjKPMmwp7fwf/3TRJMBgVC7rxCxOPbUFmtuHX+On+dXTeLL/74JeSiXmjIGrodcgWq8Q48z2jDzdu3ITO6kPryFhZNZupzN6iPd6GkZ+pk/vz8j5dFJGtmqKjtXtfNIf3FfcxZPbh18wYMJHddSu4TUnqMlkXw08FvLkajPC+R+oceF288QcLLe3wfuHn1e3+cJrwpnoDVZoZLLcP4IifnN+DSyxHRPI+rITcxIF7wWz4k0FNklk0PdPEXZw2bUZYTCbXWjNe1MkhbMjGttOLJs1QYjUZYXWZEhsfwlbpAyke7BTjNbgy+v4N33Q5kVGbD6paT8jLARmbf+xdd6M1+hLCoCLx4ngq7bx0v76bwaZk1o+iOqiIz0Qg7hR2uLMOVai2/YDZJ5qLRrKECG+CYbIakswTjszrUl5ahQTyO2Oiov6h86kRWaOeakds1CfWCBO35FbDIRbwi+DBsc3oF3J5VODwWdOY+w/vot7zJ+650gD8f9j4LOq0GMXGxMJG/Zm0ZLR2zsDn16Mk6g4aS91RmBUxeG+Lap+DRTkAna0PRsyaUvQtDS9h9JL74HhGJmeA+OwS4YabyvguNxrzGjKYxO6WnhXNZTekYoG7tgY4GgsauGUj6ZZjSmTG0qKby6qBe4r4V9nEZ/mEazfzH6zhF3K11wW1SITouAVERMdDNibHjG4aBFKLNoielSu1isUPclAc1KeWi4nK0lmdgUSWHrLIdJocVbirfqen8QzRiwAGIVBa0lKdDrtJTnaadEu4v837xCPJbR1H7MhyPb/8ySpJjcoKU/y1KDqe6s2He7UFnznuaQgnng9d8uHeLU3u0gLWBl2uDxYz+rnJYZDXoUCyho20BsYnJ/CeWuGsDaz46Fw18NBhwU63mOQ9mqR04GR+QKhBVPQCrU4OQr98hOjKLv+5DdmlMeP8gGgqdCeFtKtTOu1GT2oNDWyfKCiWYMQtTQHFhHfI6lKgOr4d6VgZZSytcyj40VaRjQa5HemK8P07SEbJSRGfW8wO6TG6ClvzENJCGt8hJxsZ5GeOVz+JAH6praqGhCLjjKa0Vbfw3mbQYVxshra7CElkCZaUldF7FF6yyrJTcOphJSWi0NO+0ezDj9ELdX0tWkB2lvdMwzE3w8dm4b0DpprHipDjoOpdtAT6Pmz/H7WK/OKLkw3KNwHXA/nkjKkqKMdVLytBg5T/01tYlx3R7OZY91PG0Wqg0i6iluP5SJ3RQ3AtKDUyKOfhWlzA2IoZOPY/JBeEztMG0uH0Ymdehq7mULBE32sU6Ehaq6MpyDItGUV5VA0ljM0obuzEyNAxxYwlahtWkjGnuTdaO0jKHWRIuvcGClWUNXE4L2oZmoRhehLS7BHbXCrrnLSirbEBL2wSKSrrQ3TFESqsEynlBQEfFgjU4LB7jf9VcvdLIw383ST/Dl1U9JXzX65eida6LhHkZI5I5vu4rqut4/9qqCojGlSgpbyd/LqwOpSXVwjVeN7rnrBjtaIKXlLFiUgPDwsxRnD83hxtINhcGIW1vhM9rR0lp0PewfiIXxwawRJ3BoejHkvX0MP84adCkehrqHUZlVTUW+7pR29AofGfL5B80yTrmfvvmTVgQVcBr5QYYTj7pPPdNN4cN/aMLmBY3wmnRolZmQcqQ8OFG9ZxgyXDfv6spLYd8ug+lNW1kgS/CtCCCsqeDZg1WlDT10UCghGN9A9ZTPuq4QMrHpLNQvzZAprFAPdkGj1WHyq45/ntiViOXJxpwZzQwc/mUkSWkMZL1a6d+Morh+hJ47GZUVVXifY3QtywGMiBs1IfoOiUNpvVVZbzClZIimpsQZh5szecEqbJIYZ1+7iTX1laPRi9Gxn8mT7Pcfxp/oellEP+WvDHlw8j4K3JiYgqzNJ1eJAtdQdaiiqyE6XHh++wq7ou2H4T/PZEpH0bGX5HBaz5FLy5CZ3fh5vffQTNVhzrZ7KnX/F7IlA8j469Io1nGK58/poqQHxWDadsa0nKT+Cec23RLWJzoRe3AGEynrNV86mTKh5GR8Vche6udgYGBgYGB4bMCM34YGBgYGD5L7Cqb8PV33+P773/A+xYVfG497lfL+XOLrWn44o+34DkAJkri8dU3f4J97wCv7p7H+fPn8MOVIj4c96Gh9Dvf4eYb4etRRdH38eW1WP6LDQ0vH+DMuWf+XQP92HPhq29/wHfffocvXuZiZ30FmQ+z+DD7i7X49rvv8KRRh+GM8zh37jz+ePaB/3PEe3gTf/zV897E+zhz4RJ/3ZrXjJgXrby/RVqGL774AxQrf+c3Iz4TMOOHgYGBgeEzhha909zHcQn7q8Ku6kuLSBsVdlKvyOE+G7uP7rQXsPk/lVf3Pu7IoFEMV4H/xJSpHxm56Rjjv2FrQ9fQPFIz6zEtrkGm2MN5nkDg63scGu7n+L+NSSntrOHm20berR5ogpN+t8wyjFK8qZXC1zLhHeC/zofdNUR0WshjF9k3uXxakFwsfJY3vezn/dzt7w3M+GFgYGBg+IzhxIJR+HwMDraQIzLzTp24BHdeZ/Du3NCHePbsKWLque+g2+DwCaZKX34c/1v65AHSq4RP9bbmv8O9nD7e3ZgSgVf1cop3E/EiF+8XgLjn+PPd42X9gjFlGsS9hy/478KDTKr2iZNGU6dolPuAOcZtWxhJi8Xzd4X+M/voL6JzBNdUF27fCeU/Q57dOsT7MXwMZvwwMDAwMDAwfFZgxg8DAwMDAwPDZ4VTjZ+YV82QFV/BPrnNsm5wi4Db6+tob6khlw9X//2PuJ/dB6yJMGPbAHaWEdHthG6yC/KBLtgpVN6b7/Htn19g8wBofXYf3587A8/2IeRNEVhd8yKJ+2LRoQeVw5MojugFNK3476++Q42Mu3/JYQ+hxdO8S1KbA1F1BO8+2N2EuK4ZG1zmuOMlMWQaN3LFXKq7eBvbhOgoYTmxoiie/92Zr4REzz9OhoYxNcKbFnj/k9hBcfwQBZlH85CQh/C6UZQ9ScCy14LSmS3eL4Ds4mK05Fbwbm35Hdh2eCdhDxeLZnmXbrwPk8NtWPDn9WVOreDwY3migC+HeqYL7Sk/4GVyC1XvGFI79eiLKuKXLX8cG+jonkdDPfeQmxWSOSe6itr5NjvcXUOLageK/sDDcRtobZT53X8dh2YR4ih8z/Ai8h9fwfCCEjl3YrC6IUe1WI2q9IfY8Dj4r0dxWJKkQ+r2HxzuYX1NhTnLKtwGA1aXFdBplYh/UgKf3Y59Uz8iywYw1/ASDXNrCCe5WFApEVI2j+H07/goWgtDSaQclOtN3LoYAcVIHpoWfGh5+R5zShUGFDPoMG9h1yJDk+MQD/90F0aHFfnxjZiYkuPA2ocq8Tzy7yVA3Z8AhVINrW8PBssK+vKe4ruvLsO8LzxC2PI4h19utra/hNOzRO2xh+6UZ0jtNcHrtGLTp8DbO4mwb2zB4VrDTGUK3laMYJPyt7W7gbRnSeg3+uC0WuGTd+BufA02NtfgWttCdUoRqiSz2FmxY3Pbh7fP0zBp458O+GQw25XrdwlIjU/gf1tfpmKL/g3I9VTejz/wvDxRjAmnDVXt3NfKgIhy4TZA8fkc+ruHsNfU5wltpWH8bwC72ySrmbXYo+Z5UCKCS94NGwm1crwTiz0d8D+ZAVFCLpY+oec55bV1iEl/jXtZQrk5XXS/VALHQie8pHvSHudiRd6Obosgl78YdudQlRKJL796SK1H2N/Cm2bug92HSL5Wyfl8QjjAu3/7Ey4+ifY/ECyg42muUDYee4h82ex3A3U5z/2uYAQ980NajX/mh5B04b/wxb1Ifs+JzcV66Ka70acRZH1jtgL2dUEAVaIa4ZkfYy8y8rIgWeIObOhoLseoaoXcG8iTOjjPEwh+5qflYS6vTyOf1fPHc/XPjspUnfva7/KgtGJccK6IhGd+9jbwrkKEkkUuL1vID21BX0osvvrjHzF98i7bX4alC80FSZinvB+oajBSG4YNLspdJ2IHvdhUdaCNHxaXUFEmR9jtb/DDt9Hg1OimZQha3SjmtgJPQQlQNHShIK2EH8dG0wqQE98lnNgyoMuyC/tkNwzc8coMovo92N/bwnRpDbz+aHbXpiGxrgoHfswMiVBZk8/XTXd+LeJqhVuNkJeRjgbmG0L5Q/d0Hya4O5ObM0gW8Q3C43GKUL8cThg//eGJmNdqodZosKzsQodSicrMFzBpx6Ekd0p8JiWqgVimQPHjKGrwQ7zOaMLsYDns27vY2tzATGMlDOSW9XdC0Z2HTtUuxKIJKFXdaJ1zofT2VagorrzwZ9jZ2sbGhhPpL1vgnpvEvEKB++l1fF6yruXxT8sf7O1QmA005b7AjlWJzhklBoreQb23j8KiFmg1ajhWtjE4osSirAsaqpWW1BtQKEaQx91rPbSjslwwonZ2tiiuVTwpHz/RWQQsIz+6n3dFJiRDOduIGfMKbr9Ip7LP417KMBwGC0a6i6BU6yh+A+wLM3xdJdWJsLdKgzWnsQ9W8X0epXd4wNeHvJUGgQ3BTHiYJigXk17oCA5xJrhTa4ZB5A4qUZCcDvNYMUr7lZBUvcWc++NcBiAXd4IXix09wt6U8HWVnlcFq82K4loy/rY9yO9Tw2J3QSNphcJmg3tZuJP817Alb+HvbXPGT9Hza5gg4yXidh7WHUNonVdDPj/MGz97q4sIrZ6GVq2Ed3MLducKOgdF1NajKBZbeOOnL/MCtKZFXLmfgmUHGT+GHiQ1TUKc/wztqnWEvRAMyNw3nZhqiaC61uHp2etk/DhJZSyjKJUzZDfQO6pG3oNnZPyoITFZ8a5ABEldDFrdB8h8yCk3D0R9cpSQcK/LK9E1TvLQI4FN3APNwjjqSQ4NlmUyzkkux9uQ0UPtZ7JjbXIcco0WD0tGsL/mpg5/XOfcxs/H2OfLF8D2sg3bgu7j4bQIzwnw2FuDk/umqB87fNgfb8vfMg7XTLhHRqVSqYBkQEQ+B0i6/g3meWPXi9p+CVRqDS9/PNY1eFku42XCtbqL+LgoKBZbIVHyT4Ei55t0/rc/OwRKxQRS/BMcDluLgxCTod0cfx/uLRNiiyVQTHagdn6T70uTdeXQbe9hd74aXbzW/HRwqO1ERtssSp9GwrfuxNrmAuJKpZBPtKF5wog7UTVQzvQjpVbhv+KXwgESkvKhHCiCxLgM69I6RF2zlI8eSL2fmIweLKNjQIX+skwo9g9gswijff3ddP7h4Y4XMVDotNDoDFB3J0KhIb2tPk1w1OiatArO/RV8nz9DDtI5zZMQ1SZg3LOPTTLwNxQ1aJlfpnN2tMxxk23SEVYD2QfziK6ZR21hMX8uNqERkrKXMFEmZuZmMNYYj+WdQ7jXAtNFAQWJged1gJobQp4VNfcxvaBAZIoE8s5EKPk8G/kwWUV5/O/Bhhsr2/t4nVbLbwbvpElYeEga5kT16HcCeRk0YVRMIq9EDO/qT9P5MLfTJA6Yyr6LFt0azG1vBONnxYCIPs548CD8RSnGG+IxT1FKR4YxTW65ewfb1Ded2n7IaHzZWOLqR8BidQM4NRF340+gKFEcKhgeO14F2s1U2lUD7uUMoSuvCGvbcjRJScdUv8Oi7wBZ1c382G71bWFp+diUnaIJEFeLCdf+Dfodirugm/ffnsqHdeUQq1YJykj3VxcKkzQsjSJ+UHhuajghBv4nu3iw214MfxFttdw3xX9GOCdxOeQW3pT5LXYGBgYGBoZ/Mpjxw8DAwMDAwPBZgRk/DAwMDAyfMYKf+cHRMz+x3/8X7sYJz+U0t2bj3e2bsPGP/LjRu6BEhyb4JgrDpwZm/DAwMDAwfMbQoGfqeJPD8/wLKxuYmlyBbbQYfY5DxMemYH9/H8lVA9AuTGNitAsZ7VIcHBwAh4f0/xAHHLljhk8CzPhhYGBgYGBg+KzwLzqdDoyMjIyMjIyMnwO1Wi3+5bRPvTMyMjIyMv7eqRnvQGxcMtJSk1DcOQ6vy4qa/kk6Z8LiWDuiY/NhdFoha6tGTFwCNBYn8jISkZiYiKKCduiNBhgtFnTkxyOvpg1moxW9DQWIy22F1WqGqKIACWmVMJqMR2latQsUVzwyszIRnVcLl2cJAw1d0JpN0E31IyE+DjntkxioFtJJyiync0YYKb7m1i5Kg4vHgImmAiSm5cBoMMK9ZENz3TAMXJmmBhEdHYdFo/MoTcaT5AwgZvwwMjIyMn62NJon0d4xzhsOZs0czuSMwDLXh9geI0x2G0pS0snAMGGiPhIjU2boydjoTXrFGyM68u9vK4eBjCDbeC1iU9+jXbkMs3cRjZUtyKuTwq3oQ3zLBMVxnKbZYUFJcgbM5KfT6lESkg0N+VkUIyguyMOjvC7eqJlurUK3cxUu7Sgqh+SILyiG3UwG12IbhiVymNTzeF4zCrNdg8xLRXCaJ5CYPgy9yY64wjw4yGgKLiujQGb8MDIyMjJ+1jSSwdDaLuONH6tuAd9mSmCwudARfRff/nAXxq0VPLn0J1w5fx4P0hphMUohnZ3jV3OKwh/C6dTj7n9/izvv8vmvF0Tc+g5/uhcBl8eJxMch+CGsBB6jht/cNWAAccZPUUIqb/zo9UYUX8mAxmmFrjuD0ryALp0TNuMcYhJH+IHa41vD+tYuksqq4JLko0GiQ9LVy7h46RGcZISZHVqknSuguOwYLgvFD9+exZRpDVm1HbCaDEdlZRTIjB9GRkZGRsZfmAaDCcZT/H9R6owwB91uYzzmKcaPEQ6HA2ajYCkaTObjBjOSdcnfa9TBanfAZjH5ryFr2b+0ZrY64LBZebfBZKG47DBQIjYKz8Vrt5npnIF3m/wWsMlsoTD+NLi4LGboKIydC2/3x2WkuOw2cutgttjITRayPwwXl4Ua2O5Pg8uXgfLKpc3lXXA7BIvb77YH5T2YFiulpzuO1xosOAYjbFTOQLpWS7BQGY6EzGq382kbKK8mC7n5vAbCcTTy+eXcXDxCnf59NFLdHc0kuDipgxmO6pXKaDAcnTeZTi/zP0YdLDahzQNlNJitfN1xs6iPw//6NPrzZwmaDfHtGXRsMFI9+t28zFE/CJzj2s/o7x8cjcHnSI75eg8ck7wFL3UbqU8cnfuEyOWbqzMzyVBwvXHHfF8hmT8OT/XFyYRf7gP1zfUH7rzV5q8D6k+cf0APBK7ldEVAt5is9iMdwB9bTvbPYB30KdBsJd3F3SrxHweXj68n0nEndcUvRL8eDMj4ka4ODvMpkPQbVw6OgTFIKItf35M+5Nz86oo/7EerIP664Mjpd06XC78kx9x4xsclyK7BZOXl9Wg8sx/3Zwv52a3CsYVrZ65dSR+YbZybG7uO0+TGkECaDuoPXJtbuH7Bj4OCfPPjgr+PcHk2+fsRx0BfMvHpCH3PSHnj2jAQv93p/JvGFu72XXB/4vLNuykPgT5v8o+9ehrTrTZunPPXM53j6v1D447zC9YXNn/9cO0S6PdcHdu58YPitHBx+utDqLdgvSLwZJykLyhOLjzXNoGxz0b5slE/48NQWnz4oHY2kCx8ZPy4vV7KlBHJ57Nhsq/DoxBBxg2g1ElhGkDmkBlaixvLPidEGW8wZ7ThcG8br2vGeCNjbdUBtagVfaYV5OcnYW/XhIayPr6yNDNlmFBZMJT5EI4VD/KfFcHm3MZCbSMW3JRxixMFNYNIqaonBSFF+JtYNMvUUE+L0SiVIL+2DV5JGconV+BdmUFO7iBvNA1Ev4Xa6ICWlKKsOxuWFT3SYiUwepZRlxiGlTUfvKsrKK+tgbzpJcITczBHA1hwubkBTdLegNq0Big9XEPoMRjzDkqDg69Yk0GNspJuXCqZQ2FRGjadBkiyyyCjxtFqrTjEGiq7BmE1aPBvdyJRUtVFgmDG6roPNqqPmnmhIcxOPapEMtT1DGG++S3kjmW0vQ3lBexkfv46zVYDurq60VheT8Ijx+DYBHpyK6EjA9OoUaJAZMJIXxWWqP1MVj3aG1phpHY4La4PaTMs4MmDEETmtiH+yUu8fvcYL96Vk/CT/72nuBeZClFTGebsLngcargluSiTUWeh+JfXPHA5LKgVj6EuOgbqRTGePLqHsLQBtBYXQW9T4O7Ny0iMuo+y7jk8v/IYb14/wavWaTRGfwEjyUFp2nPMdZZhzK7Fs7N3cf/qF2ieNGOsLAmPHr9Ap6gf5WNKaKQtKJoy4MWfQpBY2o6kV88QkVMLj3Ea9x8/wKuwKsyPVOMJlWFKuYjY9D7kkNwWZBdBy3duI2qfFMHoc0DTeBuj/U0YVcjx+Mx/4lJUEVrLczE3XIn/+tcv0TE9Q+3ai7TH3+MPN19isrsIU4sTOPuff0JUUT8qcjIxXBGK//eLy5ieEaGqdwKPf/gBN59RHH1FmJwdxh/+/Usk1YwcddLfPElxDNYXw7O3xr8d4V3ZQ3rKO5I3I7oi72OGFP7IlBJu1/GDlVrSCUtODdyjFSifmkJNqQwGxwaSiiuxRz2l8Ewmv0Qff72G/L1ozblNg42gzLRWD3w+F4bTX2HRYEZ8zyTMmjHSGzrMSbrQ2tiJeRcpO5IzWU4CRo1evn8e5fc3SwOk5Ymo7+xC3YQKDr0WBq0Gcb3TMKpGsWBYRFh4G9ZVXUgbdpxy/c9Hu1VC/bAOqWmNsDpsMGqVeNujg8upRcyDqhPG+qdAnd6Cptw0ODZJBnVaLNHYpLesI7KsGmtry2Q0GJBwJgdW3wp05iW0Fz3kn5k5ioNkyWCaRHu7jJclbp8f7pkfq8OMxGvnkFXeDKeFDCJFD/X5MlSINbz8aabbMaLjBnMjxA3l0K2RwTJRg/ySXLTMrsC3MoHq6mpMTsmhczpQ0jd5wrg02c38Mz8mvQZLawdovJ8DHY2DCZdJH1H4scJLMHtWobN40VT0BHYT6XyXCQkFTXCTMWZQd0M8rSajx4T4ctJ9Q3a4PQrEhXWgsTAahclJMDl80Aal+Zdon6lDyoM3kOrtMMpbKc1nUOqtwKoJ4a0qaEmPlkxw5ZpFdt4oHpPOzs9vo3GIJorqUfRMDWNEoQmKk8bI4nY8S8mEnco1nRuNmNBmGouWsOPToHFWhenueox6l+Cb70dkix7Lq0vQNWRhQGWGz2KBgWSyUTITVG9G9DWKkJwTRkaMCX057/G8UAzryga25koxumhEf3UclmwGLPR3o8++xH1hGaHNcr6ddXoTot/Ew0hG4kfGj7QwC9yn4dxOF5/56YEujNPgyZ2zyGqQNWyGUtxLg7YP+qYwDMuFzvO6VgajYgESoxPu2R7kTSsRE1ZDA+EWYjIz4XTOo0UyRjNFPV6fD4N7ZR1tSZfJMjWhP7sai0tO9LWWIIvCnrtxH/MzQ2QokPES9haa+UWEdi9CN1SNAd0UwjJH4JTmolHmhlaSh+FxExXKANW8GP0kFNysfGJUCexZyZiaw7BYAt/yBuJKqjArElPnWMKzdxUwBa3qKGQTyMnJwKur11EjmoZhJB8DY1y8ZBA6LSgpK0RWRiL+524KOhvzoF7ZRUFOAVaW3CS8lKZZg0oyaIwaLWbtTiz2lmJKN43eRTdWtb1IbtHC5XahoSgDmVnJuPsqCjnnH8PiXcdozQNK5281fqiM3e1Y8NqxpBwgY68Keq8LuQ3tlF8byovKYdPKUSwSrOfxnk7oNpZh/Ykz5UnqwNULbkzKppH8/AkMS5vIu3uXDIkcOLkNEjYNcJFB7NRMIaNBiv31JZqd0CzLacfA9AKWXC6E1Y3A7VtGWdT3dMEhnj2IhpOETtOcg6pZDxm9oSjuUyD0TSWsdiNy37ajO+cylslgjH9wn8I64FqSozS6jWYEOnR3jODZ42h4qP16RiaQPqKGqi8LNUq69l4lWfdTUJuB6oQizFZGwcp9Y5aU3DT3Mc6DJcSRgvd47JgckWHLMYeUMlJqlN/5HuEbY0mpBTQoC7NEbqDnyK1w6uiX6yhaLc2maKbH+XN+RgvNeqiutFohvN3hFM5xYWng5lYXtVrhlcqjsGRUc36n1flvkpRfxVQfwhumSOmtQEJy5FnVIDfsEbpHqBwGFUYmFSRzDphcq9TKh1i3ztIEZhCHm1641rxIjM3F9tIcWqjvcX0z+7tMGF12lN2+i/U1GzITCrC0wX3GeZ/6eDeUTtItje8gIoXYOm6EWy/H2+ph5FP/jHhyD3ltEtgma1HeL/TPU/P9m6MO6ibSWXIPhmKfY8qxCqO6A+1k0Lu183hPg1dosxHb6yrEPG085fqfjzafClm5HVjX9qNjZBYuGij6p5dJXzqQRROm06757ZL0YFs9xpZpvOJWBF1uFGWlkhSCjDkbhrLT+C+Ku8h/oqsIZhIzF8kqN7kNjif4gWfumR/O+DGbFBgZo0n5GBk8QyqkZ2UhM+YRnqbSgE/nikfmqE/ryEhyYVHUi8p5N0Q1JXB4epFUMQ3LQCIGZp2wbh5gX1OPBbUejqC7BcEPPHODeun1bOhcNrTQRNHq9SIjPANjlGfbAUhPOchAsyOuqAI+M7fKYYPVZUVy7TAcpP8njBN4+LoVXs0wMkSrSEsMx96eC1k5lXCTcfJT+ol9pgb1NOaVhZNenlrEQsNrKHQmmBdHEN6mgscgwrs0CVyyIjSML2FOroJ9ohZDI5MoycxAasIrRBU2k84MrHIZIC6sx/zyLuKf/hGj82bkv60nXWiCelaGpjkljONiRPUZMEsT6VHtFNEL32whmkZtSMvqIZWwzOtRO5VBiNOI3tp2GDY3kXXlX9GlXEVUQSe/YqUU52JsgeKSVUJmXkFXdQY8pP898k6Et5DxQ/mR5LzCuMnNx/WR8cMpdU5ZcxT8SJkHznOWEy80gkIPVuIBd/C1gbj4a46u5dz+NMiPD0fHwY0jXO9Pw38N7+b9P0iDrg1cx8UbcHP+wWE4dyAfvDtwzQcM5CU4T4F4BDeX50DeuDIFwpGfvzz8Of81H7qFeAJh/fH8nYMhV78B94fpnWwnOvb//i1p8eFJ+CPDCmEiBXmyLajsXLxBaXBlCvhzx4GwR+3tP2eYaMOZc5dw8VkcGUvWk2GD88zVLaV5VFfcrz+u43z4w/jLJfh94PZfw7VTcP74dqbfQJp8Ox6153FZj4+F8gXOCeU/GTbg5uWMz/fpYT81HtWZXwaEeuPcx+11HP7Yj6uDQP8LnD92n4zz5LXBbXh87XH/pHj9fp8SA2ULlCO4fAH3P6NcgfYMyPTx8enhf8vk6lJwC2UJ1OOHDJSR44dx8NcGyeGPyV/wGBhop8B5IezH1wXcOtKlbvOxThDOndQRgttfBkrnwzwHwh/pxqBzwW0Y6HPcpNpp4B7VOE7zRxkom79vHeeH0iE//jcojWC3QO56DTRkdAb8jvpr0DWBsB+OJ8duLkxQO2q0ZKAH1VMgTn+7C+HpnP844HdUt3y5/PUWCMu5ye+DZ34YGRkZGRkZGX+/ZMYPIyMjI+NnS6vTDd/yDFqGlVj1OXDn2gV8kzUCk9WKlrwEbG+uw2E3oTT0PWzbmxBNTMFkNKE5IwwVEwuf3kPijDyZ8cPIyMjI+FnztGd+jNyLIiY91peUyGrWIDMvG06TG4+LanArPBM1ZXmIzCui64Menmb8ZMiMH0ZGRkbGz5o6nQvLduGVae6V7501D/98yPou9xz+JjRaMorcy3SAo1flDQYHlp0mCrMHi20dKz47tnw+7O6vgHsJ4sM0GH9b5I2foweLGBkZGRkZGRl/5/wX3pRlYGBgYGBgYPgMwAwfBgYGBgYGhs8GzPBhYGBgYPgsEf30Ir776jucPX8R6zsbEFdH4oD8D/d9uPnNl4jIGwH2lnHvz1/hbfEIdmZL8O33Z3Hmux8wv7nPx7Gs7cWXX/4JEtsBdl3T+NMXX6Bl1oWDbSUuffkNKue9fLgAJuqicPaH73Dm+6/Qo9uE1ylG85iFP3crhPJz6Tr21xw4c/YsLpz9GrFNWv6csj4C427eicM9K67+8BVyh32U121MtpaBj+FwFxFXvsTj5EY+HMPpYIYPAwMDA8Nni5rrOfwv92kmeU8WOHNmsDGd95MVlcK9Lxg4IzHRCJgwDVGxfDhgB+m3K3lXRUESyooyeXdmVBnKUlp4d2fEa3DPSgfD0lsDNe86xNqaCm1DOnIf4FFeL5zubf4MB01fA+zcFtXbJgzmJWHYJPiX3BDyN5J1GbsHu1AMt0JPxzPVleBsI3d/HGaEZ7IZTgEzfBgYGBgYPltUhmQdGSaGoRz+Uxg9ZeH8sb69Emry8Jq0KGgS836HuyZ0q328G1hGaLzwOZz6+lI0VCTx7tYXRRitD8XQ+CRCr3xH5tFJGLoqIeeWlniY0TbIGT6EwwPIm2Jg2qNED9eR/qaH80RrWy9grMWYQwgWEV7L/6pbQrFD8ZjHunjDp6+2hF+x2l8ox6DfSGL4GMzwYWBgYGD4bPGh4cOt5Iy0ZPO/Q/WVwMosWmVL/HkO2po3WD0yWg6Qc0cwdqrLWlCYKqzEpJS2YnNJWHIpjRGMlGD8qOFD2NQPQLu3j1XFBCY4i8krx9Xrt3Dr4jf4MrKJD9N0N4z/bU2M5w2dgOGjbiqHhn4VjcXC9xYZTgUzfBgYGBgYPltIC/r8t60At6IfB9ySD9bx8N4dNIx74Z5ux6Mnz/Dk0QM4t4Dhplk+7N6qFlWTy9i0TeDu3Zf8LSasLOLu7TtQcvfEdjV4cv8Rtig+x1AWuEWcANxzUv4DywKWMC3nPhsOxIa9QETpNO826yf53wAOzBKoVoDUXM74WcHLew8w5ROspyXtHP/hcQ4Z926jrF+BQ1U9Jj1BiTIcgRk+DAwMDAwMvyAWx4Qnev6Z0M1xaz8Mp4EZPgwMDAwMDAyfDZjhw8DAwMDAwPDZgBk+DAwMDAwMDJ8NThg+kuF+jJTHQru2hZTbyZB016JicQdT3Y0YqctG5dwGJrOzMTgxAZN3E7r2VxiUSPHinrBZ0saSDA/uNQG+cYRXSjEqN3K+KK5swMTEIg73N/E+vw2dJZkIvGkX9c1lfm8E7iu4kxMyrO4As5NSjI+JcSNvgg9jag9HknQbhsVBjIz0ICtfAtfsCEalUlyPbMSeth0N4lHEP3+EgyUVosrEKIiMwcqGA9IxGUZKnmHItMfHFX73PFY/2FTBIqnG1394BO4ZfO9oFqp7pHh9Ix97MKC8T4KCxAf8K47AGnoaxOgtjcGIB0iPS4G0OQWDhjX+7MZcDW7eusE/Zc9hxzqHu7EldEKBuxe/Rqd6y38GVGfX8Ie0cd493JCIsdERSGa9KK/IhWSkC+XNc/y5H8XSAm6/L+Od6/O10K0Cxb1y4dgpg+NwF/XZzfzxoXMa3coPX6j8x2GSD0BKbZCQVSN4rM1gSDyC2GvRH+1b8ZvAoRXvEtowOqX0ewAxKWkY7c3EqE1oQ2AfrbUzfjfBIMXUut9NaKuV+l2EfR/qJgW54mCSykhCjlEv4eTfj00v2mx+9ycERUseekbHMNIpRl5KLgJV8SqxFIOR8ZCMjUHp3PT7Anb1IN8v45MLsTNbipKOEYTeyqL+Y8f1uzeo31DYVSveF/ahKjkGx+/KAJOjQyRPTagVm6kfZmJoRIrw58JbLOseKR49bseyRY0x2TiSLz6H9+itmN8+ujLyMTo6igmTnT92SjIxPDKC8JdtcCvEaJaOIDElij/3S+JQ04LijjFUt03xx5tmEcpFY8iMuM0ff0rwKkfRSGPRoibQsdbw+N4lVPUJb0hJJCL0FkbDubWKjm4ZOqpSMBJ4AtgP5dw4Ir54jhGSqeXZaty4dZPX9ZvacRSKJzGn9o9U+zr8651cHK6YMEpjykDRG1i3BAHszr9HcttGenAaw9k5GKR2fV/cBFX1K/TTuHQtjnsl/RheiwLNqRGooX7iXPfRmHmZdAWXziFC06swWJsIw84y5XkM7eUJGHXvYlI6ivGJbqQXjvJxGLveoU9MY+/derjl3agbG0Vi1FM640FSZBWG6zoReOH+pyDzyVcYswtae0kSh9iBNWjbInHz3j3eb7axHN1Uroi0TMDRgdw2GWRq4b2xw30rrvwhlXcH4+6//x/hgW9CZ9ozjFm3MJT6BLcuP+b9hupiqd5ElO9OGOZonKb+nlY1hK1pCUaobl7cKufDHWMLF/6vc0c6ti79DmYsB3j//Bb+d+wA71d2PwzSngZEiZcxXP4e//MwkfdXz49DNj6OPzwV4vxoxWfb2od5sxV5kzSS8pszca/iHWBN00XGwy6G49/g2zPfwrR+gMhndfw1iw1chW+goFOG/EekqGwS/OeX3yKvS0X+Nlz4P1/gRRkN8odbeFg5Cf14G6/wJobbMVPXxLvjHn2L774Kxa7/IXRzdyx81A57S0YMTM8jdUQo7vq6HZ1tx0ZB4utaLFSFgNvyyTpVh1FxnaCcjb2oWBCe1U/OrOZ/1S0ZUHVGw3u8P9QRpvIreQMsL7qUP/YOhEHvmkfXnAejZQ/9ho+AA20H2hfnUdsjdIrs1uPB0DGS5396fxONlRJUpRTx/vD0o1keNIISzudzT+2vIiqiCl/++SK4/TkLM7OojA60di3yYX4MSnEvjJpBTJMBNlDVRvkzY8okiLqqMxuHG0uomRHSU430/k2dICszBnK5HA7tMM4/z4NS2Y22eReqH0ZAOT+KHNIeBksgxkPkl2T73SQ/WxuoS67D/t4GPBvbGOqQQ1yfi/mdbZgda0gNewW5QolzV94Cu5yCGER/3jP4XAYUzpAR4ZpG6ug6bCYnRlNeoGFei3uvSeEcWpBbK4ZmbABVz1/zabWmXIGpOx05YgNG8yswpVbB6VtDWHQetLoBdM5YEFoyBI18noxyB/Z3zfjX//kaYXl9/PU0TKNtkHsJFAirm4bB4MG6cQbxmYlY3tiCzbeBpuoC1DWKseowY2vNjcKUp1C4t2G0L8M814/suERsbi/Dt76Fmrw3qB82w2m2Y91NMvvkNTzbezDafFCO16IgvvTIKP4ksOvBnbwF/wHBPYS0PjM57GjuV2M4Mo/qaQO7+8G9Q0BxURqaMoS+tCaJhZITlwMFxshIss02kXomOMeRMxlskO+T7OsxuuiCpTMGdu8yEmK7yX8Vhd3jyH8qbAjHKffSCmHS8GlgjwbHRHz95z9Dz6lVgrGDBmTfMhLj+mGfa8f06joaaUL1S6OwpAdxT75GiUwwFowd73nd6ZztwfEL1Z8GPPIWfP3d12icP55QcrLRzI87ArzKduj9OyxvafrQpPu4Bwa/zm6T5IET5xVVD7749lsUyXhJRW3bEF4WChNJTufdSA0YM6uIeC/iXbU1OairFAyAhudFiE4SFgQmMi/yb3YF4+Tr7C5BD3kGMM9NIrZ9eN8tGBWbyg60GoSLRYl5WPJfE/NCmGyq296iJ+ua4O6hSd2ECFllUQiJFca8n4q8zmGklHXx7shCKUonhSnJeO07/rc29zn/259QAp+5Cf/z9fdopX7KIb1yGAWXi3n3MfYx0FqBygpuErmOjul2LGqF1/tb34Xy53P9hk1JhbCB5DoZgZ3DwhtzHEpCMj/Ql6toyaxAdi3Xvg4MtZRhWi2McRezqQ32vXjdJch1eajQDtml/vGXg64FE2ZhknbC8FmerUPjJCm2LS/yecNnG/kxwzjcXYdT3ouszuOuEV0rQ8Lbet6taY/ESGkoXB4bEm+XUTcXMJZVSlkVsDuRC6tLi1QyWnQTXRhcmEEhDRL9WfnQrgYEdwU948KT6FG1nMLdQ8arCng0EkR2cgp3DzabGQnxnDG2i9f3UrDJWRkH27h0/nskllZAIanlDZ9DfR+6qQ4ObX3o1+7hcIes7CEl5mteQuP5ePVjNLucN3xyY/2GT38MTfarMaC2QtKYdNQx1hYakDQgVK4oIwxfPS1Aw5SCP+ZgHM7hyz/WmAb7khuZUan8BlOwdqEl2PAhI5A3fA48OB8pDMSl2fVITIigMrqQUXlylvAhBjq5ul9H27AKLf1jWJ0og8tfjWWlI1i2TRy9LjnYKRioPw0+1BX4Dcu9KfTOCDZ7RP0EvrtwFufP/YCH6YKhd7i3hfiIKPj1Co8ltwO1z+9ig0v78BCSsuf4+o/fYoav8n20Vg9xDqTFVpJ4SWkGvI7tdZIJi0YwVD3zyBjd4MMMJ5bw8jOeVgazNAEufyM0veY6Ds20sm9B29HM71exv+1ByP+6h539PVz/7k84d/Ys3jRpMF/7Bok9gnETgKO/Emp/nqUFr/D9uWRkjwltur9LlXiwfyTD29vbZNj4K5bkjGvKnX2hO+7RTPJgPyBLB9iiYNtbQsc62F4j9biPfb9RsLO+hoO945WRTwI7LtwqPR5EOKQXlENRnAwXFWsgMouMWQdWybh7d+kc7r4q5BoCyeGhWKcKLE8t4a9ZFSXCSEXf3ZgVDJ+ZRsHwIRntVzrx56+/RF4bpbNP52wKpNXNYyD5CQxOJ8pepENaFka6xYqku+V8u8xX1+PTekt3FbERwspVdBlnyNEMOOEpTFS+kufpmKtNhcpuQ0F+Bn/ul8Tb13H8b29khDBzJpm+cP4MXueV8SvenyK6GkjujmA9MnwcknL0qYXB2SdvR7bEv/vfB/hoH58g2WpsqoemsRqLNjdu06C/TePNnrMXjpWAhljF+0jB8OntrEZNmbCnT0NqE/Z3tLhEBkJB5KuPVsA/3seHdJS7XzB8Nr0omt2Fd64ZudLAmskumptG/G6So9eC4WOgiXxv1lXerRwbgqwtD/OU//2ZUgwJX8H4Schu7IW9+TlUNOaNmr0oHBMMn5Eqv+GT84z/7StrJa0moDuigIytGOjcTiT9kIbtE1bKPtrqZNR/YzFc+gLWXRtm/YZP01vB8Mm5Kex43d5WwR/bbA6EZXBj1QGSH77Hyon4OKyiqnARuXEpGMhKhmdnEZO84XOIC5zhs+fFO7/h08jbCKSvio8Nn5RCwbDjEGT4+FBc1wsNzZpd6zuIvJaMBVkXeq3bqC8TQTHRgYxeKybHpFAoh1DVr4W2/gGm5pWISBjA7tY2NjaWkHSjEl6tAjMKBZ6nUqK7s5BNK5B7NwZrm3NIqp3BnKQOLeo9bG1uQJxbCPvOHkZF/VhsScWYeYeMlFlIjVwlHdLAs4UN8zhihtcw3l0HpVKB9PwGTKamY1qjhUqlwo5nFBqdDoVP67HvXuCNptrCYr6BOmILBENofxeblJ6qnhphNWik9kOSVsyvPLkH49E6okB0TCN1nHR0kVEjrkyHfdNHCt6JV6nd0GlUcHi3MDMmwWJXOtTeQxgswszAMJDOr/jscvmm2XB2VLrQkSztaFggVUPWvG+LOg0ZPt9mCbPWitA7UMwNIKFLjegXoVCqlHhf+BeMlcMV1NULezwMdOXSDNkNt7QYkgUz5KJmUJNhrjUdNqsVvrUllOR1wGqxftT5fgzRYfchV8hh10nwIpHqfKIOEuoMybezoNUpMGE4gMG6iq7KRKi0Oii0Vqw5zfBOdWFcoURN5F0a+NbhcZjwpHgCHVmhmNnc4Vd8EpJjoFDo8cPlKDKwxRilKfDWyiSsSw5cT+3ERHM6Mic3YTc5MRSbz69USRKKsE1ylFArhlo6BFHRTSjVatw9fw2a1jpwoq6YlkGtGcHwhAcvUgson3poVpYhUmnRWxrFr/hsWS0QkVwmxWWQ0bYG5/I2JmamoBsug3F5DwZDQMkQyEixLB0bKis2I3aOFOIh9NbjNbR9kg3P5rG2tJvsFCIAko2gsJ8aBgpCMUt9bKqzn98nRN1cjBsFvfy53tBELNI5nUswVDmI6hIEmdCY4ZPmoGZIgfhYQQntbkxjhGTgcNmEsLIJtFcWITDl4dDb202yP4vczgU0Pr6GBaUShWEPsMPrFg/JXzVveGYV5QkXfEKIToojuR9BRccijKQrqh+GYJHKVxTxHKKSd5ihPp+fnOYP/ctBQTP4vjkF7r+vwardQEa9Blq9FjWJx6u2nwo8+gEoFXNIDa3G5pING/xAaUF9OzcRdaK8R8KPZ0s+Nx7mi6Dl9PZSsMQJKL2QeqQb9f2CvnZapqm9yAhPysLe3g42SZffSCzH/sEh2t6G8atkh6QjHKt7aEm7QWGlyG3QoCcpFbN0XV4zGRLjw9DRuJTcqaL5wEqQTuB2hC7FwtHAbkJzHzfhP8CrjFZMD5TDt+HEowIxtGol7DTW7M3XoMO/8mOyuMgYewrZHDf29sM53YxekqXSbDJSXDKEVU2gLiIGjv11bP5EpZ9W00l/d/DFf3ArO4fI5p7lIIjKXvC/E5X5kFG58stLsDQrxQK572a3Y3dnh/rmOpK/yeDdxzdT9tFcMUAzYSm+COOMfhWm/btd1z1/yf9204RGoZhBUdoYRgfbaGxXIqqoAfqKUMhobFertdjd3eTmz36soCydxkzrEM5FNNJYOoJxJWe+H+K7tEE+RO71t2Sr9KFoUlhkSMoP6Io1VPUcP8LAHm5m+HHsTKJz4vRZ0j+Kx+nCaiEDAwPD7x1zdcKnJP6ZsPc3wPlPTNSkDjxC8PPB1pd7YgXu5wIzfBh+HHsaTBx9k+bnQW3KY9y6fhWWT+yuDwMDAwPD7wPM8GFgYGBgYGD4bMAMHwYGBgYGBobPBszwYWBgYGD4LNFWnYcb/3YBmbl5WFb34OXDEP4h5G3DOJ6l5qKqk3uTag/F7+KQmpiLZf97MTe+ufJPf2aH4ecDM3wYGBgYGD5bBL/O7h7N5x+m9c634cLde+jW72FZUo3c4hI8KB3jw4hyy9EW/v5oywuGTw/M8GFgYGBg+Gzxl/bxKSvMh70tFCI3sD+Zg6mJXqg2gZ6w0BOvpzN8WmCGDwMDAwPDZ4uKqxnHhs9gFm/4uJwq7O/vIys+HofuHuSKbJgveoxZrR7T09PIuH0LptV9HFDYg4MDHHI8JPrjYfhtgxk+DAwMDAyfLdY9q0cGC7cbO4/9HWg1GgT2JfVYtbD6jrfn2/T5cLC/BffGHtwWB5bdDmytuk/sYs/w2wUzfBgYGBgYGBg+GzDDh4GBgYGBgeGzwb9w3xJhZGRkZGRkZPwc+C96vR6MjIyMjIyMjJ8DmeHDyMjIyPjZ0WCyoDQnCRm5mUhMTILa5MTCSAt0dM5q1SM3NgYNXdOwODTIiY5B7eAkNCONiItPQGJyJv8FcT4e5RRiYmIxbXDCbZpDTHQ0RuZ0sDq1SCX/EbkOhkC6RhMkbSVISc9ASnwMeic08DoWMTA2D6PBgNLcNMQlp0GrnENCAqWTlISm/kn++oXhFsjkBj4es82E9AS6fs4Ao8kKzeQw5o1GmOw21GXGoKxjGGa97qisjCfJDB9GRkZGxs+OOq0WOwdAbUghuJexNNPdSEt8D53RgpbiNHCfZ65NT4BGqcTm4SEaX4dDvSZsW6ivT4RJZ4aJDJC0e694v8Q38UgOT+TdkTGpqH77DlvkfvcwBnqTUUhXp4VzfR+m7jqo6Nyy14Ts3GQ0NYzBpNcivN/GX28ko4zD6pwYHSYfLC4NKiOeoXnKAr3BiNr7d8C9f5Z/7zaUCxOIjk7ErNWC0ZJUiDeAkZxIjBpcH5WZUSAzfBgZGRkZP0+SEVF4IRM6u5mMEj2GO8lttKG+JBQWowFj5QUY1tlhX7Ih5k0FbHYDDLp5hHarYDboYDUt4F1EFwxmO0oqc1BbGgErXVd5Mxs5kS9gXFpH+t0/QKkng+UoXYq3ohhii4PcOjKeZtBYM8Kv+LQ3lCPuwR3M6QwwO/TIfpUON11bV1oA52wR6sYtMFCe37yrhsViwUTdGyi1BkgbWzFlt6G6pITyaIJNlI2qUWF1iPFjMsOHkZGRkfHzZLDhQ25xVyY0RitaahLhspjRW9oG58ocYqPKsbrmgpaMltnueGj8hozFqUbijRqYbS60N+WjqCiGrrMgJasDm1ub6G5uQVtUMnRmU1C6wYYPxeGY5Q0f7naWTquDUaeDWKWGdnwAtZoVmBc68ac/XcaNC1/jq7fFcFjNSLleCKPThtGSl9AazBhrJsPHakVbUSU0S1YoWzMgNrqD0mQMJjN8GBkZGRk/T5Kxk38m7cjwEXWkQavTw62axX99+wPelw5hsugtzl27gfNnz0CmMCP3WTEMNhPUs/1IaJrHwkASfqCw/QovdIO1+OKHH9A8uQjLXBPOkL/UuIS53hJodIEVGANGywohOjJ8ZlBfJYHJoMetGxdx6Uk27CYLeluqsMStMJmtWF9fx8ZEPno0W3gWmg6vux3nvvoeOQNGuo7ia2zGpNWEpaUFXPvPb/A0pRWrMw3onWTP+ZxGZvgwMjIyMn62tLudMJCxw7lNNif/qyUjyOdbhpMMHJPNRW4fT5NRD4fLzt8WMxitcJHBZDDZ+XNmgxZ6kxXLy8swGw3Q0XnO30jXtBY3UfjjW08mq4O/Vca5dToz7BYT/1D1ktdHRg3Fr9fBbLXzfoFrDBY7LBSXx+OGTmvm47ab/fGZ7TBTnnRaA5YofbfDhp6qZhhdwbfYGANkhg8jIyMjI+MvSIv1n2+AmC2Upt+gYzxJZvgwMjIyMjIyfjY8YfhYbHY47LajY6vN7HfrYLFY+WU3bu8Dh8MBg0EIY7T4wxsMvL/ZSG6yMq12B6xmE4W38v4cjRSOW76z26z+eA2wWo8f+uLiMlK8Jvrl4/KnYSO31WSg9I2CP7nNViEMR5M54BaWIK3ktlm5vOuoDA7Yyc3l3caVj8Ic7akQRC5uq9l4It7gcGZ/OY1mrjy2o6VR/lygPAYzf53NQmUyCHm1UF4D4Tha/GGNFq6uuSXN43N/G6nuuHQ4N6XF1Zs58MoktQVX1yZzoP0MMAUts/5sNJj4MvJt7vezUbvbqB5PhPvN0AA717acjPvbj5M5rgzB4cyBeuVoNMPkX5L+6BzFF9y+Rk7eg+TCElwP1CbB9fQpkaszu83Cv0USWHo3kZvrE1zdcf3mKHxA7jl5o7rg5OHoPMkL9xwD57Zw/fJIDwg80i38sdBWgfA6OraRrjDx/S/QPz+l5xeMfHm4fiocH5ePKxtfZx/oil+KnE4MbjM712dPyPWnQbNVkIPj/kz6nsrCPfzLyamV9L3dzsmYjr+1xIULvnXEkQsjyJMwLnD6nT/nl2Pb0UqNTnAbBRnlyOlY7pzBKOhBTk/o/Ndxt7oCbSy4j9MMlmFBJ9C44297E42PwrjA3ery51nn11vE43YS/ASZEeTHahHa1ERjtYP664dl/Uvk6uG4PxmPZJEbi7nfYBnV+fU+V8+B621HtoKffN8/1rNc3z7u+yfrmK8Df5xCmOCyCdfw9McZKBdnWwTiDNSLgfT18RjP2S1UDzrODgi0s5D2keHDXZDy5hFunruOOb0JQ40VuP1dKkwmM0YHO/D45RM4qaCSuiRcuXoGbRIVVBP9SH72NeRaM5Tjnbh+9RIi80ZgNc7i0dWLePa+CAu9Gbh28w5unPsviOa1iH10HXduv4baqkdvQx5ePKyAicuDwYKqsPPombOi9uU1hFy/heYpFQxyGR6HXEV48QC0g004d/kSIoraUZ8ajlt37uDr/98f0F8Vjhu37uDs93+CyjCFR2ev4eaTOLhsWkQ8uYxL9xJgpgq7eiMEN+7cxaL6gwolmqfr8DC2Ew1p73Hzzm18/X//NxZNgmHCLRlG3P2GDCorqqOe4/K3IegnI4droFlRF15/ewNysx2K0WLcCLmOt1m90Ez3IeTKZYTmdRwpO4PFgWffX4CChDsr8jqlE4JpddCg8TfQqhrBg4hC2C1k5MhqMTRtQmr1AN+BlHMijFCa9dl5/CuSVvkwynsWTo3nNBqoc7u5+96cMUhK0uVy8Z2CkxGX0yl0AlIoswMVuHb1ChIqBgWDVTePZ/eu4PrLcurcNFCauI7sgJMEkTMs7dQ5uA7AxSd0FBMfv9NJ9Uz55O5fc52BGzRtFL+J5M1uc/L3v7l82RxOkkETGZpcZxTugRvJuLNRHNwrnm63m5QR5ZM6BJcGL/h2JykBGjCpAzvN0zj/pwu48iCW33/DQDKX9/4+Qq5+A5mC63gWWJ0WFCf3Ut6NZMCZ4ByvQ5/Gx6fFKazSpGYKR52L8u80K5HcxRmVZgpvwmRDKzQ+NylfG4V3IaVxFA4z1RUpIbthAaVTJ43p3z6NJMc9eBByA3dfJeN9VDTsbmo3UlKZ7yJR/uY2Qm7cRGLTpH8QMGBBXEf1eQURhd0wa0W4d/Uybr8ph8W6iIr8KDRNyKm+1Hh36xrphQcw2vx9kdpPVJOAK9fOoEOqhnq6DbdCQpBUzb3tQjKsHMSFOxUYqEzBzdu38e2//gdkRuF5jN8+DZjrb8TtixfRJF3gy6OcbOXLl1IzCtOsGGepnl7n1PP99fQ4fh6atTN4+uAWpdXBDywGxTgu376JG0/jaBD5ZdP+OcnpkZa0W7h9+w7+8N1F0s1mGkCVCH10GV/fDuX7e+yz+7h56S5U1DcLI2/jLI0pSv2xsc3pifi3d/HV//oTydRdzE+OICn0Jq/fNKNt+PbabbxOLuD1ks2uwx/uRsIiLiaZv4Ub57/CgFxLOsQMcUsSrl4+g9w2HZQdlTh/+TKSavqgGi/FzcvX8KZKzD8bxKdLuqK7Mh5Xvv8Kl65fQTP1h5bqROTUjVD9m5D4lNri2nmoSPfkh9/CmZDbNDlT4fGVENy5dwsPYir5/KimG3A75ApepIpgmpfg/M1ruB+WSZN8I3LDXuD8Q07HfWCM/BhNNry69L8xrOQmgFT26RKEV09jQdqNiKdnaUwxQSNqxVkae8Ny6+GbrsHXZCfcTGniFyTMJjm+/lMsjIGJN9HiNOPsf3wNg5PT1QZI8p+hQaqArKcBz759QHVvxnhvKa5duYSk0nEsDFThCsVf0CqDbqYH965cw7OknhMTdptbg6/+7/Nwujlj1IDurFtolOrQ3lSDP4TXwkrjRX92OK6eD0Gt0gjZcA+uPnsHr8uJlLB7uEP2wv/zf97x49CR4cNZRR4a4A2uMfRLF7FP/7LP5dE5HdYPgIqSeDhMOiyterG0vITytg54VndgbH+HRQ0NVp5VeFdXUJX4DoaeIjSoV9GSUg4tDSacooy4S8rPpETikIKUmgjTOjOATeTer+YHK+NUI0ZqUtE5a0P6Hx8ho7CYBg8rmhMfoiw9DXPuPeQURMNHCrIyuQQaEnSTTYP4tglY9VqqIBXCH3VA3NkC14oeyqFGtKnXsbLsxGhBJGYsS7j68i0KS6gygxqIr1AykJr6W1AR2Uozdm5fBS3iWsZgp3xxeZ8ZqsZgbw7cC4N400ED2bqZBsxK/uG0pbU9iGPDsUgdbbYjDgnJWZgl4bbaVuBZWUNVbgpsnOVKVvtYRS7qohOgIKF+VUbxKxfRpdX8HYOhAZNUzuGhLoxp7egvroHOo4RkgVOqRkz1FsCuXkBul0oI292KWTJkTo/rA5Ix0FIejTt332B6vgO3bt7C4yfXMTClQ3/Gezx4/BSiqWnEpbTD6V2C1rqO3MIYfoDX2b3wet3ojn+MRcUoGkdVqE2OwN0HD6DVTyO1SITGzDe49+AJzl6LhU3XgtdvnuL22UtQzkqR0quGaaoDUd0KFKaUoDU8Aq8Sw3D+bS4cbi1e33+Mt+lVKHjwiAZMF8qizmKkNAtPY2Iw2t1IyusORhZNqCKj+OHTEAzPaJDw8hHepzdB1FRGcibBfz1IoLYe5wdqs30KQ8OzMNiWkVTbg7i4Bow3JuGP3/wZonEZKbIxvLx4Flfup2CwKAWTo534/ot/R3H/LOLyu9Gc8hzf/vEcJsa70Do6j0tn/xP3EptRnFqMsc4cfPlv/wcD80rEFnSg5N09fPfNXWg/kL3fMm1mOV4/a4dbS/2LjNeVoWzkD9Ds1GFAUUsPOt8VwrHsI+Xnv4b6jn3JSzKxitKiCNS+y4N5jYzelqcQL6xhd30eAzI5JntroPKScTjXjdwB/wxWpyX9sYQlnwcVnT0Yz3sMI8WV96SADEkDauurUXC7gu+fZqcJCQVNcAetxP2Wye+mW52J/JRkmjC4+VUBae5jmKj/5D8txlB3FczeLTTXJFI/Oj2On4Wky/Lf16OlJQ9zRprM0Ax6vC0ONo0J8uluTBo/HdnkyM/kTWNIjZPwr4FrrR6aJKlh63yN/nkr3KSHVXoRJIt6LJP+cHBvYfWfLCNn5HCvs2ttRhhXtqET50KjM2K2swxvM7MxMGeEzmhHRXk7nhQ38nrOQAbiu5dJMNCky2KVI/l+Ewz2FdQVhiG3IgteGqzzwkuQFNPDTxTECfeh5CfK/nSp3kfLiyE2O6DV2GkctKKhSgLDYgfGFDQWGrSIb5Vj2aOFk9oledDEl1WWlwCpwUv5MSLpagGMLgemyq6jMf8x3DSJlHY1QNRbhobBIZQPTcFD42JwWX+URitSSH+mFjTCTvopisbqXMksfNuHGK15AwtNPgsL3vNjb21GKZQjKXgamw2ZnMurETUFxcg5m0fGzLGRYnYY0Zn7HllVk7wBltpWBJlkAev7QMubN6RPjCh8nkZpe1BeHouN1TUaL1eRVV2DpRUfGYFG1N96Cy2NlYE4rQ4lKmjCldqggsVlQXVxDHrESuwdHuJcZg8cNPG+XrUIu9eEvJtp8FFaGWUF8FDbcvVnUw+hfULB65ATt7rcyiEkR5fBYbVQZnXIPJfPN7KBGqigKIlvdONMN169Skf/yDwM1ABTda/J8KEZtWYBb1/FoaWzF9rFMeSmRyM/rxlaowmWxWbI5rjBX4GGkjTEx5dhQUuzfbcaeQ+raZatJ0NqCruyZAwrXFjZOQS2LQirl+Htf1/hNrBE/ssoNOQ9gJXSbAirgM5lxWhaBJQ06+OEd364kqxLbulrGi8fxeL9kwfoNfpQVxCFvPxSKNQmqiBgVV6NrmnFUZk5C7yntgoHWEZtYj/M5CfLiIScj5fOaxdQNbWCof4CrKr6kNhHit9pQU1huX+lyoD2sHeQmy0wejcop/t4fec97EY5Xr0k5d/Rz1utDu0kBtVmSKIioHO60FxfiJjYDMzMHTfsT6bRgsa2RuwuzaOa6q2oYxiW0UosyMlwpdlAbXozFDMSTHDLehS2qb0BvsDg9Fdoc82hKkUEjcoIn0uEXomKlIoLiY3duBqahJSEcFyO6OIHKrPDgdrUt5Bo3PwroNySb05yJMoqq+jYQMYOtccYKZAHrzDILUs6tGioaINZo0d6fA0prW6Mzcqht0xhbGwY+RI1rLPdiOvRQ6s1oOltKXRrDgwnlWOyJRxKkkO9bxX1r17BYHWiOeMyxEUNUG86MdfbjrBXefBs2RH2PhzxUal4XdWP+JRoNMx4+PxqaGbDoSczAZM2O9WNDxlRTxAfl4a31TIYqQwzMyK46XeW2lVH5ZHJpBCNca+a6mBQkYK1ejE+u0AdicION1KdTZMMkAIwKTA6Yse4pJs6lhaqkQZYfVrMLGioHvSY6G6BXjFM/en0ev8t0krG6+Nm1ZFhbqC6z8/MhLo2CePaJbSGPkRo+Hu0jsuRHx+L1ByadZFMNKaHok+1jNTUEn4mruuKhGjRDrVcgkFSPGOiSpp506xwup0MKSXeR0agunMc5qkuvHqdgQGaeC2I2xATHYWWVgnGuiqwiw2UPGiAha6bLc+AxEQDgD9fv3XaltS4eCWVJO8A71Or+Fny3HAroqOi0domgmJ8FNlvXiCvbYgmU7/gqgvJ/4ObF/kdiWNehkNDOstunsajyGiEhb7FYtAg80mQDLnuihK41v23qknnLPTX4n3DDFw2PezzPchIqqEJuwlGzTQi8qqx7vnAWKYB9sN9fDhdZrZxtQRkRofCLGnBoncfN/Pb4LWTEUL9eFzLGVBkeFlo3IvsgtHiQHV9MWqK38JGY1Tl0xKoJOkIf5+AtzfOQ03jzHG6p+/jo5c3QzKuhEk1hehOmoCrJvE+vw4bbnKTLs+uaCADh/QQ5fNtGBnLNE5PNFH/Sz3DrzyJatvRUxyLas0BtJXp6JD/xBUfMnwSalvR+vY55heG0TY5g5yBaX736J5yMnzIWK/OvMmPvc3RFTBtcuMcEPkwDqqZJrh2N1F4phgWy0nDp7lAjLhX76FseQPR3CLE4gWK04TaV69pDNUj83wJHVvJ2CnFimkCL57FoLl3lF9Zb8jJRK/OyS+KBOLkDJ/ynEkkhb7GbEE4RnQydIhUZHzp8H1GL+zUxmHNC5RfGp9jUmjctSGyqJA3fLjV64yIDJi4uwsU15HhYzRraNYrI8uAZnBk4Jxm+DgpwsFRGXzeNUTSAMbdDuAMH7nOgvGeNniW11CXG47m9Dho1rZhbApFy6wb9c8ioaQE5bON6JM74CKFGtXFLV0Jho9FPo6M7Cykvg3B2woJRmYM8FgnkTKkQ3viIyxveFEQGov6jFi49vaRXMgVxoLnNOt20QyJW2Irv/8eOqrUxRlutQqQ1BXAsiDCvN0LS2c8uhYcUFDh1QPFmJnXHFWm0WJGa1Y2MjKTEXIpnCx/J17md8BFhgInzNq5IWRlZCDs0WW0DYzgyes6rOn7UEZWJ3f/WBcwfLgVn/4hqhs7QiNyMCXuoNnrJkrKEuB2OaGUdiEzKwsvLp5F/Ug/SshSXbHqcKGA27FTyMtPJdc2bTWt5HahvacE4tFJzDXEYUrngmq8B/1kiIz2V2DV7oDdaUBXQw+1XfA93B+n2elE2MNQ7GzYsTDdgfj8YcrnGKqk43gePsgLvErnhZNmGx2VGVijY6eDZu92KuNgGxmkPixWPcUszWTscjHudqzB1JWPfpMDbu8yomLjsbvtxdeXwkghdaNfIodiQYKFcTGeNC/COFKKBDIu7ZSPptAiKD02dMcUwbhASkWig2tOgtq3l+Bd8SDy/mVISuow77JDMjJHOfGgrGISYTUiPp9GOxlfJAwLJRdJkTmhnZyGemWdDMNEKJdc1H5mKDzrwNoMxIvzcLlsZOTRLIlmBPx9bJuJDDByk5/FQZ2QDBod1SFnyLhIEWnJX0d+3JK5jeRFS9dxfg6uc/Hn6NrgsMTT6vy3ShP19/Q7T+FY9sI4OY5pUoRNmUV4mNaEJacRbe+KYPd5+YnSLs26Dva20FeXDS8vE3aMkB4YsW2gLDqFjH2LYPiML0I1NYaicVLa7VWYW3HzbbW9soSBsQl4vSuIrO5G5KW3cFJbDWZcQFd+EfXPNFz+8ikUNhfiiirg+yVXRn5mGm1eRKemkNxbkF3TDZ/bjncXhPL1Z1xHZdJlLHt9aM3Lh9N9fCvmZ6fOiOrE99As7SD8YTa16xLUailf/+LiJNh/SaPrF6CZ+nfJmxRer3G31N2qYdJTBmwsu2lsUiClbQEHviU4TUrE5zUBOyuwBz1TyvNUw8eI2bkxrG6sICU1FdKBemSTwf/N1TuYVRjQl/IICzSocoaXy+NEwd2H2F4zIyenHnkxCVja20NMcQPmBsb5uk1OaoeFvz0fSPc0w0dC440BaS0ymOd6MGWeQ0JhK3WMZepfJlim6lDWJ7zy7iL90v70AQxLPmSGpmOqIwmqlQ3UF4XBTXnNn3JAlhsJsXXV/wzRXyEZPol1rdjYVOHSf3/Nv4GWPThzZPhwhkhjThycVK70glyopFK4V9fw5l0hxhrqkEHj2tX/voFJMr74xQAib/jkNmF1PBv/+14DvO5xSIIMH73VhYrYx9jaWUJhUhHEIhF8y9t4n1sGVU8GjGRbeVwuPg+BfHKGT1liDwwDtfjvyFpsWbvRGWT4uOwa3LmbR+PePBLz58gesB4ZPiarAYWdfUffLwt6xseE5vJyVFVVQjyvpGMDFvsDz4UYsaia4xW/dlSCMgrnoAbnGsGkkvEWstWiR3lZKeada3B6vWgqLUXzmBpOsxajKiufoNHogqi5DtXN1Pkd3LMYRihEi/wAodFoYFZPYEFjhFbaicraJnjsRhpEnCijuPTLK2RAGFBaVIRFi4fSpsJY1NSZKe8U96hSeKDJSte0lRRjTL8Mk9uJrpJStE3o4TDr0N3RiPoBNf8cTKDcHLm0dVReFc00uXiNXLzkr50ZgFxJM3aNFnPaBRq8KG9KMUrqyRhYMmNoiIwW7vrxSf56q1OF8tJa+EiZmyiN8rISTJnWoBgbwITSCI1WA7VsElqTHYsdLSirbcYqDezBefkp5JZCVVpOQepgVilpkLbBSe0xKhFhRsHN4mjAnxsnC1uEaQXVjXQEomHxT7rNotNp4DUqUVjUANcSGRk19WRM9MJttcLrmkUpzTp8ZLC2dkxhZrQDlZXVKK3rxXx/F7WRF43UVgNKD82w5jGu1mOopgz9M5SuVYGunkl4NHMoKm7B8xIyWl1kCCi51R3q2EYaGPtr0NlFA6zehqHOXjIWafZD9aiZUEBv86C3ox51Y2QUU1nLq1ug1wxAPaWlMNS+6kkUFZYKt2Q0w5TPampzK/rrq9EuNWFaJoLZbUZLaTEm5qyw0uxARO0t7+9GRfcCya8Bzc0jRysyZs0suskoC9TLVHc7FP7laoNei+a+qaOwGqpriTygUI3o6RimyYJQ15xsNvdNHoX9pEj93UeDY0V5JVpFo3DQsYfabH7BwK94aWQ9qKisRL1kke973MAxN94tyERtNxm6PnRSfc9S2xp5A5L6lkoLo9WM8boqdA1Pw0z+XFq8DpCKSLdUkCw74F2zoaqsDCPGNbqO+iDVn3xont9fxaRf5Pv9R/n9rZLqza2aRnFJGdw+D1p6RrGyIZRPalzBEpW3sqIcEhnpF399/FL0kG6qozYx0ix+rr+F6tON2qoyLLpXTw3/WyanBydVwl4388Okqw1yktUKfgybVxrQyI1nlRWQKdVoqq1EdVUFeqVBq/1+LvTThIv0N+dW6Bf4+KykB0uLS6ByrdH4oCXdrcPgIvdYgg5zMhP/zI5OJcfAjIbGOCO1bS2cZHB5qX+UFhXzE2inR4/KsgosLXkwWp8IDemGQJraWTm0Vr+OMJrpmMYcTsY7W1HfIobDqEVDDeW5shz9o0roF8gQ4VbwSf7be0eoHX2oLSuHjiZw3APdNeWlEGl8MDg8kLWUoW9GAVt/LvoVP2F80RkwSZMyo86COYcbZpLXBSO3OED9XDXBl9ntNqGMxt458xJcNiVKaFx1OD382KnlwvctYEzSdzzGcCtcM1RGis9j5G41Ud9XkmyTca2WySgMTWJtFpRQHRs8XpiU0ygl+8HgWoZ6rB/llVWoqqnD9FAu1Fqhbbg7TMpJshNogmpXUTpmDeQq4VzfvAEGKofDOoXS6nYan8lgouNRJY0h3Go9pWtRU3n8ZQ661SXMVnn6lQrnDpwPuLkZLj979fsfz2L9/qTAguMKvjbgPnl83NG5uLl4uTiPwwhxcYqWm4kLbuEaboYduDY4nuMwH+cj4P6YFDYQb0AZc/H4zwfKeZw3Lu7jcNwvp+C4c/w1QXnly+Wv00DYv5yXv8bjvB7F7U8vEGfAHcxAWf4aA21sM/WipmmCd/PngsrHlT1QFzy5fBzVt7/uKV+B83w90CwpM+wGLl/8Hr0zFCfnz6cprIwEh+Xj5+P8sM78cR+F9Yfxl19wC+eCr+HiOEqDqzsuPJcn/vxxWL6cHP3nA8eB6wPHJ8Ny+TgOe+LcKcefFgN17S9fUL0ct//JehL8uDL7rz2qG6GdOfdxGOGYv9bfbnwYvzs47oA72O9TYXDZ+HJz9XhUvg/r6RdkIF3qm1xbcX6B44/CfgI8kkWuD1JdCnXK1fOxW6v1l5HjKXXM+R8dB9z+ejqtXx+HpzDc+UDbBunhYDcfVnXytlNAb52Ih9xc+MA1ATd3jtef/vDCeSHu4LH6ZBx0XmWhCeXH5T2NQpzcrz8Of7wBGTlRH0fu4OvJ36g66cfnJ1A2rgyBsB/GGdQ/ODf9cm4N0ag8vjvzUZzEj+L0Xxuoq6P88+lz1wr+J57xYWQMJrfzKLfMetq5v4skeB7fKlbX1n7aEiwjIyPj74DBg+4/i//0NH+B9H6pMjDDh5GRkZGRkfGzITN8GBkZGRk/PxoMmJ2exMzcDCYnJ6HjnuHT+J/r02kwRX7Tc8K+S1rFAiZmFo+e1VMsHD//x/jpkRk+jIyMjIyfHbnbKL6VZRRcTIaHfuW9ubh1/xG/z5JiqAVi3w42Vp2wWMaQUTiMTc0opjVGmLVzeHLrFv8W8WnxMv72yQwfRkZGRsbPk2TkHL3ObjRhpDsL3B5kGlkfLl44izd5nZirz8T7qPf4w60wWO0uZCS0ozX8DTTM8PlkyQwfRkZGRsbPk8GGD7mFfXy43ZmN9GtHS28b5spfY9S0hW11MwriH6GoqgYRV66gb1onbOPA+MmRGT6MjIyMjJ8nycDJ+jIROodg+Ay3JpLBY8SMtBOZ2alIyq/GumMe95+9wtvnj+DaPeA3JWx7/pzf16xZuoCm4mr0NddgfKgRY8pfcANKxp+NzPBhZGRkZPxMqcPK9ga/wSb3OrbFt8H7G63C522WHCboNGrskL1zuLUMfr8anR7LW1swmdzY8LmwvbeB1e1dLLm34Lad3HeG8bdJZvgwMjIyMjIyfjb8l83NTTAyMjIyMjIyMjIyMjIyMjIy/r74L/y9TAYGBgYGBgYGBgYGBgYGBgaG3xXYog8DAwMDAwMDAwMDA8Pngv0dbG6sYXVtHRtbm9hYX8fa2ho2d/b9AQiHu9jZEzZzOQL5ba6t0nWb2N079HsCB7vb2Fjl/Nexc+D33ye/9TU+Xp7rm9je2kVQCkfY26S8rHLp7+I4VvLf2ST/Vaxt7iI4J/vbm1in8Gsb2yfCf4wDIQ5Kf31jA5ubG1jn8k/X7QZl5GB3D3uBfHM42MP2plAna1wd8S95H2B3K7g861jfpHg+rKN9imuX8ntKxg53Kd+UPlcXH9cDxU/1f+IySnNng/JLZd3eO63mGBh+GtiiDwMDAwMDAwMDAwMDw2cCbvFhxeeB2z2OnHNxqBuYh93jwfLmNlany3Ev5Bxu3L2P7wvm/IsQO9BL6pBwLx0Stwuu+XbEJ8Qhc2QFh3o1FmamoHW54bYPIe1uIqpFemzvrMPn5dLwwOOxQ9Uch3PpI1jaPl7W2LFNoSHhFtIGbHC5lOjMSEFs/BA29uxoj09DUvYwzC4XVI1vEZpdgTnfJqZzHiG9UgStww2nKA8hb+sw79vxx/gBDvexs7FCeXBjqiYH6VEZGHG64fKtYWtvGeO5Ubh98zLO/HsomqVm7AoXYWsyH6+qJ2FwcQsuK1Qve3xc26uB8njgnOlEfsJ75E1s8ldx2HFNoTHmGr4Nr4XU7vfksY/F0ocIK+mGxuaGbboWYddyML21gw2nBOkhF/HdpYd4e6MWRv8Va3NNyI1/gfJxqm/XBEpfxyGnegprpywmMTD8NbBFHwYGBgYGBgYGBgYGhs8OWlSGZKF32uZf8AhgE2ZRLi4W+xd9vHJ0l79HsnSdP8tB316G4vRyKPzHHPZ8U6h8koPOERO2/X7cgod3OAvXC8ewtBW8YrECpaga4TFirPl9YOpHTU0BUrJT0VCZDKnX7w8bmp8UoKOxEjHxRehf9Pn9vRhKOoMskQMnoj4Fhq5KlKSVQv7Bgzlc3E0PctA2qDvKs0uUjrvXz+G7b8/j0vkEdFlWsR8U/655Ak0ZsSie2fL7bME0XIvGXjG00w3IKKvCkMl/ioNvCFFvazFh8pd0bx2q5jd426LHDh/vIWzjPci+WQ09H8CK/ppSpBTMHT3htL9QhqTCMvQZ/B4MDH8D2KIPAwMDAwMDAwMDAwPDZ4cfWfTZX4VhKOd40WdZge7KaERLAsszB1C2daOleBjL2INLK0HW03Dkt8xjxR8igB1TI6IqprG0/uFqyxpUojpEvRvGqt/nQNuH/s5qNLVWoqo8BeIl/wmYUZ3VBsmEh9wrGIx9g9vnLiEkognVse/RZ+Ny8Zfx44s+ZjTcP7noE4y9FQt63uVjZldI4XBFj/GuHOQGFnx2zOjITUH4mzKMjo1CWhmJp+GRyBowwRtYiVoTI+5p9fGiz+4mdM3vUDa7jl0+yC7MY11Biz4ODFaVIz1r5ug1sJ3JUtS1t2E2UFkMDH8D2KIPAwMDAwMDAwMDAwPDZwcVis8koWPc8sGizwp0van4Kmfa/4TLIdwLvci78wLxTY1oLE5BYn4ZRtzAUmcGkqNeIr+zEx3tbWhtacbAnAVr/BqJCTXPYtC16DyK/2DbA/XYIKYtWzjw6dBfdAfPo+vR2FiGtOR8lPTZKJQPY3mZeP8qGdWNjShMfIribimc+4Brqg89rfVoa2lFWV4s8qUWbOwdYMdnxIJt49S9dDjoWouRG5eH+Y8WfYyoupaKxh4N+GWcw0MYempQ3dyIpqYG5MSHIrRH76+HDahEDYh90gUq+ulYKEZMYSVE3OtdXgXEowswrxzAJo7Aq3cpqKxtRlNpCt5ny+Dm9grisQujpBUp50uhDfhYhlGRch9hKVTfjfmIjq9A1xSluu2A2uKC5/itMgaGvwq26MPAwMDAwMDAwMDAwMDwSWJv3QVZRQWmVvaEJ5N+t9iFrqMJQ5NyBF5wY2D4KWCLPgwMDAwMDAwMDAwMDAwMDAy/Q7BFHwYGBgYGBgYGBgYGBgYGBobfIdiiDwMDAwMDAwMDAwMDAwMDA8PvED++6LMjR1X0S9y4eBk37sShz7Tu/2TcPlZmKnH35lVcvP4M0VUL2OH916EZLMazS+dx7txbFLaq/P6AabAI0fcu4nLIdVy7+gY1kzb/7uhrkOW/xr2rF3HzwXO0qD/Yd/3Ag5nGEkRlS4X3FnfMGCiPxsXL13Dz6iWcj67CmJW75gCqllS8vX0ZV65dx42bkehQLwv53XNgIPk+rl+6hsehxZj7cNOrXTMGiwuRXDmLDe54XYWG7FBK4ypuXLuMy8kdUFHiXlES3jy4hKshN3HzxnVcv/0QLzKG4QzK8qZVhvr0WDQphN3cdy1SqkOuPi7gUVoD5gKfHTzQozUtDLcuUHzXw9GqWDracd4tycajO1S3t58grMPo9+X27JpG1esruHDhPF6llENJFxwaelEQdg4Xr1Kebt7ErZtUv6/KIDUcffiQ4MNY0Xvk9Kqx/kH1no4lyKobUFU3L9SHH4bOLLy7dQGXroQgX2Q6OrevacWLhzdw4cZDvG3V+X2DsGrAQNFzXLx0EefvJ6Bm1OU/sYn5qgy8PH8eF6+8Ru2E7UheTuBwE5qhfMR0ak/ZmG0F861lyM7ugcXvw8PQjbTqNkjNp8ZI2IVJXIioNgW2A1vic9h2QlbxBufOnsXLpBLM+j8/sKPtQkHoOZw5ewEJDeNwB1/z92DPDflAOXLqxCAxPYZvAT3SeRi9JLneabSOqOAO+tLB7roVk20i6Kkdd5atmB3ohjK4qXfsmJkYwYj86PuWv2ns2cZRG0MydeEizoUXo09/8mOhHJyiVIQ+OI9LJONxJAMb/2jdf1ZYg3aoBC9Il10PuYzz9xJRJ3P6zwVAurMxES9vXsCVkFsolblP6Yf78NoW0FUxS1r+YxyYxRCPDGLxw8918LCir2IEOnuwNvFjfxWOuU5UTJ/2GYpDWMSjGO2f/egrIDwsg6gUq2E7JVpsL8EgKUPfsfpk+EWxC/tENV6TnF29fAH34sshGhtFXVMVGuQfDbhQ1JZhcHYO4qoEvLp9FdeuhZCN8QBpA1b/F0xOYt+ziNakS7h0kfTE22w0KwOfxyXpGipG1J3zuHDpMtK7lVgJuv7QM4GiiCbM+46/xbK3okbL+xu4fPECnkZnYfwvqMqVqTIkPj9HcV9BaO0k3EcdYxljOS9w5+oV3H2aBdmHmyocuDFRV4Lo/Ckq7TqNUZl4eOEyQmiMvnnzFq6TXZHUNAnXx+qO4WeBA4NFMbhz5gzOJ7dD/uGAfejDSNYz3L56Ffee52A8oGAOV6EbyMaVi+dx/lkCymeCB9dPHHqyiUJv4RzJYU6/7kQ/4XTt1kI92Z0huBjyCOFls2SdMfzS2HbPo550Ucj1EFy+cBsR2V0wHZt7QdCjJaUWPePW4y9TrU6h4M1jhFy8irtP0iENyPiGA+I8ivPKJVx4Eo388b+848uupgPJ726TfXUDd+7doTnEDZo/3UY82VqCDGxCPei3v/ljUm9eNTrTruHqtRu4eukc3mTUQP5BV1mW5SO6uA5zHgovr0XE85u4TGncpPivX7+Lpy/qoNw6Wdhtxwyq3lw9muMsBOLc1qI59x3OnT+HS8+LINYHrBA3BuPf4R7No67fjceAefPH9/HZ82C6JYmfO966fQd37lBZad557n0JBg3+8eFQg8bEWvTPOoK+ALZCuv4l7nJz1Ecv0ab11/OaBUPZITTe0Tz0WTyKp7naWsGMX9dfD9b1jeMf6PoNTBaF4kHIRVy/9xiN8sD4tA2ntIi/5sLNN0hp1hzVOTfmzLRk4MEPP+BMJI2vpl9o8FhZQHH8Y0TXjsPzoSwe6NAeEYbGCS+Na37QnERaF4GqmSAb7sCJ0bo4XKD2Ov8gBU2T/k+vLc+hJPmVMLcOuYqQzH6YVoNbbA/Lk40Ii2yD+jRDIAju8WpEv45H/dTRZ92OsDlfjaiMFsw4g8b9NTmaI4ow5gyqtxUdetOv0PzjAu5E5mHY6vd3yFCRcB/nz9HcNKEJs65ARTjQHx+K+yRvIbfvo3pm5eiLaqdjD3ZpNcKeJqFG/rGhujyWh0jqI7PO44r2TpQisnESS5uB8h9gVdeJqJtXKZ+PEJU+ghMmi2sCFXWVaFwQ+sSBoQ+Z7+/QnPo639dukAzeuZUPu/24g/7oos/mSmCRh7A7haTzeRg12aDuicKr4gV/o69hvisToekTWNvZwfZWoEK1qM7NQnq9gdyr6A0tQGNjYHHIj0M9qq5HoXnB32ibFrRHX0Hlgn+4WXZCM1aGnLwK5D5pBrcBOjeZLy7NQZ2KDxEEC5oe5KB71BzUSSiJ7TVM5r1EtVZIedc4gZKnhVDyR1RBdj0Wx8uRHleCkph+8DmRVyOttBIDJ1YRPoQBjY+yMWhd8yuZXXhcC2jKLEV1QTTSRrkG3sbW9tbxYk53PLKyc8H1jZ3V9SClIkfGlSz0zdtgGYpEYpdZ2DmeFIi8KR73WxRwTPci5042ZvwX+UbLkZ8cDcmJ1t+ALLkItS1z8AUk8dCA9up+9JLSetOkQJDtewpo4PdS+86PoSYyF8XJIv8GYR70hyWhuGbCP+Hbx3j6LeT1z8NhH0Fk3AA8fHoHsPbG4FWbNagN9rC9s4XNQLrLEqTnZiJvTouJ8go0UtmE+vOiLToSlcPKo082cthftUFO+RmqS8GFojn/rvl+rBmgmWpBWkoBSrJKsMglur8Gm16BxaEi3EmtQ7vy4452uOaAYmES0qYUnM2bwiZfp/twzQ0g514+RvyVd3iwjy06ua9tRml1Bfr8a1WGymRUtg7A+pd10l+Ed0GCwc4yVNS2orVjQpA7qitlOw3sMm7icoDFhnL0y63YOOr72/DONiKvx4DDvTVYZ9tQ0CQ/oXS8iyJ0tbRh8Rey2DbVHch++QW++OI2UlsWsHFgQFN5LyrTX+P14zP8olhmv/loQXDb1IPokEv4/spdvGrRU1svY6ExHy9i++A65PrH5vGnMRe5z1JmoINTGQHsrZBe8bvp6vGki8gVG7C0vIia58/RsECNt7uM2Zq3OPfDd7j8OAJ1CqqwAzN6crIQkT/Ox7+50IDkp1/jq2/PIrEwDwkZg5jULFP88ygmQ6su8wHu3TyLyyFR6LMfYH/Dhama12hV+2vXp4K4tRCNepKvoUJSqkVYpDZS1PWiKT4FMUn38O2XXyGqbuJ4EXh5HDnPbuP82Uu4VTYJj8cIcXY2RvwD0Z5rEeKaSAwvUb8Zk6LhXTpSU1/gXZ4YqxsmNGe8wJ//9GdEVIhh9dfB2kwF3ty/iO/PUj0M24W627GgO+Y6zl+8jqc5E9g+XMZicwFexImwvq9DS30hQjsDC60fYhNjyWloEMn97bCLkdTrKJZoYB9vxqvXDVhc8UHVFoVL53+g/HyBe+EZkMr16CxKRlrfInRj1Qj94kuq26/w59vp6NbqMFYYgbxyGXQzHYh7fhF/+PPXOE/GVvGIFer+PLzOGoDerUFHdAgunPkz/vTn2whPG4bKMICSpET0zBowVh2BL7/8Gt98+SfcSmmFVj2JItJLFTIN5jpT8eLiH/DF12dpcMuFzLEMiyQXrzN7oLZPoPR2CM5/9Wf84cJDvC+bYROYXwx7cCtEyL+Vi35jkOamvrG/uwZTfw5KqB9OBS1s29teIL5uALqtbUhjyzDpOm0ZMQiHO9jZXkfgi7fQNaMgMwltTi9mM2gsyR/2G0GHmMt/gOzWUTh2tuFSKzBN8pf6QzZkLkEjregkyL2WhFG/0tmUd6I07gV6eePiA9BYsrZ9rOQVuTeR0Ur9m/qiqvQVyue5TwYTluUoJ9tjdkfo+IfcGEp2S3ZWOfKet4H7/swJmDtRUFCLYfW2f+xj+Dnhm8hFQXoqhox+pUk22PbezvE4ub+H+aJXqFj0T4a9Cyh7XAj1gQ/K8SbEZMwL/pvz6KhJQ+a4X1g+WSxBHJeD3JIRuP1j0zYZZPt7fivtcBcrEwV4WRS4ybcNzVAO3iRIT9hiDD839mCb7EX+3VqY/T4fYw8rFj3ki8PIu5mOlh7Nkb20uXI8iTtcEiPmbD5m1zaxv7NK477/hGcCzVkvkTV5ZET9BVhRdyMfIsXxIhFvf8+NYpDs74vF80c3Xd0zfaiKS8VksPF5hC0siiSYqkrAtcxWDGo/HH1XMJoeQ/rTjb0jBbgHx1QPsm5lYtYvo77RChRmpEI6KSH7Ph210/4Ta/1IiilB38IU6hNLMDzvnwTtaFD2+j06tH/9k+2OgTpUZlX5P4nOgerZrMPi4hByQtLRPmwQ5qr7WlSFRKNV6a+TdSPNU0JQRRP43Z01sn8Fb7ikqMt6i7zABC0ASxfy82sxpArW9UbU3opGw7T/5tueE93xN1E5rsNEQxTeVQZunLsgbUxHbKkBPlMXatLeock/safEsUNj3F8r598Faz/KWjMRciYMVe3yoBtuBtTdjEV2yiPkTK9he/8AG04NFsZ60JAXhrghfzu4J9GYF42Mfr/22JtGSVoWyoY82NWUI76sBeOnmaMHu3CO1qC6tx7J54owf+Ju/Ic4gKa9HzUvQhCSW0jtc3wTaGu6ANFFiXh1vwFKM5eHXSzp5ZiW9KH4zTt0Wf0rF5oRlIe/R2vgHqi2G0VpSahT72Bzc/doDrs7kozIvDpMUJ4PVlaD1jAsqHvwGi0q719ohzXIx8RIu3Qf0Wmx6DwWOLjFSWTHPMG1RAnkRuoj3JfsFPOYa0/DmUwxhHukmzBJ8nE1UeS3YXeh7K1E/PNOOEgTLFnVmB+pRXhWEdJPLgYcQV6UhMIhpX+OLuCvvN61h42VBVQ/jkT1mBPrW9yq5xkUT636C7oLi6wHuTfreOPGMVaLt//9Xzj3LBqNc0tY5QMdYGfNC6fZBKNRhpKH15FUOQOXQ4qo9/WYsfkFeduLxaYwRPZZsGxaQHdWC7QkWJbBduQ/aQXfNgc7WPc6YDEbYRwoxPPnsagYdVKHOsDWsgd2SsNkGkL2zWvI6DCCW7ba5j8F+AJnvj2PG/eKMergfA/hnh9FW0EPbDS5V1bVoSRqQFjk2N/CiscOs8kITUca7j2niaji2Go92F5Eyc1MDFhWhY5ME1PzSA0yRSQV6zoMVUUifcwvhEtzpJiu4D//8x5iC6RwnFh12cfmuhqNL6NQ2qXGGpV1fSwXN8JrMUWTmBW3Fq1JV3ErohZicS0ikkaO77KbBlBRnEqKM9CSbvTH5KG8dgbLfu2yr25Hdss4zHTR0mAUQpuV/vb4ayClnF2O4oQhwZimTpudWIpGcWAZlOykoVi8qx6DZX0bHm0f0q9cxLlzl/G+TgZ3kKF8DGoHzyTKsjNpYryAnb1dLFSGITm9AlN2H3y+SeTc/xJvS2VwfdjXD9ZgHM7BxaJZ/yBxiE3TPAZqijBD1ekR16MirQQKPrAf1i48z65Fi/xHJhSHW3BK83A+f9KvuJcxV/MS/3PlKZrnjDCoRShKScDbmkUcHGzCpRtAStgdasdLiMwfgGnlHzDYt42Q9LagcdRL9pYSbfUN6Jwj5bQ+geqWIUxzT665hlHUPAb90vGq9N6GAX35NZihDG/5jBBVFUMavMi9bYK0rwUNEtvfn7cfxRpmqyqRHd0Ji18bHuztYX99HJmR2ag+WiKnOU0TTfgH1JjtSMCb3EEYfWR0bzox3Z+LV4Vyf6ggkLLfUnYgMTMZBVLbR3f6N2bK8OrOWXz9XTSaxq3Y3g2oYwGHpIm2SA63ybg3jTQj700CAt2Pg66lELkZlVgMyP66GAnhBeicIeneliL6ZR6GNIJK3fNJkR7RD4NFg+HcSyib81/knkVHaSQypMGLiF6IksiYTvH3E+qdA4nF6B43wDGbg6i87uOnuA63sexWopEbdCxC5natE+jIvEWT133oOmuR/qgORr7sG5DSpCU9uoUmxvvYI73APe02lUV6pXIA2pVNKivJa/FzZPepMVEfgZDC0f9/e+/hHceVpPm+v+2dPW/f2Z19OzM9062WN5RESfQWBB1oQIIkSIAESMJ7bwjvvffeF8r7KngP2t+Lm1UAIYrq6emWZrtbGed8h0RW5s1r4kZ8EXnzJsubz4WUvUGdvi9vXrG7sYTbKbZ3ppHY0HBu547sJ+WkxZiKw4hIKmDUscLq6iR5J77krMyLlf1ydvBausionsQ3N0ZDevOPAtn1qQ7aWusxG0epa2mn23FgALcnyC7txWQ305NWw4Q/uPpSidh7S2ca1WM+5scbyWg6mGXfFOLYQUvNPObRZtrbWn9EjLfH8yjrnMFu7ie9ZhTfylvD9npzlcnqVLpNTkw9JWQKQdHlV5INBz1Ft7jZ+tOnbQF5wWhuPClZNdjVn/Yqnua2MOhSWrBO+71jfPPxB3z86ad8dfgIOSMbou+7bKyuik9YZV2CmP3A4I3Mc7HDCYnRPG738vK1kPz4LPIa3maJN3pjuZXbylyQ/7zYGiftyyT6fWp+v8A1WsK1Oy0E0zXgG6Yq9z5JA0LidzbknsoXrbO9G/jyyytjtRCsL/jdv10nu9ko/CfgnF6uu+gtDOfbL7/km+8TaLWtafVct4xRk1CNRSahvbGKtEs1Qt3fyquZMuKTsmky/FmOWJf/tGwyFH+dLyRgyR1yYrUOkx1yk7SyCZYPmKUXaw66C27w9edf8u0PibRLcKA08uXWKtN1GYT9++/4/PRVsvucrP29D9VSD3fOf8aR6GdMOqxYezI4eT2bVvNakCe8YnW2jPAjYjM9q+IDbLTGXeTwd3n7n4zW5deR1y+3WfG6cNhMwuciCT8TRde+cTooLipCkqioNwQfCO/JC7l+gOwzEm9NSvC5r+NveO4ZozQzkhvl0+we5AQ/Kybyf0igaVQ4WPCIJq/WsbYL/858+9D1zUuJkfxuqbeNgfIYrl+7S7Uyw6+MlFXU0DwpDGOphQvJlbRb34bJb175aIq8Td7Ywo/vIfx7tqOA8KhuYZpBkRinuDiT2IRYyvIeIXQ5KB6qLqRR29xPXepF4gt7sC2L3lrquXP4A2Jb37dS+cdirc8n60k2Mz/pFwelZ5KobrME6udrJPxmKZO+IGPaWWKi7Ca36txBHiOxrXOQwvRIblcZftTPytYnJGX91NYvtxIhMd6QPdjSFxvM10YSltNO/dOvKdiv1C7GxlpywotobUniyO/P87hD5q9litKIuzxNakNzo7+0OOtJLO9kwNBHWsgjCrsdMu6bdERFUDBkZr7hPlkDS28TXus2esSW3m8LsuDZap4lXKBhnyQu0xGdSX7KIGuvd4QHi95IbD1T/oBjV9LodopvfuOn40kB/UsbbK+OkP5NFjNvlfk98orZkkoaakeZ7U3gwcN4un1SjLuK0CeVDDgnKHtYw7jpbdz+fMVA+fWbwr/VyL7CNVhPwg/F7C8GX58gKy+NiDb1MNhAYex5ife+5V5GGw7hIW+7WmJZaXNTzCmSqkys/WglwruyzlhLk+jvKDOdCcREPmVIqdJMHjHpFQzNDpBS2MLw/F6c+obdsUwOJXYGkj4vlxl/Fsadxj19UwnXJvLuxTKwZwiWB3iamUFs57scbFNLrqY3TaJeHDkoP5P0EaMxXcmNh8W0mQ6QZgnA5yquSzBsDCZ91pjpyeNhiZnnL56zv9BHpsxQTi45ed2siPI+P9AxL0fzuF86hGFpnmfHHtFgCM7mnQW60u5QNdLC488+5pMvD/HVV1/yyQf/xj/933/kUmw1pucSaO6XtUl3Ui7VzZOsSxB/MDG43ZvOveopLIZ6bp1PYXQveb1joyPzApeTi4j6SMjmV19z6Ksv+Ojffsc//bdPuJ3ZgXP3xYHXiJZpjM6gedgczLC/YDwxgoq54FP211sYym/w2cefSV2/4qvPP+GDf/7v/D/f3iC+XQLU5wdMm1mMQGYxDRLbvHQ0ce9RLpXj+5YsIDIpnj+XQG1nh60VKxOVGTwd8uAZbiDhVOb+CqWV4XrKc7OY1qzbG1w1WZRW12MN1ntnMo/LRz6XQPkLbankZ7//X/yPP3zB0axRgrz1T8g7SR981N94Sl7peDDb+JrxrCgJ1oz0ZR3hXsn0/hOhDWMtEYeymN/vv1dyrJXcxHCKpw4mvOSXFy95KYH68+1tra21Yhg6ZhzBfj4g+0mfSY2k7HoGSD/zAX/47Gu+lj7/9IN/53//v/+d07EHlpj+Z5I+Wn9sYOgSp3OvQdxPQCyNDZTnF1OVl038narASjMlpnzOxubRYPyx+/1zZWm6m/qyKuaCDd0yNFLXVkdxdhWdQzNaX7oa48hvm2Zpb7I+X2WuJZuCwWVev9jGN15JWsOBtLHI4kwvjRW1mN+Z4L+MbDCWl0PCner9FU4q6fNSJX0iEint8QYOyngPJR4lqXmKiZr7Ms+6cK5us7OzxebaAotrB5Tv9QucPTmkxj6hd2FfYX4kb7Y3fqQPa81RXC+dYWnv4I6PzpzLnMifZmd7HVNLPjHXH3Pw4ay5Ip2UpKK3q/vMJZy+8JjicTEKKulzo4iB4OuQO+ujZASTPm1JX5M8GuzMxWFK424S1xeYAQFZouNhJjkJvUGd2aLvcQ6twxY8Y/HcUkmf/dcGVNLHQGnYRSqdgT547eymODqQ9DHVlmurAgI69gqV13r14g0v1sdIfVRA/aCZ4fS7xBW1Y13fkf7cYWNhgZXtFzKHVHmv2PIZaE05Rt70gb5Uc0ywJ67WAopLSzEd0JE3Yu9evFRJMxmn5QXahMDUzft+Og910eUnsoVVyPrVY+mMbBxQqteveL4VXM36ao68uDzKSgt4GldATd+eJV2m9U72T1b6vHm1y/rKCsvLK6ytb8lceIlvrJT0hw9ocx80bsu0RyWSkdkX9D9vhEs9orxPSI72t6j/ftInQNpXTB0kfJ/AWNAMbQmxrUqLZ3RbyLvYj+XlZcE6W7svxRVv/YjEP++L43bRAAZzJ/cvxNNl3wstlhnJPs+ljFJiPvmYT4VTaLzlD//G/xTeciWuNkAsX0ySW1RBZe87Pl+XX1BeYyhKIDmtnL3n5Wst0aRU9WEJuus3iy2En42nx7XnixboywjjVn4btbGHie/f42zb9OWkk3OzKfj336m8nCY9KpnCVi3tKrJE7e0kmqedQQ6v5CXPRec13rnpYqSjiEfP9JTPryuveCV+dz9CWJ6g/lkWGePv87zvJn3esD1cxKVHlYx4D57/mg17F3n3r1FjfCfZ8B/Kn5v0ec3LV8IZ9qbPyznKK8Wu1XZSExfK737/MYe+ltjt0z/wT//8L/zuZDr92oOuN3hqb5Pc5WR979p9eYl7qJ74Exk/inEqi0qYmm0lIzmesj1es97B0+xaBoxbvJb4SsUQu9s7rHomKbmbJbHelhYn/Cn5c5I+mnWXtuV8/4gmc5DIbXppS7hH5/IrVi3t5D64Qb35Pf28O6XZ+oqe9z0MMZN/7CG1UwuBP18s05X8gFajlaFnt7hdvvcA1cdAaz7JLU4We0tIe5TGaLDfdgczyCqWsX+7KOuXE5X0KW2kQz2De9FPbEQGD899xNP2OZZF1bwNt0nr//mkzxvvAKVp90jqCRrc52PkF5dQJbHLq93nB8bGS01kJt3zPRRcOcFXEkN/cegQX372R/73f/sd3557ysDbZUbvSCDpU13Uoa1E8jdEkvL0LIdDi2mfWJB72Mi/W/EzSZ+A314zdJEbfo/mYB++MbVQlZ8hHEP4dXDVriZLDUQmldFjfM7r9W4SL6fTNK0Wmvw5opI+DRQkjcr/32CsyiPv2g98FfuMskmV7BomJqv5vUmfwFoYxa+S+C5+IDgnn2MaqCXtycDbB7c/k/RZ7YwlrX4I68GQJSg/k/Tx0SKG48Snn3Po22+0xME336kncZu8efMSc1UEhw99xkc/hHC7LvCk7c26iYaEs3zy2ad8/McLPCmaINCUN5jr4gk7/BEfffIJD8rGkTkTkDdGSkJP8Y0M+HcnRPHd706gVzj7OiiJbg88nduxUJtyjQ8//JCPjkVROuIPdv4uUwX3OP/1R3z25VfENe/tOfOGHXsDd498x1dSr69PXhSFfXem7GKobaQidSCwlG1NyNmjUP740Ud8eiaBFuNbzXu90k9iyRj+1Z8xqBtW+mtTyNdWCLyUAcvl+oef8OlnH3E0Mochn6qtSqrc46xKFEnffi0G8pAoe3KXV0jma2YKz/L9V5/xw+lYuiQgDMhrFmdruP/Jp3z00bdce1y9n+BR2fXKhk46J392hojRSCa+1fJn7umzwURxDRVZQ4H+0GSJnvg7nPyj9MkXoeQNeYLZ9FdMF57n+OHP+PTTwxJMl6C9xGOqlyA2kh7rKhMVD/j480MclrZ+880XohuXSamRs974aIy/weE/fMBH90qZWAhYkeW+VC5FlTK5GCTVr7dwDxcTVm748etdQfENNlGTX3lgqaaIv5uY4gbazEGNFx24eSGVRvPeDN9labyEq6Uz7Oz3yQ7O/mxCPv+Ejz48zb2kvmDwsM10eQIXP/iYz7+Q327lMRBcIvifludeJgdaaRC9fSsvsfWWkZpdz+zeMqctK12lGTx59JBHTxLIqxrAFbSyr7f99BU+JjYmhlj5/X5CHo0DM1L3ZzyKekTs41ge3o8RkjfBz+RS/mLxDhRy78gH/OGD48RWTLL1clacUTFJ90O5eu5TPvvsCsXji0EDJQRkOJdj33/Fx18e5VLyILtvVpgsTeFKdA9Lu1aaEs7w8Rff8O03ohvKnhyLodZgYiDzDokZXXjfrNMZHcbxjz7h80Nfc/PZNBvSptdbo+SHXqFyal3mRSU3ZL58cvoGN9ObGGkowbrmoSUpnoiUIU1PvZ3Z3P7+Az746Lw4y3SuZnUwpFb37I6SGt/ApCtgLXY3ZylP6GLh5Rterht4FvaltOkMVy/GkV+fTaVVvd6VRtytdO31rqn8CnE848GnUztM5FbTP2ELzA1zDVfPfsdHn3/NsYwhNqXer9aGSD18iM+/DSHkbgYVxZF0Lb/G0dVKSUyHhB9K3rA5U8nTi3+Ufv5Ie73LHZwKzub7XDz6IZ9++Q3hZTOo7Z5euZuJPPKt2L2jXExWr3etiL7KHIpsZ/3NFoaGRE59/BEfik1+WhRcwr86RMKNONJVIPBmlY6oaxz98CO+uFrIxFJABzeEVIaGyt9b7zEaK7NUpESJLZ+XUX5XVul+cp2ETHFc71765gX25qeExjRif+d9fiVrcw2k34+gVG1Y9q6sDBB/I57MDptYnXdEfJKzRZXbgF0CeF3+i2XLSWf6BT77QnT7kw85fz+NEdHrffOzOkjC9cektlgOBJobDKWGcerrz/jyq0N88e0RTudN8BO12LTTnhYifueAnThyh9weZUN3GM2K5qz4pY8+PUt6h+UtGRJ5uWOg7Eqx6PTbvR42XR08UUmZj74m9G4B+9spvCsyjwZS73NG/PdnX3xGqNgjd9CdvF7oIvbMMQlsxIcfOcXjNs/btmryEnt3G6Uyp/eo2PJQA+2tDdh09fzVxd6Syo3DwhE//ph7xcPa3hTPhUxffVDMqNqYaaWbR6ePCCeU8Tt6mriO4Br/VTO10Z/zxVef84lwgMiU/uAr7n/n8tpMRUwY3wqn/ezzKOqNq8rLCA+9zMOqGTZ2xX42PuC7Q5/y7alQquZ1Jf2vkG3PMDkXlS36kNO3ntDnV1bkOTNlj3l6P4+pfWPmpzW6mNbuILfATlVYCEc//4JDYhPVg+vvZdwqxv1Ml93i62++Fa4dtJWHL5NcZdSu+tPioDa8iL5Z/wEbLfJ6E9eQ8O8K8fVBI/dqYZrySInzRJ++u/ZEePV79MXfSVRxG4N776a/sVCZ2IZ5b9WMyAvhEZXRl0juCTDtlbla7n/6Nsax7BXr7CH99g8S94mdv5W/z7/fbI6Rce00hz79gsNJ3YE9197s4O9N50GbT3t49j5xdddSmV/1ngekXprvF9Mx6Az2s8grA0XnT0qM+rn0cTQdiqS9WmWsKIwvDx3wSYfDiKsNpJpXhxs1W289UP7uZAE37+fQaVfJEDsVV85yWGLAb4/eo9ERTJC8WGG86Jq2eODDY1d52PZ2TbV/pIyoY8LjPvwjYcm1WFQF7ZUkVnUyrOnNLyS+boqbexnyBMu01pHSNE1gYdJLvF1JlE2svvXTm27GJL5P398YTWRZxjX2pMRRH/LHS3FUBbfZeLMkvDPiDB9+JLFUSCZ9apXPO7K7PEVpWCVWsVArtknKH5QEVgn/SF5jaWqjo2E4aJ+fM1FQTc/I3j5UNmpSWzE43i5YebGuVjAm0O17m3jacvSRfv5z0eMPOXsnmcDWQ29wdeVw5wexlZ9JvBcu8Z5bMc4XjOeEc05i3S+/lrj90FccOnyURw1zeOareVBoeJsI3ZdN5vp7qCueCerTMn1VrXS02QJ12Jkgp7Iv8HqXJm94PlfBVfFZ/v29XHfwqEUPEuN8/PVZbueOBRO/QVmbJL+inNzhtwkutRquKaeVsb3E4jvyH7zepYsuuujyM/J8gIc306ns21vp8zco236M4920tnfS2d5M1r0QUiv68L4nr6CLLrrooosuuuiiy9+fPN/2MVA/zMqrn0Tg/2Cyw3TXCEbLn7vq5O9Mni+zMN1I889vePU3Ia93tpmva8D28sXfzTjoSR9ddNFFF1100UUXXXTRRRdddNFFl39A0ZM+uuiiiy666KKLLrrooosuuuiiiy7/gKInfXTRRRdddNFFF1100UUXXX4j8tLZS3HaQ+5GPuRpUhyPY6KJin5IQb9rf1+b5blmSke8+6+vvNl0M1QZS9SDKCLv3ialtJX9bUlEXF2VJIeHczu1GYO20c4B2TbTXNDIlP+v+AKuLrro8heLnvTRRRdddNFFF1100UUXXXT5zYmfsmPp9Bjfbn6rPkf+LC+V9Lh7HMqc3N/IeWmik8qkdAKf8Dkg3k5SHzyiqHfva0SbLG5ssP9hx6U+nhUV8Cj0ElWWtZ9+kEEXXXT51UVP+uiiiy666KKLLrrooosuuvzm5M/9ZLsc2vIz19NAbWU5KQ/DuByRxOAK+BufcvXEGaKyG6gvLSXy0knS6ya1r+AudaaQXzvJwrqbhts3qDau6kkfXXT5PyB60kcXXXTRRRdddNFFF1100eU3J39+0ufH4qSusZaCrg3Wu6JIzUpncu+r7K4a7pQ0knHzOIc+/5yvvjvG0R++4aP/75/49MhZSqZ3gyfqoosu/1WiJ3100UUXXXTRRRdddNFFF11+c2Km4GgSzWM/TfrYOlI4nD0ZTPq8Ysc9RE7Yh3z04Yd8eeYGhf0+drSTdzE3xXHp+3/ljx9+zJE72Yw4tt7Zu2eR5ogImj0veLk5T2X0ZdKG/SzO1ZByJZqOaTN16Q+JbZxktiWFuIhMxt++caaLLrr8laInfXTRRRdddNFFF1100UUXXXTRRRdd/gFFT/rooosuuuiiiy666KKLLrrooosuuvwDyv/1/PlzdOjQoUOHDh06dOjQoUOHDh06dPzjYHd3l//LYrGgQ4cOHTp06NChQ4cOHTp06NCh4x8HZrNZT/ro0KFDhw4dOnTo0KFDx28DZix2F17/AouLCywsvIXXZccqv5stVuwuDz75e+867ZjTg39xUa7z43U7sEowaTZbcbi9weOLUoYDm7qHw43vwD20f/1u7NYDdTFbsNocuP2Ba/1eDw6rKlNgteP2+LXji34PTrtVzpdyLTZcPj8LcnxhwYdLHd8r7x2Y5VyHy6uVsd9OVZ4vUJ52H4vcx+fG5bAFy5drpX/8Wt3lXLnGr/rBasPpOdBn2m8+POo3aYd2nfxrl/t5PW4cNnX/t3WxSP85pD2Bei/gdrytd6BvXXi8Tum74PlSls0h47QQ6BufxyV9p+q7V54OHX8e9KSPDh06dOjQoUOHDh06dPxGYLU5sY7Wk5MUzZ27l/nmf3zGsZDr3HsQTXbTCJNdFTyJvMHls4f5t+imQOLEY8cwUEtW2CUuR9zm1vkLnLn+iKJpJ96JbipSHhN1O4KIW8c4fT6esm4TlvEqUuOiuHvvPlFR97kT8jX/7ct4eqZN2B1WrR62+RHqcq9x6eJtIm5f5MLZKzzMmsC5YmIgO4Xwi2Fcu32byyeOcTejlHG7k7G6KO6E3iQi/A6R509yKrGBYaMVu+2d5I/VjssyTVd9LhF37hF27Bu++uRrLt6N4HZqOW0z0/Q/y+Txg1AO/VMoKcW9mPxuHFYLxqZYPj8dxvXb97gbHUtC/QQWwwRdz6K4f/++IIqH4ac59N03hKQO4ZX+sdjcLNoGKIo4xAdnH1E65MDrDNTJJm2d7Ign4toV7kj/3Q07wrnrNYxInecn2yh4eIsLp89y6vNE+t0OHA4P1tlWChKkvy9Lf986xenT98msmcXuVYm5A+3UoeM/gJ700aFDhw4dOnTo0KFDh47fEMxmEyaT/N82RNpX8dRU92N0WuWYGdvKDrxcw9SdzOdJPZhsbtyT7eRmRhNWZ2fdZca16mIgu5C066kMrK6z6vPgMJhwrDupvvyQwsIGptxOLCaTtnrG0FvE6bAULWljc6rVQzaczmk6SnKJCqnBvurE7FzGNVxMSXYEccmPScuPo3pqgwWLmcXNcTKvZ1GUncW9yCYGh2Zw++yY3H4GHh8jrWmIOYsD28FVRBrMmKUONred3txMsmKe0ml3YzPNYzS6WVx/CbgpO5NMaUE3Jp9LS/oM5Z/hw++Pcfz0ZW5FljJis2lJJbPJiNHswD7fSVFSNI/ixlhZd2Nx+jH1PiO7uJaOqixS8jMpHnTi0ZJbNqyztUQezaFvZB6b14XFamUs/wgRxYOYHJu84gWO3mYSv85gxO3G6x6h7GkGSQ/acW+4MbvXcXfGkpD6iLJBl1buj9upQ8fPQ0/66NChQ4cOHTp06NChQ8dvDVYbNscw6YfiqakdxOxxBFaQyHGXeYqu+vi3SZ+JZioyb3K/0YLLbsPhddKXXUhJSg4jy0ssuUcojYsm8l48HXK91+vDIYGm1WbFNNXE3Tt5TMtxu9MefD1J7uGcoqU+l+sR9ZgdUhenF8dAESVl2aRkPKUw8zo1s0u4beq1qgnywvJoqJ7DM/+Mp6dPcezwSU5ejeFeyBFyBsYx2oL1/wmsWn3781TSJ44udZ/95JCU7R0n+0giZUXSVp9TK8O1uM7u7gtev95mYbqK++cS6DSYsNqdeC1D1Bdm8DBpgtUVN3avgd6KZxQU9WN5AbuDicTkFVI14WfBZQ3083wV128W0No7i8PlxG6cZKj0Gg8bTcybHbi8Jvorqoj/JpD08bmHKMrLIvppu9RP2uXwYm+PI6W4mKrxBdz2g+3ToeNPQ0/66NChQ4cOHTp06NChQ8dvDcGkT9pXcT+T9Injs8QeTGY7/oV5OmozuXIqiT7POv7JGlKTE8hq8uJszSQlNZdB+y4vNxfxOB3YbVK2lGMxT1Bz7wK5faPMqBU2aq8fqxW7w4HT68fQ20b2paMkdNlZX5ihLjuduKQ6Vje7yLzzkPuJHdi3tpitvElUbgkdM0sM17Yw513kBa/x9yUTmdTO/LwNp5TpePcVLw17SZ8MMh89fW/SJ+uHhGDSx6XtU9RVU8e4ySxtkf8XRnHqQR02o9pLyMxAdTGpIfEMr3q06x2WOWbGemhubaG5qYmGtBucuXKd2JoJjNJmt0vq5fHTduc4dzLrmFGvbo1W8uB6GsM2Aza7XX4PJH3ivk5nxCV/+5eZrs4l7tol8kcX2PIPkxuTRG5pC7YVD06tfw+2UYeOn4ee9NGhQ4cOHTp06NChQ4eO3yQ82Gdd+ExWbQNhbRWO2pTYasHkdTHr8AbOk9+dLi9On4WhgT76Rw1YHWolixO72cT8+BCDg0MMDQ8zNDjIxLwZk1W9xuXGbllk0a6SFIFNmC1mwcw4Mxa7lOHC617AMjxIX/8oBrOdhSWXBKkO/Asu7KZx+vv6GDR6cHjk/lYjrgUPxukJqccgI1K23+fFZpiiu/gJmcNSb6vtnRU/avNjh9RT2ukw43CpIPjt72bVB3MevKoPpN1mgctnZ3xshP7BESaNftZ8bq0clbAyu31YpM5OCaS1MuRf9QqZSYMZp92EQ/rOaHXgtMwwOWvCbLTg8a3inplmVNV7bB7fskfao5JUwX4x+XDNOfCoOkmfahtC2zzMD/ZL34xjcbqkb/zM1aSR3dhCt0n1R7AOOnT8CehJHx06dOjQoUOHDh06dOj4TcKsBYTv/SKUOr6X2DhwbC+5sf+bOm8/6RHE/nXvKz947OA5wet+dK52ztvy3pbx9nigHAtWqwefZ4GFP/Xak3buwXL2EDx+IBF08N4/uSZYzv7f7yL4u3bNwf8H77PfnoP3O/D7wXtpf6vz99vqxO1eYsnlxGGRYwfO1aHj56B0R0/66NChQ4cOHTp06NChQ4eOv1uowPZ9x//R8G5iSIeO/wh60keHDh06dOjQoUOHDh06dOjQoeMfEH8i6WPFbpmiu6GGsmcllFW1Mj5vCXxyzmrH7XNjN4zT0zHMzN41VrWz+gJu8yTD/Z2MzFi09yKtdhem8S6aa57x7FkZjQOTGKUMu/rN4cbrcWMYaaN3dBqTWX3Wzo7VZGCkvYySkmdUNLQxPG/HqZ3vwDQ1SHtVMcXF1XSOzGB1ezAMt1Jf9YyS0jLKysoor6qlvmWAaZPUwW5mrLWK0pJSqhu6mXE4tXdWVb18PgeGsSF6esaZt//4/U+rw8bccBc9fUPMGK3YbEYm+pqprSilVO5TXtnIwLRJa7fDYcdiGKBe6vusqp620XkcNgduu5Hx/mZKnkndajoYmrbJsWn6musoV/0qdS0rq6C6vpaukVlGu+uoqiihVDsu96hupKVrDJPTIeWP015WIn1YSXPXKCbpC5vNhXmqn/Y61bel1PWMMmcNbGJmnR2lvVHGr1SVV05lxwjz0h9W6ce34/w+yDiaZxnq6aVzSPrXNkN/a6C+gXpJfetU389iNCt9OHCteofWNM/YQEtgbJROOK3MjfdQK33wrKSBnqE57G71ju/b6+xOD16/lYnOXobGZgPv4kq55rlROuurpQ2llJRVUtsmbZB+tZvmpK9qAv1a30H/jOrXA/XYh+ixdYaB9m4GguXa5Pr5wToqy56JntQzZHRqn2D86bW/FtQ70/NMjw7QNzTOrHFvIzY5bpxhZGySWYMZu3Fa+mIKg9EsfaF2/pf+kHZPDo8ybZb/G+eYGhtmal7Geq9cs4GpiXHGpuaknf+VbfrPw2pzYpkTG9IoYyjjWNrUw4jBjuvAOKpzDMMt1FWquV1B66hB0zF947o/B+q9dCMzYsMaKsrEZontqGjU7IzlgK2zu5zMDbRSWy59XFZFr9g0ZePf2kJlk80YZscZ6BY7qb17vvebsid2TDPDDA8PMSnj9+OxkWtl/g11i57OGrEc1Ekpx2aeZ3Z8gO4xgzbff3Sd2O2Z4RFGZI4Y3rHN6lrr9DDdw5NimwN+5uBvFjU3pN1DUweO6/hVYFb+wmXHPN1LrfjYUuWzmzoZGh2jb6BXbLNZ893719jFH/R3MzQ+LjyhlTpNN0spKxe/NjAt5e3ZswCsYq8thin6m0sC9r6hk8FZm2YnbC4XxtEemsQ+PCspp3N0FrOcb1N18njwWMXXtqt9JZSflrLsop9iewcby6WsEmqaO5myuoTrHKjf3n013tJJk+ItJcJbBqe0vSnsSvfk3pMdtVRIvSvEr08qn7Q3L8Q+OeQek0N9tPZMYLaLP+xppuKA/6ysqaRtYJw547vzRcdfC7Pip24jo11NVBQXU9LaL3bJ8nZj1+D4TXTUUC7jV1krOqB0Ro2b2Lm58Q7hvDLmNS30Ttm0TyL/fT9NF/4gPNtlGKatvlx4YgntwuuMah8V7Xexw8K57XP9VAu3fVZWTWPvLDbhv+8vT8dfC8WLLfPCS1uV7Qtw/bLyCipqW4UfT4nNCNhAzQZNdNOi2aBSyjvGmBPO7ZTfbaYJ2mslrhHeX1HbwZQct9kdGv9WsVNpidjLmma6pqw/+4UnFWuZJnvFxok9LFFxSA1VleVSn3Iaeie1r3X5PU7mJ3roGFK2WV1jwzw/zWB7FeVSbxWj1TR3SXx44DPpwttM6prePpl7Vi3+q6uSc/faWlFDU0MvEyZzwF+rcrW6z9BXLzooOlrf3suM3N8m8YzHPsdgV4McF55Y18v4nFViLpmvbgujLfVUyvlajKq4wPt4r/S33SwxQ0+j1o8VVdXU1NZQWSr9WtfGwKQJt9eLX+zGSPcAwxNz4kdkDKRudrnPZGed2HqJF6rrtVjULvbCKhxjuE35O+lnNW7TdnwOg9yjWavPQVvf2i/jdsDWqy+XTXc3UCVlllXWMih9ZBO75ZBxNU11y72kzAqJIwfn5VzVHuHF0tbpwTYqi4oobuxieNaC85fm+Kqf5ifpaWukc2BCbERwQ2/tN+kPm4Hh1laJpQyYxMeqvYY8TgtTg630T8wHOJy0w2U3MSExoOavq9sZnDLjkDZrZbfWa/GcQmlLP9Pzir8F2qHtJTU1REv7kOhzMO7Zu/8+VD2sGMZ7aW3plLEzit4fOE/ub5keoE3GcXxOuKz2xTcPbqeqey9jc4FVYIpX2C0GxlSeQepZJTo8ZnLI3BI9NozS1Vyh6VtZ2xDTJntgzsn4DjWKLih9Ex3ulzFQc/lH3HQfcr5w2LnRXlqEZ/yEB8kcMcscaZc5MiF1sjmceEQHbdMSzws3MGixuipD2YphmsolBi6pprljAqvwLVW+w+3DZ5tlcLBX6weH1F3lA1rqxM6LngfmWhX1NZ0Y5qSfpN9+NumjbjbU2Y9jaQXevOa5pYJTR55QIwGDaa6TzLBLnL50nfAvUhlSu4c7XDhm+6lIvsrFU98Tcj+BtG4HXqfqwE76Js241l7x+s0GbTfO8CC1kmGbF0NzCuGXz3Dt0lkuFo4ya3YIYZpmZrJTfn/Na8DT/YzHJ0J4ZljH0pxBcloyjW75ARflN2N4EleF9YX6pN4b3rwRsIshPZLHjaK0cwY6ki7yuHdBjr/CO1LF3W8e0+WxMtleysPQ8xz7IZzHF0uZWXBpSqc2L3N4bYzJoKfeOMWxuEpaplzi/Kd4diGLMe+murnISzYWnTjMYzRmX+dqeCcb6vDuFr5RCXLMHWTciyQyfljOlLMnM4mKvElyu4cd6dM3Wn3h9UY3CRfy6B6ZZv3lS16p49Lyl2sOup/cIXXMxWxzAU8u3aR9WS7ASUN2LBciy5izDzE8OYt1SfqW5/RFXebBoxx6rYtYu+K4VTONV91cyc6almj7k0sfbS5cxkk62hK5cugGKQ/qmFtbY23npfSv1Fmrby9JoXl0CAl2+ET5gu+jaglBixjnokdE3LzFofQxFr1TVKfFEnatWEZLZLWHhKi7RKT14fIrgyJKLUajJz+Gm+fCCPnhNJkd3cw53TJB5hkfKCI0Z076IyBvpA0+CSLHJ0YZndgUfZIiB7J5Gn6elC43XiFo+21RzsI8Qk1BIjdPHie9tYd5h53x8ghOFcyw+kqGyjdO1vFz5A4ag/UPXvsrQm1YZxhsoLY0hrvxhRRU9GFxiQFyOBipTae0vZ8xu5/hygRKe6eZtirHpwyikamBBlLz+vC5xLl0N5Kb3oJ9IUgQxGjM99dIEFJKk/q85S+6sZsYYPWlg9kBWspSSE7OpU4lI2UserpH6WupoKQgjbT0bJrHpC/tMi/EWNnNw9TkZpKWlU95nxm/GM3h1lqKynuZtYwwNjnEjFfZBfA1PSbqTgRFQxKsaeMopHSuld5pLys7Midee6g48wOxZT1Mzo/SUlRIy5AYS7OR8Y4S0tNSyX5WTY/Bhd8yQWdNtRCEfuZ9Czhn+2gqTSMlNZ2qlnZa2kbl3gYhGWN0dIzS01RIXk462QUNjBrVRnpzjHTV0TuhPjWqErqTDPW2S10MTPbUUV0izl8Iy0TPMAPNTVRX5ZGamilEaRyjBJHKgbsck7SU5pORlklOyyhGwzRDba0MzShHJEHy7IQQmUaGxDHNjIzSX99KQ6049No+IVsGqVMpyUnJlCvHaHaKjZU5Md1JRaH0p/Rzy3jAUdhtEsRW55KRkU1h/ZDovdS9tY7CctErez+5laXEt64FZxBsL3qwq/fCZe7ZRe86np4jsqAR667Mr+0pEo6HktU4wPRIB8XFLQzPzTLWWU5Kei7RkYnUlFfTOzxOR30lVV1DjPa30RAfS1LmY6KL6ukZFX0Q4lYrZYwNtguBKeDu/VSKpB9a+qekX2sprhYHOzNOZ0UaGblR3I+vpryqmxEhuPWVFXQOSn+0NZAQm0pm7ANpVyejowM0lNbSODAmhLOG0sK7RKUUSF80MzA9y2SvKreDkelBWrKzKE66z72CYkobhphXBO69eq3jr4FViJx1vJ0C8U1XE7pZEh+h/MQL9UUW6zC16Zmk38lgwCNzUOyR1e7F0hTJieQauuZsdNxJo9fsFc+l5vcrdjcWNOL4do8DIcrGUcYnJXB3SdliJxa704i9FUb+1AIjydeIiMlmeF1ptp3ci1eIL2hmxjVF+b2bXLh5lQu/j6V9eA67141B2c+QYyRPbMsdn2NoyCHi1D1arZ4DX3ERyPy1zXUIb7HgWVf3Xacl7BRRGbWMWpz0pV3iUYsFxQQ2zM1EfhVFg5AqZdtd5nlGe7O4FXKDh6cKmVxaYGnjuZQR8J/IHCuKzKa8fBDnimPff+r466H0yz6eR9Sl+xS2LSmlAJPYhqlx8aMqsBIfbzLSmXKJh212tuXnNWMTkV/H0G6boqMqnwdhTWjqZGsl78kF7lUb8Tn/XhMgYuOFyw6l3CUkppyxIHU1jE8wM6Ue6ImPtgmvaE3l/Jli5rfkx20HnWknuJjSI4Hvfw0n+q1B7RGjYqaNXWUvlVF4zdZMB8+ePqFoeoklm1lLXqrYqX/ShGtV2aA3zGWe52ZcPh3TLsa7+/FuqAF7xdJEAUePJNE+NcncTBfD1oCt3JytI+PmCZ6KrrsPcuO9eggPcC2u8VxOfoOFgu+TaR1280L+erW1wFxXvhabXQ27yqdJfVqC3+F2MtNSTnV6IlNKmZS8XtMSJib1kN0t8cpALTWPQvlDeAFFvSbWpJ4vXin7J5HN621ctbGcfzaK3WjX7K5dypxuKyEu9Cw5Rs1IMlKYyJ0rCQxJHPX02gMSCme1OGC7/xHh92MpHxyn9OY50hqnUezmpaWSs+diqBoUvVaB8sG2qj151EbRW0L6Rax1heTGZTOjCnz1nLU1M02Jj7h6LZQT/35XguUBLH7h3eZJSq98x/36Oc3Wb1raiPr+CuXCf2ZmehhVMaqUsT5ZSerNkzzt9rOxI7Hovq2fDtj6soCtt5pVED9L5bUfuFsxhgrnXnh6ePjDZUoHhmktjiEktBqfunZxhPK4k9wsmMNrqiXpdrj4Npv8IOKyYRgbZkLF3gfb+ddC4j/vZAWJCZf5n4cfkFs3oo23FhvZZmm6FUrYleM8apvFJLx7oDSKy+eOc+XGDSJqjDgkbvOYOsmOjuTO40HxsNK9M/nE3r9OcpNd4uIsIsu7GF8NNINXm8KTbVKWStY5MI5UEh8XwbU/xtGrEjYHkzn7UF9gczCQX8yjrz/hfEoajTIfPOpcm/DkmVIe3A3j5GHhFoPzOBzT1D69QejJa4RduEz59Dw2lxvrUB3JkRe51baq6ZWtIY9HF+5TIXx3VOU5rGoc5XjJVW5GJ1A3IdylvZe5xRWey+C+XOzn4Tc3KOiawCxx5U/tpE37/H5nbQnX/vkIt8KTaLN5cIm+W+0+bINpwqdP80VYOe2DVrwTVdwPv0T4lXP8+8NmhmZteF0mhpsyCT0ax/iWUhYbzbkSv95tw+Mapyo7kovnjvHVzUQi6+ZYkFjaubDC7suAvVB5hM3OFELz2mmfdmgPyv7k613qR7Pdjd8/TdPjh0TEtzNnkA63SaVdRoZb6on/MpVBcaaBjJwEmdIoR38haRmPSOhwaEG4lk0eaiQ/7TEPoh+TkjOC0+nE67FoK3tUxnv4WRhhxRJoKCMg51slyOqqTOXhw2hinpbT0edibdXBgnWcpuoUbj6I5MldCRaSGhiYtEkwqZ7GqATCLI3h13jUIAGpzYtXGZTxKh48ecDDB9HSyWlkNxlYCCqT02+gOaGQlHOFTC24pB1O/NYRStISeCZBraU/iYiMYurHZDLIAHSkJhApBvBq2DGOnXlI07CR2aFmUmXSPkh+RNjVi5w7d5bwRx2MtqdTkBRCyfSaEF4rzvU5yi6nkhNdy+yCW5ytE8t4LhFns+kdUbvEBwigesJimuym6Op1kkYl4HWZ6a3N4XZoLH32dbbWlxh7dpfI8HOUTa3inminNOsJD6JiSMjoF2fhZnHBjn20mtTHEVy9Gsb5r05yPbeJMWV0fiY7bBdjbeytJyO1gIZ5Kz1RmWTcqRYlV59XlDEXg2CdyOfuuUy6Bs24F6T+WgJJiIUYWeNkM+kJSRJ0m2itSuDrrAlc4/UUZN7mYbNa9aQIiIc+cRaZT5Losno1XdI2LVO6Y5+nOvwG+Y3tzDhd2m/zk43ERkkbrlzi0tHTXE7pYEoCXZdpit6aHKJEP2If5dMtjmVp0ytOR9VHJSj8mPsLSIqrYFiC7PboW+TWt0kw4BYdGiQ1Lpbwhw+Ilj5LjxvE4VM6/NM++cUhjtxtn6SxvIqyqjlWza2UlORS3m9hwdZLfm4D3f0yeW0dZGY0MzZh0FZKqRUSatVTe24ijSY38zPiICpSKJ/0a4m8vXKbKiV4LuvDuyhO7xcLJmTOe2yMFSVyIzyRCodYSHFq1nkz81P1YiiFFCT34NX86TItNy6SUNlFd2smd67mYdSSjlvMVFzhYvYo/p2XvNldw6dtSmcWA7yA3zJGYcIVnhSVyBgtYVf6IPdWWfTZngrSE2OIik4k69mM2CPRJfcq269esb1iYtYwweS8uoc43/FmEo9cp8y6zNpLqdDLDUylD2UOPKB4Ykc7Z2s0QcjBHdEzcaaORm58f4rUNqeWmF0aSxODWsHgYJfYhc9I7ZmXQM4retxAWfYtIuudrKy+4OWrLTY2DVTfvEnYpSzGVPTwaprHt5+QVtmPYaqI22IfGmeXtXu+cU+IYe+l4EoYFRNzYj99mAeqqYz/loJZF/3ZCVz/NpKmBXW2nbLQCJ5GdWp12l0Ue2iaZLQgmitxjRh31TnP6b1zlZTKNmqST/NdsV0dFFZiZWregWdLaNvuBqu2Gdobc7h5PYwr505w4sw9kppmsHmUk1LjaqXy4jWeptRgWNxgfXGa1gcnOJNSz/ii3Oj1DhtCMKzz47QUF9DZ2UBR1RTuTR8bL17yfH2HRcMgTV31VOfV09XRxZhlnR0hVy92FlhZMtImuj7QWUp+yTDTYgOWd54Lz9pm2SFOXsbrWX433fUF1Ew62fBu8PzlCyFOixgG2+iuqSC/tpuOjmEs69tsCkHbXVhjydhJhfRzd0k+5UPjYp9kXDZ2eflih2Wbm5mRMvLKehgoE99h8uL7r5jbvzGoVXjOmX7Kc+5zttTAsvTx/ooI8QtqFeiab4SMmEfcTajE4F1kwVLPk7BCGtum8C6bqL5xjcjbt4mOjeXx0zgqe+aEc3jwLy6yKPD7VDJG/IPYCmXT/fZpylOvE5NXyLxzgoRHWWTlDeBR+qwIX2Mk1zKf0TJuxS0EaG6qi8RP4mkbmsUpnKW/qYCrN6qlblJ/IajusVqKs25xr2FefOYCS+q+S34hVOqprB3jYAN5qbHCW56QmjuGS3ykT4Joj9i92IQooqKieXg3idSaGXwuF7apfspSUskblXlY9IzEE3lM+AMriy3il13Gap5cS6S0fBrfmkfaFbBzOn4J2DQ+1/I4jphL14mIiyL0wgl+OBpJQZ16OipBVzDx456u41H83vglk1YrfsXrxmIcpyFKeOXdJ9wX3pFe/oxZ94qM39/pONmd+GYauRsdQ/iNCJ5EhnLx2A8cj1GfvBZOKsGK3TLPcO09ztyqYkx8r+LZ3YXxXP40iX7hontP4XX8OrB7HEzVF5EcEUOJeVXs6MF9WpTtM8s5i2JzWomPDiG3tQ+j04vVbMLicIvdGaFSdPZeWp/wBPVwQ3FpDz6nmdbC+0QmPmXYLpzqTz0ElDmhPtmefij+x59sFziNE3TUx/N5kvpku9TX4cIyMUh1QjjXr17i2KlThD7IYnDOxaLXQF1+PNm1fTinazkTX0ReVzBpqu5hmaU7OZyzJZPYxcY6g8ktl32KlspcbkQ0aKs2rA4PnsFisvMl3oq9RVHOXWrm1nAJD3asTlNwPImyrEIe3r5DbvUIntVNFk0D5Fz9PQ+rBpkTPvD+FZQqYaA+2Z5JVkzcgU+2Sz2kbQ7PGFk/JGqfbDf7pZ1jFYSFFdM3OIfD6cBhGKW3KIzLzwYCCS653u800pR3l/spiYzYlwP9vGfrbyQEbP16wNar5Iltsprr1wrp7J7R4mC7cZKRsluEphZT8fgLMgYkrrJI3yyZ6CosJ/1MOrXl+cSdvsLd5IdcCDnF0WM3SC4cxCL+6JdO+njGioguaaOtLZsHkckUdxhw+22MZD0gqmGcgdII0tpHmTErn+vALrFqQ+41blUbcHkWMLRJ3JtwimKJTVXc61o3UHEznez79VicPRSnRGpJxNCvjhMaX0LPvA2X00R3TgJPGicxj3WQ/Hki3bPq4fH7bI8aQxtdqc+or2qlMTVJuHIG3Y5FVsydxETk0jXSRm5UJd2dkzJGwl+lHnOj/RRLLFw+MS/xnoWBykriv80SnqsSWk5W51t4kpNCSPEU65YhqgtSxAc8JOFJNbPqa29LLkxGE2Y517NgoacoigcXq5gwqoevat69W0+V9JmjsaiO8qxGaktTiI7MFhu7jt9YwdPH5XQ21xFXWE9Np/Sx2Fqr2chMZzKfxjUxMCPzwjhGc/5lblSqJJtKuLoZb6gi99Zt6iVucMh4Lcg8i8hI51blDIvuvWSnyoXYmMi+y7msDkYtYiccKqfzp5I+apXEbBupj6K5eq+CqeUNNlecmkHRnhC7zYy2vpv0ESIlAZJzoOhA0kfKstmF4G3wQstoS/CXFsal2Gd0qMyTOB2beqp+IOmjJqvd42d955WWgduYribp2jUSZAAbU+5z9U4uE9qjmNfMZkdxSxSzfkYGQkjcVHkUj0Uhp4Xoe+1mZgcrCD91ldzhRXUBO45+skLOE9M6oyWX3AvztCQGkj7Ty0t4Zqq4feI4R34II/pJNOHnDvHlkeOcjq9heEYt9bVok91u9rE0k0NY+QADHa1kHo+gU+pssvnxTvXQVhfD46w8nmVeIWvEI3WRPnCNkp5SS2XJCAseIczWPpIjixkcnsUlxFANhgrerYYZUah7xA3KBFSvu4khdy+usuSep+p+BHfii8l4WkRdXgr9y2J0VKb+pVoT9QJL4R2u3s+kdtyBT71CpRJ3MmbuRR+d1xJoG53E9O6rEgKH189oeTZXD33IsVuJPL5/jdNfHOWHj0NJlaBryiZtsPWT8kAM4MCMlvAJ1FcmoBjuqcZ0fvjXQ4TFRHH39jXOnvmW/3U8itysLHKLHnG1xsSSKKFr0UJzaiVV6Q1YlkWf9hITUo7NYaRmL+kjjkUZM5v0m9VolDp75BwL4xmXKRsXPRMnuKySB9LqXVODkJkIHirj6hYjJBgrCOProyc5eyOKR/fFyXz2OScuhJJe30jysXPcqZ4UTRTZtNESe4pTOX1S/i+cNX8P1GocQ18t1dXFtMwvSX/4mWisolq9jlglgW9HN2POFcZqHvOsa5Rxi097bUC9fjbd84ykkgk8NiPjKjmX0Y7bc6Dc/jopp4jm+WXtqfq79/7LIePmn6E6qYz8+63ijMQZyrjZhFB6nS3cjyyksnZc6uLQsvUTJSe5U9RES/Zlvr0cTuSDRzx8+FDmUxZFTROYgs5YvZphGKohL/IckVkNzC28YHPRxbwY0f172x0srG5rGXfw0ffoHBfTmhmbV8lhGS/zHH11WWIDIomOjubOZTGQF6Nos7vFmSvnYKc9KYfSlCKmFr1iW1z4TXWE3c6kqH4Sj72Bm9fyae6aEYdlY2aim+TrNYz1tdMY/ymZ/RJsOnxCuFqoKrjDg0ZL8ImZBA6Ls+LMMsi+WyV1d0tQaaLhXiYNtT1MN0QQW9vJkNEjxEYFmOpVkX6KLt2getogAYgf63A9dcnfUiB2pVsC1eRTeUyqxK9cs/5iG8dQPUlhtwh/VEDz5BzNDy5wLfQidx6p/owmJiGVcpUg3HrB+lgJj6MjiYqNoWFY7rdnj0VvtCTvvAHT0g6Ozmc0FcXRZvRpZMcsTmZh+zmungoJzu/yIKaeZhm33OEJpoU4qeSbRsoW19lcXZQxW2R9cw2/ZlfkevWk0L/E+pross/L8sY6S9LnWvJVneNeYnNzVey8l8XNDVbUyk91XKBWgy2ub7G6qMpfY3NtIWBT5J4mkxP/0jpry+KsvHLP9WWxoepLF6rOcs8l8UerMsbeBTY3VPk27VoFtcR9ZWNL6iH+ZWVT/JYQLq3cPX3W8UtA6YXPMUl7ZaLM8xqMQpI1+6nGVvy6IslWi5/VuUqeJKWQ09hNzt0Yimq6MC/7ZC7OUXUjgyGrX0tuqkejO2s2DBOtZMc+4sH9hyRlVDAift003kzRg3PcTRWS5X3O9pJPAvwB0u9mkZPcjX1JfInM07nS2+Sp1XRiN512C/Mz3ftJH4ffzFBvOXeOljAtc9jm8mHtr5X58IBag5DI2mzu3Y/k/r10KhpGJPARore8GeQtG0ylXOVynBC1wRaiz10mpcMuHhdercxSEhbCrfR0or/5dw7fiCf23k1Cxf98+y8nicmvY9jiYcE9SmHiM2qrhvCvegJz5J0+1fHXQAKMBSt192LJTSplcmVZ9G+Fxd4YYksqaJ5Qq7Vtokt13D19mdTuQKL/1dIkRZcvEVVSSeGDo1xJmgys2H5ppDw+UvhMHT6fCsTed8+/caiHmKZq4fD5FDROsbholbnnp/teNBXNHcxI0GkVX+bwi/31dpPw+CGPUuKEJ9VIINUuNld8R9Bf6/jloV67swy3UlH8hBwJkpd/9BUmsVES1E82Z5B4+xJPqibxrW2LHbHLOTack4r3RhEe04Bpc4v1BeH1wpdN6jW9p6HcfZJPl3WH56tejP+Rrfm5pI8cd5mn6NpP+kidhFuoh3E2m4n5eSfrywYq21vIyKsl6+o5vv/hLLefxnD3ynH+/bsTHLmdR+e4QXu9Z6Y9jjslM1JucNWBuod6XU2C447GZ0SermBe+IN6EGjtLKauMo3qugyysu5QMunDJ+3zOIaIf1IjMZZB7O8W489yiYt8QExuB5Viv5tNEuO8d+WFws8lfRRUPcbJPnIg6WNtIvJYLl2DcxKTurHOTjCQd5WCafFJM31UPb7A3bgieu270s+eAHcVv6hiPc3WV/7Y1muvAjlbuX8ih9auaexeF9b5WYYLJe7p7qUx7SiPOuRe0j9e1yxNdY0SS/cykp1Fxp10RtdWpfwVloYySSvJpGTQHVjh8qM2/hUIJn0eFldSMrHNxngsNyKzyI87y/mkJsZnLRiqrpHYOsasWcZJreif7qExmPRxuv3YuvMpTL1A+rBbi3t9rjGyM2qlT4dZDNpRk8R0ns0VBiIzaW6tIiv0Y76+cI/IiHuEX7nAt//0PTceZNI6E+CyPx7LYNInvYTy5HKcrxdpenSHpMSn3L1+h3zhF/MLs6TfeEZ31xQ20TsVR86PDwSTPgbpdwcjdXWknXjCgF14i3qwO1lFUVU66X3L+JaW2XwRWBW21J3MpYgkSrvNLLlGeBYVw707GfR6hIOuybUqSbsXx/4IgaRPU3E1WdFdbGxbKE5J4GlsNOERiaQXD7C40sW9tFrqVNJH1VPKmut6m/TxmyfoL4vgWNG4/Cbl+awMNbRRfLcEw5LMUZubxZk67ryb9JFxtPSlEVnUy/CsG7/zbR0VF/5p0kcKd3pGSTt8gkvnLxB27SoXzp/nwqUrZDZNYRSFdHrMjDRV8ej3cfRpRiAYZAjxcvblEp94l5hWh/b0yznfStGjcC6cCOFC6HGOXYqgdnAWu1pipYyHaZah/POcz+1lWsi+2z7LSIN6JecCFy6c4cS5M9zPqMK0LoHQcBUpoUc4/N1FLl08wcnQaxS3jWBXr3AYqrl1IZ/OjikJQO1assnmMtOXcpnj35zj/PlznD1/ktvxhUy7vHJvlfQx0Pg4m6dHcphYcGp7Em0+f8UbtUxdBny3P4ZbOTUMOXdY8/eRExXOxbNnOHf+B67fqWZGiKNPjMhcfxZnfviOkJDjnD13kYSsIXwvfMw2lXL3yLf8EBrK4TMhpNS3YZMgyS5EdijrKk8q6ugxB5a+K2W2S2Az2VfE1bPlGOaN8rf0rcqmGsfpKHjA1dNnOHY2lJu59Uy7JWAydVGRGMGFYyGEhp7g6IXrlHSNiRNfwFSXTPj1EE6dO8/JM+E86TZKACplvTveAvUZQJfXqy1bCyw3XaH9Xja5D7tYEAq04HYzmHWNp2XVdKn6SiBplTqP1iZx+0kJvc5V6a83gSWNz70MNCbwebYY5Re7LIy0kx1ylE9Oh3L62DluZ0rdJZjrTo8iIamM/nkJjKWdNsc85ZdCyaxtYcopx6wmZhtTCb8ayvlTYnRO3COu086qjNlgSzrh56XNFy7w/Zlz3MoqZ0b6dbgqkcdPs+m2BFZ1aMss2aTz9nWKu2ckwN3C0hXLxS+Pcv70ec6EnOdE5BN6DEoffkHj+T7IvHGbR6gtKyGvZJBFvwpULfiXzbRVJHDtZmAF1YLok3uskvSnD3j4OIGUtDQysoqo7bewvCKBytwAVSnXuf04k5TkJBLSC6lt76LjWRp3b0STmpNKUnwKhXWdTKjA/a8mbWIwJDBbco5QlhLCka+/J+T8ZSJS6xmd7+LptVtcv3COG+EyTsdPceNROwYhk4tqbkWG893Z05w8G8K1mBx6pyboKJR6Pm1kZrqe+LvH+ePpcDHWMv/PneX01aeU9ogTyXhIckYDoxPNZEaEEXIqhPMXjnPqRgzdc1ZMhg5yxEGUtA7SV3KZHw6f5VyY2JjLkUTeukunzJfq5ESiUrvwLM9Snn6Do999L/YknJioKxy9lUNTp5EFaxWhIZk0dE6L/tuYmewg9twzpufmMAzmc/7Yt3LfG9w4c4HLl04T1WFirDaNxAfpdDstVFxJJOVGObNLHlweEzU3E6kqb8O+LXMg6TaHj57imNiDq7HFDMyLQe+OIuSrY5y/FC726xJhZz8ld9ZGR0oeT77LZHzBLeU4GajKIFJszKkLx7gSXUbv4BLb3jEynoZw5vQRzp0L4WZsOcPTBuaaUrl+8TynTp3jZnQaA9ZJOotSiXhcy7ToW3PWPbFXYr+/O8W5iEIajYtsG5tJup9IWs0QFkMnBfevSx+flvkQQXSbRUvgGVvzuB2RS5t64qLme1AfVLLGNtlFUUossYXdmFwHCZb4DvcUdQmRErBLsGt0ayv2tN9kfqlX8QYqE7gtwfOAwXxg1aHYPqeNqe5y0mIeUthlFFJ4YD6qpyuTTSRKnTNqBjC6HW8TtBopMDJYlUBEXBkD6v3o/XJ1/GpQSTYJKr0LQvQGC7h9QfzxhVDhCme5KvO0vGlCCK6Mg28VX1cBNz77gjPZ7cx4F3HLeFvtYu/Fh589cZRz4h/PX7zCjew2bQ8ztRzfqJL9Ur5zQgKKB8f5/clb3LsRtBOXo8mqN7HsaiLz9kmOHjpL6KnjXI5rZkJ0zitzUz0lnJ+W+fwvj2jqn8IiPsVtNzPRFM6pT09y4fRJzkk5eR0uVtSqY7mfuqd2X4twnPkW8qPDCQnyluOX71I/IsHLko+xnJuc+fYMZ8WunQ85QVh0JpOedXa019uUE9xmqrSC5BPluOT/y34PE2WPSc5Oonp+BZftPwjCdPwFEH20eFgVO1mQeE3s/VHhRIcJuZRG+6iF+Z4s7sXm0zprZiwvnDPfyPiJHT0XcpLrMbkYPF7mOgu4cuwjTggPufCDcMbrmRRPid/es2F/b1DJbu8q3oEsHokvOXIslNDDoVzL72FGeHdr6h2elnQwNTtFY9I9Qs+d4sy5czzJ6sC2svD+MnX8MlDxh2OChuIs4T/NYkeVz1Kxl4GuojgS40rpacrh0pWzHA65LjxYbJ/48ZA7ObSMtpPw5REuX7lC2JVLhMiYXbpxh5LmfqoTz/BvJ25x50aI8LSznLp4h5TiHtzaPiDvqYeCisMcgyT+8RHllf2YJSjeS/qoPVo7qh/xb487taSP0+1kqq+BxCvHJd45w/Ez54krasK0usHq9vNA7KRMoKOcH+LLqZ1d5qXwI6vEKklnHtM6MorFrQJxG8apTooeR5BcPyc2e46Biqsc+0Rs85kTnLuutjfwsLMr9rY0k2tHDnNE/MS3wqcKugYkxlnC2FPI05uhwonOcuxmDJVTXhaF784Kj8hoGNUeEr27V6DD56Q3M5nkew9pdwYefgV+U0H1KKlfxFKU24nRrx4cSjw7Hse1w8c5c+IMIWcvE1MlPNwyRHncCX53/JZwbvEByiddvEdiaR/WxSWmK578yNar5IihPZf7sZnUDkhcPJ9GuFpMcEzKFG75oHga36LEPPODpJ85yvcXQjh69jw3UrIx+NdY9s5SX3iPI99+z8WL33M25BHVir+amymsbqVzzKzFUG/b+RfCJr5zJJc7eaUU9tnwLq5gL7/O4fPZtE1YJZ6fZ7QwhMdNgZU+WtJnqova9BAul81pD1rdS14MHZXcl/H6XsbrO9GPxOomsSeb2NsLiLl9QWL6EE4ev8S9Whkj+zrbz18EtzV5xapjgMQPUpneWsczO0BDTjkDWry51z41hjbaEwt4FlfChNfD2vIUKRIL3soQzutdwWPtJS40n452tdInmPQZ6yVXYuHiMbXvnwu/28pwawLHD38n/v2I2L27FJXb2VgboS7vEZclrgwNDeGbc6GkNARe96u99RVnLp/j8uUwLqq5eOkqT8t7GRtuJbesR+LoQJIqUE+ZOz4ZtzzhtPfqxQ4vsu7vI/H6Re49qcK4vIbHVMONhEqq2uaCq4vNzLY/4V8f1tGrtsTxuCR+EzsdfpZPT57n9MlzXLyfQZtzCa/ydzJeS9NVXEtM4ErpNEselfRRNmSYLImlKiUGNC8cWFwheH/SRxVmdrO4vs3uixc8f/48iF3W1KsG2u+KpC+wurmERxUUvFY9hbXKRFpeXWNRKqBuYDKKki9tsCNlvZDB3Vlb0AJRNSHVvRRpdy+usy6GQTXaZJLgwL7Ihrqnuv/2htYYo1GIoJAx7/JmoF6C3Y1lLWOsMqlmue+qOCqnBA8m5ew0EiD/upbY3N0NlLW7zarfEcy8yu8mMbz+ZVbX/DhVGft9EOgcu2+Z9RUhqdoKHwf+1S12pQ2qL1b9MrhyjlkNtM3LytZzXqg6ba3hdynyqFYJuFne2NWOv1D70cjAall3uc4tE2pJMyxvs/vaK2qeRdYkuNc27g32kcli157GaH24u8WyGC6jej3GaMezIGRTHVf33ljSVhao9pmknI1tde/nUqdlIdpSltYvb9v4fqg2qX5eYUUmsEOV9W59g0rkXpIJuymkQgVZqmzVH9rKgFU2ZDyVPhhtQppWtgJ9IHVflbqbDXZ8K9tsbiwIEVflyXVmp/TvuhBktRxe/S33UCsFdlW/Pmdnc1kmiXolSC0xVSvBAvrxYmdTW11gMFi0vtiS/ve5rG91wKzGba9cdb0aq53Atc932Freey3sYB/8ClBtFCPpXZJ+9Lm0NqvjZpMYB/8KG+syRkp3VV0cHhalzptbW2xtbooOLmjOQ12jsrtLa5tsyvHA7+ssLUk/Sp+rv9XxrS25RtoVuOY9dfkLYDKqFWHLMh5K13bZWF5gwd5IZEQmle12Xrx+Jf25zYpXGR61KkPaIQHfjho/mS/bMsfsosduIQfbYgM8YniX1nfktz37IuftbrLs9rO4LO3YEN2T+e5fkzknY6V+31rxSD9KfWwLrG1vsbIgZEXqtCVz8sWO9MX6Ev6lJSE4Tnwbm2zLPFLvjftWdrVVYUrMz65y9WkBtVN+3B4/a9Lv2vJjrW99rKwt4pJ5aLF6gnN6h22xQWtLqyy6XTh9Mi7bootCWjwyloE5otordm5lWeyeC5sKHmX+be7I/JN670jbVb1V8mxN+uO59NO26OmKjLHfJUZa7Myq9IlLm2tGHJ4F0W/Vzy/YWlWrhQLBqGthjW3V/1pfqESllKnZt2Afr77t4531RZzimNUqHdV/qh3rCx7s8/MYXX4haJtsiB5a550s7PXxtszloN2xLaxKu1dZ2JvbQT3QdFDZtU2Zv9J2u9T5rd2U/5tc2uqszXWv1PutrVC/KVvvWZbx31SO+WC5Sk/Fmct835B6LQvpDMzf4LXyf1OwzutSZ9s791REwCM+Riv3nfrq+HWhbLyy+f614FwWPVK22us0yhjKOcoHOJTN3WTNq+aG8ndqvA/6UzUndjVucHBPH03XxGYu7pUdhOZH1JNY8SNq3AP+b4c1ITjKxmu6IWVYhbSvbK3iV6tbpSylY1abkC9VhviUbeEPHrtK8rxtTwCib0axIcI13vKWwKu06gGJWbjPuvjWAKdQ88oZaGvwWmXTXWpOr+/NaZPM8QWWxU671Jz4yf10/FIwGa24/KsBnyDjs7miNuoWmyrHlM3VtgLQ+MM74yd6aRGuovZf0nRMfNzmsgR9Ynf/vsdLcbAAnw9wHuFLDvF3JrXSUuz0qg+bcEa1elKbi+JHlzzKn72vLB2/GJQ9Uokf/xIri+6gv1O2w4FnUfG7RfwLXomxAhx+z/Y9lzjCL/q7vKHiswPHVWyzIDZVuPb+MYHiuKvip/80x1W20SO6LxxHvQap6qaOa3W04RAuoOaCOleL8RxOVjYD8+v5top3JD4TXr5fnlxncomNXFV+YC8e87K8JvGi2GKtXGWf7RKzCY9YX3RJ/ST2kWB2U+moss3CX9zCe0wmo8SU0g9bwThK7Ll6FUaLfxxyvRx/Lufviq21ix7PTQ1QkVrApPbKr3CBvTppUP0r9kHZ5lVVvtjiH9ltNU9WJZ4QP6I4hvxmNu/FC3KPnQ0WnOqjAOLvhOP8uJ9VO7wa93O8Y+uVH3P4VoSXb7DotGM2CoffDMQgz4XzLroC/ar4kVcbP2mn+Li1BZcWL6q+cbj3uPcLjT97PdM05BTR0T8ogb1bG7Mft/UvgBoX4VnLy4vauKmV3CqOXF3yaQ/vlP90Lwpv9UvfSqyuxTBiM/0r6+KP1dsfUoZcY7ELt9+Pe4Xjuh2B+F1i9BVpt6Y3Kh5Wiap9vQz0t82ueJ56hX+UvoZ8kpt9+MXvvn2wqMZJYqaFJZZlfjhVHY02iVeFe6vX3ZR/togui67t8XpN12xybH1dzlE6ocqQe8k8WpM4UtUnwFnmmVf+Q8Zqr68D+maV+gfm1s4+Xwlct+420Z4VR6PDoe2B9rY/1T1kfnulnhKL2WV8VS7EK/VeVLxb+kPp74rKL7hEJ1Q95Tqr6ObWqtLlwKbLZtEJm/B+TSdkLm+qsvb6TH43Say4tLJ6gDOr9ooer0gsJP1ufWfeqzLf/3qXDh06dPxHcNuZE/JoF0Op7b3xvnP+j8KG0zLDxHAXLa3ttLe2MDjvxrPg04MvHTp06NChQ4eOfxCovUf9wu+c7/ntHwlmsx2Pz49HvUatBfvvP+/vEyrZYdeSZwvuv+22qX2avAsL2url9/3+twY96aNDh46/AmKcVWZ9/2nJ3yDEyGlPLPbxt5ic0qFDhw4dOnTo0KFDh45fHnrSR4cOHTp06NChQ4cOHTp+S7DasDscON6Ber1k7xz1BeaDf2v789kPnP/Ox2HU+Q6nU35T+5S8PR64Vt3vPcd16NDxq0NP+ujQoUOHDh06dOjQoUPHbwQ2hxtjewY3zh7io08+5o//+gc+/PhTPv/yEGFZ7UzNzDLa00Te4wt8G9eESW2i6/JiHKwjKfSf+f0nX/DJR3/g9O2nNE/5tL1JbOY+iiMu8cO//54PfrhLfts4FrVPkNqv1G5nti2V0EPnSWufwiR/H0wW6dCh49eFnvTRoUOHDh06dOjQoUOHjt8S1MobpwuXZ4zMrxOpbxjFrj7YYrdhW9lga93HbEuC9sl2o/q8usfOeF0eiRfOkdbSQVvPMJMmJz6vH0NDMk8y0nnWMcZIRz1N0+ojPh68DrUhv5HR0gQyWvrJv3qTsqFxjHrSR4eO/1LoSR8dOnTo0KFDhw4dOnTo+K3Bqj7ZPkz6oXhqagcxe95+st1lnqKrPl5L+gS+xqg+277CzsuXvHjxmqWhAh6EXSGpy8xE7iW++yqEnIFlXr98w3zOJa7G5NA5NktdVhIdDj8rPgf1N65TNWnApq0AOlAPHTp0/KrQkz46dOjQoUOHDh06dOjQ8VvDn530seGwGZieGWds0s3K2iruqUoSUhJJadtgufMxMXH3KBheYGNrmfnaSCIKqslKi+PB1bOcC7lAyPkTfPm7f+HQmSsU9plx+RbwOmxY7U7cPg9Ouw2n24PHacfudOPxurH/TX4ZVoeOvz/oSR8dOnTo0KFDhw4dOnTo+K3BasVqM9KV2cHE4AxWhy34mxW7ZZ7xyQ7SOwwSMFqw2n245qboLLhJ2NWrRGZWM+TaZMNrYN63yaKhmfLEMK5cuUZc3RTOxUV8DiNGo/rKqxmjwcRwRSUjJgOGmWHqMp9S1DfHVF8DxXFptA0PUV+STVbDEMMNhRSkFtA778Zhe6fOOnTo+E9DT/ro0KFDhw4dOnTo0KFDx28SZkwmU+AVrnd/U8dN5rd/S+BoMqlEzttkzt5v6v8m7bhArvvpCp2D9wn+X5VtVv8G/h/4XZUr/xrN8u+7ZejQoeMvgdls5v8HIhaZbtugj6EAAAAASUVORK5CYII=;" vertex="1" parent="rKCySKITcyxOfwlai2oO-105">
          <mxGeometry x="1" y="18.930000000000007" width="869" height="79.41" as="geometry" />
        </mxCell>
        <mxCell id="rKCySKITcyxOfwlai2oO-100" value="" style="shape=image;verticalLabelPosition=bottom;labelBackgroundColor=default;verticalAlign=top;aspect=fixed;imageAspect=0;image=data:image/png,iVBORw0KGgoAAAANSUhEUgAABHoAAAAVCAYAAAFOJbl/AAAAAXNSR0IArs4c6QAAAARnQU1BAACxjwv8YQUAAAAJcEhZcwAAFxEAABcRAcom8z8AAFNzSURBVHhe7b1nW5TZui7qDzjX/n72+bD3XnPttdYMa/bsGTrZ2m2H2bnbzjmYM+acQckZBAkSDAgmgiAgGQTJuaicc4AiY77P87xFYYElaqs9tRuu66bekcMTxxvGmHXr1q3/dwYz+LmY1dvbi6gKEaqysrEoqhAOux3tRedhp9/7QV+/FZ/5HsNQvxG+/vH4wjcFO4/Wes1rd/Qh9OhxLI8uxXCfA4UNXUK8zdGPsOMnMX9n6p1lfiH0dlbAounGqNMBvWMAfQ6H13yDg4N4f2cSHM5+fLErER2mQSwKSEJISReuGlqFPKODeny0MxmHq+UT5ayyahyq7oKD6g3yT4FfbgtM9YWu/KOjeG1LAr7am4TkSrEQt2n3MRxIPQOdcxAZWRcFuqisDuQeO4LTmQVwOlz1lmWex8rseiHd3daDYtn+ANjElTT/6Ygq6YTT0CjEr13nh7PdBvzbjwEwDAxiRUzWHWVnyWQyaNRKKJQqaOl37oZoyJVK9PT03CfE0GvUyOlQQKNRQUfwns8FqbgHGpUKQYHhkEml4/EiBJ9vvWfZxwmpnPqvkOJkairE1B9veRh6vZ7mi/spEvq73T8SWvrlORRJZHhtXRREYskdYxHLFFDRXM+JyBHyq+RSoU1OYyFWSMR0LYZWpcS89dFQU56VSZeEvqiovTkbYiClvHzNc3i7bhHMas/wg4Pp4R6Pmq55HK+vjaBxMH1kUKjUkMikkLQ0TSrHmDFhM/jZmDVqN2DVtngMDTrxbz8cREVhEeatSLpDTXnD8PAwNI2lwnXY+TZElEuh1/bckY9hs9kQduQURvqdaCpkNegyD9euXcN7AedgsPVNyv9Lwmq1ovzcaaREHyHz0gff3OnMtwOaukKc7HZgz7aD6OvrxWivEWtoDssURvjtT0JKrRS9XRX4gTQNl+Gx15WdRH9/H75NKMeoRYX9WVUwjNfp7O9Hh8GI0X4tEupVWLQ/AWXnMyGxDOBj/wz834VBGLS248uADNiujsLHN1EoNzY2hpSzmfiazN7t/j0Y+lQi5B7PxMLUGoQnncLKHQmo0vdi387DuFxRgnXJl9B0MQcf70lBR5VrPG7MYpUqqFmRiMyXBk1qnWDCpqoob7BYLGjLjscbPtGCylVIJRAL6u7OvN3d3ZCTehb3SMk0qvBJWLYQz3Zfp2IVfndz8bjR1dUl/LJZeHlVIrTTmm4RZAolmSEJRD0SvBKZB7HUNYdKiYSERwU5zUMPx43PI49dRPO7g82cmsZKpk2jktNcsLly1SsTiyGhMvJKl2lTkrlgs8V1KFVatCjULrpQPVpyFbhMX18flNQPvc4V/jkQk5lit0VM12oaP7etFrUJbcgVZM7ZVNJ4u0XlkFO/PcvOYuKNjIxMixu3bgm/wM070h4GrHVGRu7e/q2rY8Lv6JT4R42bNx/tuJ5WsCXxFs8YGyU6jF31mjYdrl598DKPBvfma09cv35d+OW/a2OTy9684uJDb3DzJuCSkQeBu80nAfx3+/qX6dcsg8GAhAB/zN8ag+bKfAzYrSjJSUCjxIBn1sVDq9UiMTQUn0SUYu5i0uoUflRgzWuyGqAtSYNOVgyjToOM2DD8uCMcp3pMCL8ogs1uhLyrhTSpxmsd3qCihYNWa0B6hxmFMgvqS04jLjwU75xug4bSrboW0vZkocfzX7lyBbqGCzBqNQgt7MSCtMs0fkrTTK731w4VWcv/9s2Dia4Pbo3D5gIJpAYTdHojWsqOQ9NdDYPOe9m7gV0+m6ELDW0lGLL14jTx1Yvb0tAg1kKSf4byaGCghazNrkdKWDC+2BqFlktF+HrpAXQozUJ6l6gTvlv3w2TRkftnQXtzLkT1Z9Ak0U9qS61W46VVJ+DQdKKP+KbXaiQa6vGnnw6gjvhn+eZwhIUHkCtZgD9vPokunXWi7MDAgPCbVC1GCXlXNosChwMD8OGWSMRViWixrUNpN+VTdWNPYRvWpFzGpxEVENVlwdDTiC2bA/GPPSeFOqxOOxYeyYaZxnXgkgZvhhXisq4XZ9upj+PtMfgOkNnajX6zHlaLGlabGVYzyYNHnl8C7yyIwtotB/BFch30Dh2Ucgnxvw4/+ITgmz1R6Kg5izdWhEKkofkkeki6a9F9+hjazx1G47lUBAQE4ZlNyZhNvKNx9mDAYoDRZMYHoUV3tOWJWVKpVHDp/hVgt9tb/MOC3WBv8XcDe3/e4n9r6Ozs9Br/MOA7ZN7iHwfcy5OfA77r5i3+buj2EvegYOPrLf5ph0CH+6DFzN3CGcxgBr84Znlbh03FtTHv8Q8Lvr9wt3tIY9fc6+8HX0ffuHHDa/wM7o7p7j3wn/B74/Hcu3kU9xGn3rN7UL5x3eu6gus3Jtdz9frdecmzjQe9JzndvbV/BcbGf69c+2Xufc7iRxWf7EzESL8KBRIz5kcWIj4yHVJa3/mdbxHeqmjTO/BZ9EX09T/ax1D8aCn0eCkiTpyAefyR17pdiRgcciD52GGMKC5hxcpw7MsqR++UstOBb2DXFObiM98cfJ9Rh8iwVPT29+P7yGwhvbP0wkRevhfBv/VFOTC2VeDTfekwd5ZAMeCcyPNbAD8u49+P96aiyWTF3vxmLEksEeISsvKQFH0Urx1zvbnxIOD5lV0uh8I2hI/3nMDSAwnoN2mQ3K3Bc2uihDyvLDqMw5c1+Gx3EvGhBudEesznt2Aorb/Piv1VMqzbkYAReQOOt2oRf6keOUeOYsR5+y0aVpx2Ry/m7z+O3/0UiNhjxUJ8QXIWhgZ7sfl0Ez7ZlYwrdjF2ZZRh/t60ibIM5sUVG/3QWFmBrbEnEVonx4rtCWjJShf6wW/s7K3qgHpkGPEFpdS/ZLy31heZkccwMtSHsvxjSL7kervmW+q7oiYXAwODmL/jOFKOnkC7zYLAUsmk9vj3fy8Kw398cwDbD2XCv6hjIv2XxDvbT0E+OEbykolnv/WFsqkAluv98A0leoyqUasy4ctxegyMmHGsVYpXNh5CYU0RAgOOoK00E6ElInywMx26hotYF3UONtIbueJer+0xZukMBlwQazHYb8cLfufx6uJ92F4khsMhhsXAN4OMKJU1otekhcE0+abew4JvCr6xNg6xZSIsPNkGrd6AdOrLucRoyIrS8eqCGCxfGYK3Ysq8lr8b+Kbx6SMxiA8KxfwNvthWKEZTbTEM4+lv78iayMt94N+F8TUQF6bBpCzFi8sSIdaYJvL8FjA0NASTpQN9ROM5PofRXpSGZqmL3p9t9EVobQ/mpNXdUe5e4Pl9b2Mqlp+8hO0r/dDVVY9F3wehWWXBjvx2Ic9cUjzLSQmdJ9oP9Nnx3MELaBBroNNroTeY8e9rU6B1mvDqnnR8s84PO0plWJjRBrHJMtEOP0kzKCUwGXT4y9Y0zPeJEOItJjMyogNgNuvRZ7Gi2iiG09aORmrL88EFP5jozE1AVVo4/rY6HAs2p+AM9aH77HHhwYTv0kC0KM145vOd0F/ORZ/5Mj5efwBxLTK8GVqCMXM7bNRfrrMsMwGzk2vRWH0OffJabPfzhf+OACrPN2lvt8e/f95zDi8vj8RfV4Vjw4aAifRfCmZSiIN2G+SdBWiQGrB6ZRAZhOOQm63o63NgcMSJPwSfRz0/dKH8BqsF/2N1CuKqxTjWKIZftRo2gwjD0mo0SPT48/YzmLc8HO+EnIZOd/cHQ7P4+bpOrUK3WCK81qbTKIX3Ezi+qTQPL6+MglRCeSje85n8owDfCOZX8aIvdqC7vQxzifmEd0S6xVDzuwIyhfCugEYp81r+buAbxvzuBL//4X7XQELxepqI1zfEwOzxHgPfDONfztuemwg9t0/tSkV31vtrhtPpFH55/mUKFUQ0fi0pjVc3RENJRoffz9AoHowODJ5fFdXDr1By3cI7JWKx8D6JzqAX6GHRa6CUevCh1PVK5iebI7AjtxHq8bJiqUzgUZVcDAW/+uhBI/bY+Jfr4HdaNDqdUDc/seyhfO46XK9JusbpLstgXuRXPJlv+P0Xtdr1ro2UeOGlNdGo7eimOmSQiERQ15yGgcbBvMWywv0QU3xJZibmrDkklON6ON71Xg3nIZ5W3H5naeJdIEpj3vvjshDhXR93+i8J7q9k/JVSHo9YroSkm9L4RjC/R0X04rTX1kdjy/lGoZ8sUy594Srrnt+MizWYG1WG17ce9dqWG7O83XH+pfA4nqQwHuRJ1YM+Bfu14nE9Zfml5pcVj7f4+8Xj4sW7YWp7D/NU7snC/Y1jFq+N+Z7Ibw18M9Jb/JOMW7dueY1/FHicdc/g6cLTJBv8IMlb/NOMf6UsPo168efgtzLOGdyJWfwiZX9//7QYmBIeGbIj8WgZhgcHXHGDo4jdvQMFald4eGgAf/4qCkOjQ5PKPUlg75xvbYxd78N/fnEA16+NeM3nDariNBwol2OIroeHnPj+x/2w9997Hh8G3Fd2UD3jptLl5+JB6n5Ubc7gyQXfq2eecIfvh+YDQ6N49Yc1UDqvUHgAdl0l/pJYh6GBcR3xmMBP5+/W1+n63SvvwMkWDQbHw/x85c9fRmBwbPiOvFPxIDLwc+SFHbmpYxodsuDwiWrcvNWPf3y2G9euj04q4w13a3u6PvGzOXfbupZcLE64iAsx+3FOY5uYq8kYROOJRETXq+97rJxvYGgYryzaBn2/axwcN3JlCD99txmj122Iz7qM0UHv5afiftt1g8fHPM7XQ8MO7M+pw9WRQQSkFcJ5H/bw14rB0atYsnIrFCOuuRHiyMbH+AbgcKFIuH7QuZ4Ka1c9isQmr/WMDFlx+HglRsbp7pnnYdv1xCz+gMFkNEFlMQEYxU8bY9CeRUa90QD7kBbPfxtJ8UNQN2RjT5MN2ovxONFtwF82JuP6YC+MJhNMZhuOhIWizKDAx/sKgFu9eOHHRFjtVDenP4HgL3X4qzV7nxVvrD0Effkx7K/R4ZbmApafboHVYhbyabQ0L7eA1VuD0HgmBRndTrTnHUVkhQTvL4nC9Vtj+HpFINTSDvxtQzI65N7be1gYjUZBUE0mG3LTY5AuHkRisD8q9aP4ymcfJGY7rl29grzIELT31OOloELcGu6H3qMOs7MX/Q77RNiN23Wb4FTWYXZgMW5d74W46Ch2lKoAw0UsO3kZbyxPAcZs+Mu6ozQ/k+uYwa8H7EiwbFjtWvxt5SHcujkKk6EC751oxMXj0ThSXoi9FVY05qbAt14hlDFbbPh8435IOwqxsVKHYWUxXk5rgNXsvY1HBf7ohflXCBNvw1yDJcdb8MaSXRi+Cahq0rCpXIerVj327QkkXXYV3y8JgqmhEL6VKjgsBqGs1WrBnIWR5FSM4IvFwVBZWR+OYemmKHTnHMOOWh1sTht+WBlMNQBzFwfBaLNRWTMUHRfxZmoTrgzbEBvoh7J+WkCMmvDqlgShvfeW7YW8Iw9/9D+PblkNVpxWQN96DkuKRBPj8ASvRnlMNpMG/1gcixvXhjDYq8Fftp+g6pyYvyYcg33ctgk2mwrPLEyidgZw6ewhhIvZoFuxbjuP9RqCDuxFp02Cv5Ier9AY8Y/9pyhei9m+ubBbXTrOE/x6K9Oe29eVpJG+s6DuaDjKZEr898oI4IYNn6xNgkFnFvTiF5vC0JlzAvG1Upi5DtKbJ8Nofm+MwnfdQVhMpBfXROCzhEsY7ijG90dbgMFGfBpdho83HEBPYy52NZoxZm7Ge0k12LopABhR4h++2bjebxu3LxYkbw/GJesAlIZuPLs9E7eujKC7Ng9bi3Q0nBa8E1GB/UH+CCzrQWZwODocY9jjcwCdunHe8ACPj3mcr0euyfGXfeeJ1COYtyIKN8fs+MOycJqjUaxeFQCLw3pH+V8bbI5eLNkWQmO+hcVL98JgvIyvTnYA0mysL1Jhi08wxgbNeMXnJOBUY7ZfDhavOIjrVGL+5ki0ZiUhudUII+mAD5fQ3N0cxp8WhgsfR7J8yKry8NPRNvT12tGTl4H0DhPEeQn4Nq0FOrsRt25cQ3qgP/oG9Hhmy1FqQ4RXDxYBjjp8EFeKubspjlp7dVkEmk7H4ZzEhLjgKAz03cm/94NZ/KaXXKFCW+VJzNkZi9d8EjCgaMZLq0IQU6PA4fA4vLAgCdqRASxbF4r3dqXDqDfiCAn32hNVwgYrGpUGieGRyO3pw5EDh/Dq+lS8vDoVao0ScrlcgEKhmLh+0PDDlL1bmF+jlEgkUOu0eGfTYagvpuGD7dGYvTQAeiKEmsalVqnR1ViAF9YdwutbonFtTIf3vwvAOhKqmIJWdJeewOx1MfhuVTjE7SS00SVQUt2e7f2cvnkL85e9fHdKLlfhVGoc0tuNiA+JRIHYgM+2+EPpaMMry8Px9ZYgyLRmJJBD9EnAGdj55RQai87ehyWb/XCu5NIdbfA+ca665VCSUxUWHYmX/E/DUHkU72yNwUtLDkJNDmwbOYYvrohEpcFIddzZx/sNe+JBy87U/XDh+8nLCwKWDblcjfqzKcTjh6BSGWjFH4g3jzbAZHNgExm09w+ehs3M+8qRDtBo8eXWgxD1DmDeuhC8E52Ifx6/DLVycv2euJ++3CtsNpsF2VBZ7Ni80xeL9kRi49lLuHjsKOasosWI0Yp314Zhw3kxHCoR/rYiHLtKmtFnbMXLXx7AJale6L9WrcLry4Lx9oZwcobMENVmYc72GLy5Oh6Dija8tDoEoSWdsItL8QwZxdQWKek9l2yZlFR2XRh+TKrCkLEbv18YgtjL3egpzcZzPjGIq5ND03wK24rboTc6ELQ9CG/uTKPF5u2xeILvtvCYFKRXO4rT8OLmBJj6LQjbvxd+BU34cmM0HEbNeL/NCDgQQ7KfDuuADc8tD8XSc/UwS9rwd59o+KRewqCpHp8H5ENP+uzy6SN4geLb1VLS+3fOKa+EXbSXoz2XN73sRuWxKJR0ivDiuihyhiRYvPkIWkrO4vkNcZi9NQGdZzMQX9EtvPTHewzyNhFzaL4W5lRj5Y8BaL92HXu37sSpvGzMobZfWOCLTmsfPtjgjx4D6aV14XhtUyzsA05s2xYKo8OB/Tv3IORC48QcG5sKMHtNKC5pLciOD8Pbu9PgtBixdb0//uETB2u/ExsDAlCj1JIjrMc7K4OwKqOe5sc1Ps9x8tzyOIWw0orvd4XQIrYD6aHknKWX4O+LD+ItnzB8ndsJJenG++HDu4Ufpuy9wo+qLhm/wHq5GH9ZHYcPiY+7SP4DDkbhlbVxtOjXYR3F9Wj0qMg7gpeWR6G1z45FmyJgp4XvD36xGDTW03yFI7mFZEFUhDlkhzI6dRO0s+l68MWaMGzNaMCQoRYvfR+I8rOpSKvqgpHCL6+KJBsWAhU5SLEH9mP7+XaycQl4aWUkOtVWFKcewez1h/Hc0mgoie8PbvRDPS3Ipo7jfsOzxGKx8GLTz0FXdw9kEjFkUjG6vaQ/yWCPr62tbSKsNVnhkEnRIYRFE+MSdU0u969Ce3u7sDrxljYdxDwOAm+m6hrbnbhb3RoyGA65DO1T4mfw6wbfPWltbfWaNhWiHhd/sax0dnjP8zjBn2Iw/3pLux9IxuVDJna94PkgkI6XFYu6vab/XPDL0Pcak1uuZSTX3tJ/LngxeL+090RXN+lM4gHuU5eXdIZCrUefVnXf+qRbdNu+3K3OnwMeH/O4t7SO7m70D/ajo6PDa/oM7hddLtoRHk4+OmA0O2FzDkIhl8DaN4g+q/iutux+MLM9zwxmMIMZzGAGM/hNYNbUN5t/K6DBe41/UvE4v1L5NX4BM4Ofj6fpy5anTY7vB//KL2p/C181zXy59dvGfe2Hei8Mj1wRXjRyh6/euInrU84QeZLAL+uxYuHrK9dv4Ob4OTv3i0n7YI5do6E/WPmfA37O7y3+UeBx1j2DpwssG6wYvKVNC5aDG7f5iGXkcZ9bxXhUex9fuf7k6Kzp5JH3ica1x6NvptKeNKOwBzL9m5RvMkYp/WfsoXvlTr05eoXaekx7LnuCx/ik7Uf8RGDM2/wzfYGr93FO3tOCWZ6fct3XJ2IDg1B3VqFCc/tz9JtDbXjWJws3RgYpfQCX00NxSm55pJ+ZPUrwJ4vM+MLnlsficKBKfpfPMV3wHMcwMcacz/ajX/hkdAAWcTYWnJFgeGBymUcNJpbnZ6xu3G2OH2TuWQF4i5/Bbw/MY2x0vaV5Yip/3ZTl4bWkVowNET+N9GPNt75wkHx45nnU4L5O3WrhXuB+Dw6PIikrD8PuLTVIZzWdCMcJsWmSHvAc473k6UHy3gt3yOPAEHoaSnDZMAbR+WNYdb77rvrqYfrhSfuh4RH8uDAQOSIj/s/HERgacc3V1PrHrvXi2QVhuHZ18pYfU9ueGh7tyca3pDdvf5Y+AFNHOWZH16CzuhAt5nt/kv9zwWN06dIBdFeWotXYC6fsMi7IbBgY1+MPOne/BlyVluO9+BqMTdiyATh1TXjNLwd65/Q0vdd8cfrg8BgiMgvJlnnZyoZ4XNZchkv6x2+LZgkHMDicaC4/i/kHszAwPIS6why8e6gIt65rsWJHAupUJjj1DcIm9A0GM971OYA5u4/DNn4gxYBDgcicFlrZ2bDWNxFpR8KQJzEIG9a7N5x/ksCb/zPj83npkvpaXJSasDsiG6tCkhBSIYPT4T7YoA899QX4aOcJWEYGoGysxPthhfhoRTicY8PYHpmG6Lxz2FggxcnU0zifdwbyR3xIhxv8RQ3TarBXhYDEM1i1Jxn55Rcxf+cRtOssRJ96fL4zBV02O4bsRnyx8zCyOs23yw/bsHpXrLAHgme9Qtp43Xw9NqjGyu0JONupw/7Ic/AJS0JAqRjDTgeWBx7BusRq4TCGqXXM4NcBlg12sPm6lxYFO8KS4VfYjW2xxXAO9CI9MQM6TRfmk16oUNhhGy83oG1HwiUlhi3N+M4vFduWhk4cKvO4wDzLixe+7h92YO+BwzhIfeW9gbYGJSCzywBNXT6+CciAk8ZSdDIVH4Xnore7Bv/53UHsOtOIgV6qi/i59Uw89qem4auATPT2OdFZdQ4fH8iEc4gWRiV5eCfmAq4NDSHqyFF85ZcL56Bbzh3QiSrwgf9JjFK7HVX5ePfAaQxdGUVk/BF8vi8DdorfEZeBo4fOwmyW44tdiTjTdVs2PcFjYsXM106SuSD/I9hzugqvLPfDq3uzoOlpxdk29YRudQ7I8CPp5R4z0U5ejfl70mGhPpecPYaPd6ZCNTiK/KxTyM3JR42uFxsDE7CEdPVA7520YdrzS9R83ZhfiP/7zQFE1SgReqIa8qYixJ3MxiehZzFCBrCxNBsf7jqJgVv9mOcTj5Eh14E9Dkcv2i5kCbZE016MPScu44Zdhfci8pGcdBa74pOxLbsFV6T5WJ7LeqUb39J8bCsTw6zqQVr5ZTy/aD/m+Z2mOR4/BMjRh4zEE/g6swFj/b1YuD8B8fVaDBiV+HRPEsLyO3BF34nd+ZWIOFEH0cXz+GRfGvGf9wNQeIw81oHBAXz27V68Q7Zs0Z5gzCX92Vl3AXGZOfjkwEn0TdD4143e/iEcT05AzPEMfJdSg2tOEX7aQTzabYBPQCSeXXsYOrsZP/gmY3dGI7RtddiTehYf7ToKbd8Qqk9lY37kBQyRbeHDqxZG5qNvgr96Ia0vx9skE4rGi/jddwEIKpFgT1QOdibmwqKuxac7UsmpMuK1lX6YuzcDY2N6rNqZiKjyHgwODmFHSAJ2Hz6FjOIcRFcpMGw3YGUcyaAXHr4fzOL9GMxmI+S2EdhaC7Hlciee+zYavDfPxdQ4HGk3wmSx4gPh+/sh/HFxLJoK43BWPwbL+P4YA73t+Mi3AEXh4WgwDePC4SjkdKtd+zY8geB9GpjxeQ+B5lPHEHtZjbcXBGAU17B4+UEoKZ7z8bxodbT6EdVhacFlfLkuneZlFK9+HQpd62kcaiPF1ZqFNQUyhG/dh8RaNeyPaV8S934kA31izFt9FLjehb9uzQGMJfgxswUqpQ0YseP50AsI3eUL3bURDJhde5AwjGotrt0aFcbuWS/DQUpf4ANrL3x370P98A3YBx34YOEB4oIbWLXKH5Xnk1FgG8PFhECUKp/c/Zdm8HBg/hAOQqLrmrRYHJeYcbPPjBXLA2E2KPD6liPYuJL37uol40RO9PheXP2yIvyQ1YIvloVi5MYYfloaBN24HD0ucF/d+0sZNVqMkfwu33gQ8sYzWF2oxKjFiBcWHsSNq1eg67qEdzI6SMddwJoSKb5YQ/rs2gDxPdVlJj2QFYu4bgf6O09jW3E3ZLZh9HWXwKemAy9/E0HjHYS6Ix87CuUYqjqOoHIJLCTrNlpgLCUH6sqtEWjULfjHrhzcutaPlnNpiCHdCcl5rDzdgXmr/FDYo8b+NUGCbn3nh2AM2O6UI5ZDVswmkwW1Z2MRIXFieLQP+RlhKLVdhajgLHYXdrl0K/X7fFQYLpIzozfq8Zywp88wFM2l+OxsF5GoHS/uv4AT0RHYU9CGktRYVFkGcdQ3EF1q7/vXuGnfT47vWwt5mw47Zi9LJWcuDTsbB9BZmIgMKfePVu71hdhOhmne2nj097r2DTLre/D3iDLcdLTig9RmhIUG4eVVIdBfv4VFy3fBTKM/uOMgWtsKsCqvEx8sDsdVXMH+9f4Qt9fhk/RWHEsKRH0f0dXg6qPd0Ynfbz4N3HAgPcgfzc4hMsx6+CwPo7hb2LN9L+Vrwf9YkYRmo4wclmKyVW14MboUjvH91jzBY+SxGo1m5AbG0JwMwFKZjhSpAx1lR7Cr2gaHpALfHG94Ym3Yo4T6ciUWXpBhsK0c36Rfxvr1geBdqt5YvB92UxXWFmhQdTIG9VeAtGA/lFWVYfHpFjiq8uB7qQvPf8vyMQRNQzZ2NVmhLz2MQ40GYe7sfRZ8/cM+3CTptAwN4A3iFVo9YN6CnSgX6aBQOwCnjmhVhfKzkSi03UBcUCiargNrt+xG/olUnFXaoS5IQVyrDs/7JMEoa8T6bKnXsdwPZmk0Guik7Xh9XRYqC7KxrFgCg9OKz1dtQ52hFx3VZ/DHkHy8TgzGp36JtBbkn47FUZEJWlI0/Mmo3dJCTk8+ovYEoEZlRt2JKJxrk0PnccLXkwTem4hXs1qtDvWZRxFdLSMBj4DVYcba1QHCngSczyTvwisbUtFYeRGbsy/ive2n4CQl//6iMHTkH8bRy1Ious7D53wPAncGQW/QCqfDTW3vUYBXJkwrm7ULH2w+QcamGR8dOI9BSQEWnWrE/GVBqO9R4LVwWkEtCIWdlKBG4zrNkE9tPB4WgqR6ovWUej3r1pus5ODsh9Fpgs5gxnsLw2BxWLB5XRDOJIQguVWJRikpIuvdT3KbwdMNPgiM7zRotXqkbA9HEZ/0R3IuKU1B0sV8RLfq8cGiKDSIdWjRW4WD1LicvecCOd8NeJOcHoPNhG1LQ6Ak+Zpa/6MEyzHvL6XVGpCbGIXQWi2+WhcIWd8gJPJa/PWnFIwO2LDNZx/Siy7grdQ6NEl0tGq14yNyevptRpe86nRoyIzBqWY5xC3ZCKqQ4LXVJ1BVnI+fCnpg7Lfie59tKMg+jtVZzWiUGWCw6oS9iRiWwT6E++9HYl4xPgsug5HqrElLQ3STCjZJIRZmteONNQehNurw3eJg19yRHvU8cdINlkPe1E2nNyA7xh+XtSyzBqSnhOGc3Ir282ew67zrpEymC2842lyYhlfiCvAK9dlk0KOnqhRf5XdjUN+MuX75SAsJQbHUjCNEz6PNSrQojFBPaZfBtOe7vnytI2fwDXJ6zFY9Zi9NRXN5KiIatWQj0pDVSvZidxbqC7NxoLQL89bFk3Ph0pkaRR3+FliIRhqj1ORA7tHD+F/LDpFudWDRygMw9NkRsicQdc0FWJ3bgnkrY2C0mhG+h5ye5hp8mnwZkbGBKFLZhLkQ6tQYoaT+/HWxL7YsDoGMeNNkVZEjHkP60AJfvwPUVhPeji6GU1+Dt/wKhPa7TDavc8xjdJ24qcfxvZHIEWshvpCMQy1yNBYfQWSTBqrGKnyWfOmJtWGPEg3ZpVhWJoaz6yK+Sa3FD2t8UUFz0kF8ohQXYMXZbpwK98OpHg2apCbIawuwPLMRmorT8CvohsVmw7wle1GSkyCcrtsoNUBnG6cdLbat/X3YtGsfUjrlgoM80GvBvIWHYLZo8ebSMDR0dOPNqHKcOhaB04o++O7bhzyxBq0kZ5kHI3FKpIX8YiqiGmXIiwlD0vF4KB2GO8Zxv5jFG9MZdT349IcgfLI1FKvLVTh0+BCeXX+EGLUJb/lE4EirCkZRIV5eHo6THczYYvzHykNQ6V0bZFlMzfjMPw9jgyK8vigE60OCkdssgcJjQyDPDYIedDOhBwnfT17enIq9fQ7XZZ5AbJUE7y05gI+2RmHTBRUMWteGaxabAot/CMDnG0Ox/lQXClPT8MLaVLy6OhamYSfeXhuMldEJVKYHIXtDoVQq76v9u4WnS+MVoEArQwc+3X4STksjPg/Mh6OnAEvPXkbU1ki8sSEG80ILSfBleHZ5KM60W0m4efNIJXrKc/GHJWEwEc2mtuOuW04Y1rfiDwtDkNGlIEfKF/O3R2NtngwOpwUvrgrF5wfP0Tgnl/fEdGP4OWFPzNR9Z/hR1sVg2eADIPna4ezDB+RE+BXRAkapw3+RwbGTEVa0VOIfxAsnmhWCnDDMPYVYkHkJtqZzeH59NBbTIklK8uBZ94P2xRPe8nJf+Y6tXC6DtL4MfyIDOndJONQDany2NgqbLyhQciwR8zZGo5cWcjEBB/D8jlRYzDqcPnIYP6WUwaSl/qtVaDwTh092RmLO6nAMmmT44qdg4v0wLClRICk5Ds+uS4Lt6ggW7w3DPJ9kMsKuTQ3VpNRr89Px/NoYaEeHkJoUjRd9MzA0OoifNh/ES4sPw2E34g1aOIiVWhgVrXhhdSiiKl0bAE4dG8sh34Xga4vdhH+QHC/LroNa1IrfrU5AZ3Ee9pxvHd/4TQWTtAyv+YTjrNpMaWl4cVMCHOToBfr54YWFUVASLeNDI3FepIGjrxfvrQ3Eu0klwom6U+eU55PfdeFrpVqDd5YfIudLiXmr0lFfkY6oJiXKC44i26DCN9/54+tNwQgu6cRbmxNhM2iEzQm1tGDMSwzHixsPo7sjH+/uL4BdVI/nD+Rh4+Z9+GpPDL5Pa0KvJJecniaYOy/g1VVh2HaB+nC5Gl8mVULVXoff0RwbjOTY0jhVKguW+kZh9p4zGOp36aHEOhPUHdWYvT4SG8+1YFRRhXej84XNGvMOJ2L2umhavLrGN3WcPEbXBowy9HcV409LDkFmV+Cl1VEoI+P60a44PEP07O+13lF+al2PMvwo65oani7NTA7KyjUHsNI/FktSS4n/G0iOQhFKPKrovoDVZ9vh6NXhmaWhWBh1Ad0XKS6rAcqKUzh4QYrDkfF4fuHtDYzf3ZkGIy1IXLrBgJKzabQAiUY38WJccAzWnWnGe8vjoDeqsd8nDG9viMZ70RehkXbi31fGYXCIFu8LQrDp1GWM9Gvx7oogbAmOQPTlLmj0HfgbOfcaDxt0v+N0h4WTjnt6xORNE8MS0yqlYuHIZz4amo9X5qOU+YhlkUQmHKEsl/QIR2RbzFKsWhmJ16nDPmm0ulHL0d3tOnpZReW5jLejlZ8E8Om77O3zNR+rrSLl/OoP5BCYSMiUPQjYcQjzaFyf+mWRp08rWZoXlVwiHLfNR83zsfB8pLawAymV5ePD+RhtPsZ9aluPCjpajQrHwYsl1K6CaEO/KrlAF7WCmJPaZ/polHLK7zr6WlZfgdk+MXiVVrXZzTLh+HiRl7rZ+3UfNS+i+nW0elcolHjzx2AYzbQClBP9RXzkOtVPbU4tP4NfD1g2+PGKEBZ4XA2VjK7FfFz8+LH0YtYFahjkDfhI0AFRiChqgo74UCQlB4l1AOUVe9T7OMA8y3ds+VosGT/Cn9sViV16SCaGlPiY+816TuHWa7zpHcUbGovJAYnGa+QglXbKBHl26b2eCX3Ix8m79WEPtcd3CHS0KCo9cQRzybC+seWwcCQ9t806QabgvArqm0i4E8X6go/457rFNIc9pFMF+SI9O3U8DO4n3+Fwh3kcfHy9mIw01yWl+dXWU7/XcL8jkd88LuuUVyzoJ9dYlSpu29Un7j9vpOiiJ41LKZvUphtMe36M7g5zXv7lXY0lVLdS2iP8yki38/xwuoIcJZ1OixV7o/A6ObtvxRcKTiTPuVgsJ30kE/qu1xvw3ZL9wh0y1lciiZzG5frlfvI8iwVdxvmlsFpE+G55hGBf9mfXCvVpWfewHqL8CinZLYEPXWVFVIbb4v4ybYWxj49jKvhxPo+Vr912TUw6k+8KlRckILxRCf04n0wt+6sEjZPlVXBSFFJ0j9t99gV6BDpJBZngeRLoSTzINk8slQl5BLkS+Fwk1MP8nX8sCfOIH17YcQQGIc7Ni9wG2zDKT3Uqma4EoV7B9hDPjcsvt9tWlIvKTimCtoWjvbMbuUeTcVJheijdMuvn7zzZBQkNmHdclPQ82h1JHzd4J2a+he8Ot3e0o3+IlOf4Lqieuxi78/yrwQr0QXee7erqntjRdLqdpVmRT62bwzwn4gdscwZPN3i3Wn7c6S1tKjpIB0jHdYC4u8trnscJlmP+0slb2v3Acxfh7gfceZ2NgCBbBG/pPxesj/mOsbe0CTxEv6cD054dXm9p98K9drZub29D39Aw5G33q088eEv0aHmLXxb3uus0zb3I2g+b6Zfn5V8bJnZqJzzM7smdXSr0OgfQO9CLLo0ZDr5Z0fVwu2XP4tUSrwx+S+CB8+nynnFP+jy478Z4S3tY8MrSW92/Rd74rYNlgw2ft7QnDbxa5zs93tKeVrDM8QLHW9rjBtOe7/R4S3sUeFL0Cd/p4bF6SxOJZnTekwbmG75z6r6emv6gmIWZv5m/mb+Zv5m/mb+Zv5m/mb+Zv5m/mb+Zv5m/mb+Zv5m/X8XfLN7mgvfpm8FvA7xrP8Nb2gweDXi/PD4SylvakwzuNx9L5C1tBjOYwW8XrBd483NvaTP4+eA5fRptxW8NzP+/RV+ZfcUZuf91gOk449/NYAa/Pczibx94x5rHjcGhYeE4s1s3r+LqCIen5BkexbUhLWqKChGZ04pu6yCujt7u28jwEGSXyxCcVoEmcx+GR0cml5/BPcGvbjPRWeHz9RDRZPRqP1TNlxB2vAQlcgvGrozeUe5hMTI2BnNXPaJTLqBQYsbg1VGMuNOGB9FnaMWx4xdwvFmPfo4bT3sawfPKO8ewg+SaY+/5njS4+82OgLf0GcxgBr9NsG7gm8C80H3sOm1kFFdNXUjKzEFinQ6WwTGMku3nNOHELrsYp49eQGiNDAMc51n2KQPPJW+t+ovZCm5jdAy3blzHjbERr23yZyHK+nLys8pQb+ql/CMYnpLntwimEdvHe9GJ/dxRPkr5xlVcIb4dvTIAQ3cTYo8WIbvbgDHyfZ6W+eSxsszfKffDuHrDhIa8YmwLPYmQcikaK0sQdqwabXYnhkceZE3B89UPRWMNQo6XokJpJZl49D7oBIi/R3VtiM3IQ3qzCfbB0Qn94onRsSH06iXIPJmP+Gop+klOr151Hak+Rj7rHeuXJxxuWrIe96QlH/IzxuO6zuNyhYdGrwA3r+Gax/prBr8tDJOdGDWKcTIrB4erZTANU9hLPkF+Sabs3ZXYdSgLGw5XQuQcIDvyBPAO8fnwGPHyDRcv30t3e8Ktx/l+xZWnUN6nQjhinbdfdaFXOGlvgIT9OjkC18eGMTZI6b2ueB7stSsjwlHqQ/196O11YoiUw1WKu05xA06Oo3qI0KM0sVzHtVGatAEqN2RG8/lo/H3ZIRxXXcGtkQGh3om2qVz/gA0qhRLNchMMvf3op3h25q5eGcUtUrztp2Ixd3ECcuVmih+Ac6LfM7gf8Leo7MixwudrpreT6G/T6dEgUkNhsgtOyBWm+zAZc4GGdD3UL8x175T63PzCx+NeYX65wuWILswvTE8SLI4HOZbmypN4f0EwwivlcBIt+Xj7q+RE3ro2jD7lBaxaFQyfPDmsTipD7bJw8U3Iq8QnQn13tP1kgueVBYtvprnnmOWEZYfHNUaLlas0JzdorniuR2mM1+8hPwPj9bpk8Hb8sCCD3vrgmntuZ3CgXyg7Nc9UcB5WhLf77U5zt+uS/evU7lC/E84Bpq0nn4zgigefOFnmKZ355+rooCDLnu3NYAYzeDrA+oAfEPBCd6ouYT3AetztK7B+ujqhsyiPsx8jrM/ZXvezXuO8pL9ID7p8iNt1CWDd1WdCU48MbQYr7E7SNYI+HMHN68MYMF7GjmUheOVoE2zsq1D6pPJPEXguJ9sKdzz7QoMY47kinctz1y/YkV7S62Q/xud7mPQw5+e4a4JN4Diqg+uieRkeds0162w+CXn46jAMNdn4cNlBbCmWArdGiU5c73ifqMwA2Yu2M3GYuygeuQobbty8ghvU1uggt+WyBZP8Q9L5nv4h+4I3BNo6hf7yBktj5PS78rviJ/l94xBsBvkEgh/BdpJ4SSg/3p5QL41jZMBVbx/x0hj5MtwHBscL9Qp+BfeXFhvCL/NPv3DzQeC7iTomt38vuB+OTaITgfs85p6LkTFgSIPCY0H4m08q8o03QBMEh8GIZpEKEoPDxfPj5W/D1T+BhuQHsK3k/nnWzTwgzDONZYh9BmHcxBvkbwm8QXVwvMtvovnixQn5E06eu/E6rrFvNl735Pa9g8fKNyIZ7nHz7/CVq1DlJ+GVH6KRox8GcA1OnRK1HRqY7MSjbPt57qkfPCZhbqbSk+LZB2I6DY/2ouX0UeHU6sRGNflJg159+wHSLe76rlA5gV+IL277iLweGSY+GcQI0Yp9qCs0rwyeq6s0/gGSq0FJPt5f64vl5yXQO2l9Mq6j3HVf5bmmuD6rDT09CjTp+omucmTE+eG5LVmosN8CRsb58I5+uha57PtMzDfBU0YneFjgS1ebgu/MOpLiHURLwU8fonHQHLJP3c/zxvIl9HGyr3VnH+4Et8d0ZD3u7ncvrbGu3tQgPzgc/77jNMqMTiLlGCxVqfjrT0GI6bRQGV4gU7tT6OniR+9tzeDphMAXtB5k3rt5k3SX+hI2bPbF1ym1UJItGRrXo24eGCFbMUhyOKgpwMqlgdhYyseq3sJV0vGsA1w6n+WP+Zr1GelsQSaJp8dtm2ttSbLreS+B5Jd1l6CnpqyFhij+zr5zedeah/UB24lhsncj1wYhy0vD7OURiGvWA+Q/sA7ndcuQwNO8hnL7F+M6gtcq/UO4OaRHRVYY/rYqCdn667g1wvrrto1zyau77y67fGXcLvM6j+V/mGWerscmbCf3kdKEcbj6fOdYHg9m8c6UZrMZVqudFJsWbU1FCMyqRs6lywiKDMc7mzJQoLTA0HAeC/bGYFlGE85UX0BKTRvKy/KxYHs0dmbVI7v+AhJLWyHTtuNkWDSe33sWx0oacXBfIL4MK0azugMxh8Lw++Ux2JLfg1qZHr02KyxWq7D7q9VGBqS3FfEH/PDq1jMoVPfD0lSABcsCsTbjEs41FGLbloN45rtk5Eu0pAztsLnLzuC+wKfLMqOzwudrKxmyvkEzLp9Ixt8XhCK0Vg3NxTTM/WozXgk5j5OXOnH8cBRe2ngExzv0sDp4zi3j9dmIUQ3oaqtAclIhyi61Iib2MOYtTUJMtwnDsjps3+SPb8OLcKqxBmFBwfjTx1GIrZLC6WhDSnAI/hlQgPTKLmQlR+PlxQHwKZJBK23BwW378KcNIZj/2Q48t/EcRANk/KaM5UkFHxTJ5/rwkxO+Fvja2YOcIxH4wyf+WJVZh4v5Z/D2wh343ao4BF0kecpIwd+WhyOgQgZzbxcyUrORW96C7LJsfPVdCH7IboPNrEf9uSP4cGMYVp/rQH5pPYrL69DtcMDu0b6DHAJJdTEy84px/FI7ZGodHHbbpD56wx395jirAwMOBS7npeONtTFYerwep+sv4mxjNy6dOYG3v9uEF/1zqZ1OomEMXlqfhLRWPqS3GoF7QvDRoQqcvFCEZT4hWH7qMgwOmwf/zGAGM3gawLaCb/LwjXeX3bDARgs6U2spNu/chw9iKnG0uhvl5y8i91Q4/mNBCKLqTeh3WiCtPYPvFodiKdlwPun/g22ZOFVdgU0HAvBuVCma9eQs2W/rBJu9D8M9+Xhv+VZ8lNYMuV2GnKgYPLcjE2nlrcjLTMALCwPw8tFGGMkGOciH8Ozr0wTWs/ygjR+8uHUu629lQzXOZOfhZH0nMlKS8M6qKETWqDGoa6D5DsHClEpk1bbgeHYpWluLEbg7GEuOteJMRTtyz5ag06hG2clkfLjpMMIqGhAaG4X395zFBZECpSfTMWdhIL5LKkelVA89+X8T9oOuHWTjW08fwuwFvvg8oQznaloRFxGMl3Zm4qJCC1H7RQRmViL3UgPCD0XirQ1HkS0zw9RSiGX7o7CA6HK6ughHqN1WtQwXkiLx9p4sRJbVI2hvJD4KPocatRF91I7V4mrXTnbBomrFoYgIvB5RQm3WIaOkEAXUP1F5Bj5cF4mvk2tx6nI5Ttc1o7O5FRH+QfgqmvyHmi4ciY7G+5tTcUakg6XjFPHHLny0IwLPfumLHzJacP5oAj5ck4yk6ssIiw7BHL9slMrJAfbgu+nA/jHbRXaYmU4WC82Z3QyDqATb94ThJf98nK1tpDkpRmF1M/yCAvD71YnYWyxBq8mInoKTeO2ng9h4voMWGL2T/Fa73YGu0uP4iGgVWtCEvEv5SCWfSNlZit37wvDiQaqb5jrnUgmqWpS4kB6PT3anIJTGffbUaXznE4xd+RIMjXUg3j8Q81eE4M0le/D/kJydLL6AHdsDsSi9BieLsvDJ+mj4XhDBwP2/D7lhWedFH8Ml9ySfxCN6hQonEw/hue+DselcI1qNZpQkBuLP38WjUK5Cd1kS/uc3+/B6YjlyK2qwebcf/uF3Hp29RjTXFiMlpQQlNU0IOhiFuetPIEujg+TsMby6Ng6H6xQY7L89RxaScTvpm56yM/h6bQi25jUgNesI3tt0BClllxAXcAD/c3EyTktVUJWdwGvLgvBWVic66i5g8eJ1+K/NxxFX3YmzWWl40ycCvqUy2KRFxFN+WJEngtoqwvGIOLy69xzppVYcy0rCW+THHGnRQt9eiRXL9+LdhCqoFA3YtM8Pf1qfjoByCTo0Rlq/EN+O99NKc8pnE146nYTX9h5DTFEbzpP/ltagREvJGfyw+SB+ON6O7Io2XLxYi3adHCdjY/HZjqNIJ/8pNeU4PvGJQUidCrBcxvo9+/CPNSF448fdeOFAEbKLz2PFqmBszKpFdk4qXtkci7AqDelA9v/uzcdMP9bfrMfdtGTeU4sbcHBLMP5zbRpCirvQLpPidHoc/rYgGGvOUl/lGrQVH8b/9/luvOKfTXzehJiEaPxzbQpOdhjQT77lxBzM4OkF36DVi5FxiGzFzmOIrexAZmoy5n26Dz8dq4PqigF1x5Mxd0MyDha0Iy0mGh9sP468HgmKyk/h08UH8RH5ARdEKmhbC7B1exi+TK1F5rkcfLc6ArsrOiC7fAFff70Jc3xzkNfUjIC9oXhuw3FkKEh2mnPx3dZo7MjkewmF4/cSOpEZHo3n95zB0ZJG+O8LwGfBhWih/t7WXxbYe/tJpomPg0LwZVgJrVGqkFJSifIWEc4mHsZfF4VjXVYdLmvtaD4Tjxe/OYCvtu3Hv319EH7VlUhJzUdhbRuy8jMx/9twrC7pEuxRQGggfr/iMHYVitGgU0NafgZf+ERhSWYzrdmO4dN10YiiNbNdXoutWw/iO9J3mZeaEbkvEP/1eQACy8qwjuR+bkgxeiy0DrQokZMUjD+uTEeZzfGL+i6zWOj5HEs+C85s00PRU4fQ3Qn459Y4vLs2FP+5Lg6rK9UYUTRi74Eg/J8fg/HaQVKK7TpcsdRi39ZgvLgwFP/ceQ4lMi2kVUfxwpIDeJkM1/tbY/HP1X74/bIIxDUQQ5yLw1/WxyNdZILFYKA2ydFww2BGn60VSaGh+NDvAsqkjYjbGYivYmvQpLFSmh0tp2PwypJEnOtQwmQxwuBZfgb3BJ9iwYt5VvZ8zTTnQ5wbs47RQv4QYi4poC1Nx1sLo5BURwaRHHWTqgSbfQKx4EQLJDojLEY33QxEAxO04jYkRSbiLab3ugj8aVUMduQUIzs+Ch/vzkae1IrBvn6oKzIwf0kIwkvF6ChMxquL4pHZpoKt1wSD7AJ8VoXChxwWpbgdQVv98WbYRZiuD2G03w7zlHE8yWBZ4hMc2Hl3yRXxtZ0UTkoMPtqaiQyRA9ecbUgOCcWnAYUoUzowJr+ATzbsx4+kQKQmAzkLp/Aty86GeLy6KgBzwwrQ3FiM1UtJNk61YYTk1MDGmmTCMqV9g4kWCz31CItNwEsrw3C+qonat07K4w139lsPk9UOQ/NFrFyzH4tIaZtGKay3wEE8pCpNw7sLwhFTKSY+IWWiLcfODcH4KbUO51Ii8HdaTLy5IwEfbDmEVxaR07I2FedVnvwzgxnM4GkA2wpeJPD53C67YSTd04Wj+yLwl315qFVq0W8h/6G3Dw6TGTmhQXh+6ynUSLtx7FAI3o7MwaXKDHzytT9mb0rAxzti8eaKg/ifK+OxpUqMYZtpoi0DLRp7JYX4fKMv6cMmNJadxLwV4YhtUsHosMCorsPe5SGYm3YZarZBhjv7+7SA55JPQ+Gn7G6dqzdZ0CtvxZEjyXhjfQzmbwnHn74LwPrT9dANaXEqJgqvLA2ihV4SYuspv9WME4eC8NelAXhrdxrimtXQNF2Ez4+0KF0bi093xeFtWiD/7scQLD/bCFl5Hj5ZE47t59vh5JsVnn0in8xkMpI/EIu5ixKR06MlJ9oAZWcultGcrysUQSFrQPR+svek198h//D3a2OwqFSJUSU5xoHB+F8/BGGe3xmcaNfCWn8Kn6/ci7/6HMIHO5Lw/toA/OfXQQisogW2hXyLcdoxzR1aNUpPxON3P/jj5W0p2F4gglNRi52b9+Gz6Arox9j22DAwQvniaCG6OQPJXRqyhWRfTdXYsS0AXx+uRFP9Gbyxxh8LC/UYGB2ErSsXi344iOfJ7/xo+yGaiyD8bmE4Ps9tQ7/1Nt9NB6YN20W+ycHXBqMJZo0COYcC8eLa46ineTRSnNHmxBVrF9JTwvDs1jScldng7DWjs+AsPqY531XQMXnOab6NRhvMPUVYszIALy6LxPyDhWjUqpCfGIIXfY7jMtdNPGHvt0Jecw6fL43CT6USjNIiYcDRhZPJUfjnlpM4L2vFiYgwzNuZh0rdEHBVicwDUfjrT6F4c9shfEhjn73ID3/ceQZdCqKN+d52mPnT/eq/S+5d8UaS8c7cRLzBfmKNBBabEVXp4Zi9LBUlEjlaK1Lx9zURONRqRa9dhcvF6ViwPgHHFUTDjgaEB8XhDfYXeX2x+hCCKrrRmX0Cr62NR3yNmHz923NkJH9Ir65H8JoA/Gl5FPHRIby3OZrGdQBzwkphH6VFXlcJvvpiE/57xzlU2YZxc8AJbV0eFiw/iA0ZzTAP0SLW1kh8G4xPwspQ15xP/tYBrCIeqC1Iw+yVMUjr1sJA/pRZrcGJkIN4ZWc26lprsW1zID49Uk9rnQ5Ek5z9Y89JFKrssBknz5WeeNlossNENHp7tT+eWRWNTw+Xo1NRg4B1wZidcAlmkx4WmjtnvxEt51Px5Yp4hDWZ0Gux4aq+DXHR/nhhfx6a5C3Y478ffw0pR0PvLaCvGdG7QvD8oki8vSUe7++Iwgvf++HfI4vRqtJRX+6PlvyQl/X4bVqSHiff9MS+KDyz5xyySd4HSI+Li45g7vJIxDbLYbFo0HTxCP62OhLxHXxzyAJ1Wx22bPTHx0nVtH4g/pzS1gyePth6bWjJL8f7y2PgUy3DFWcfhsRV2LzjAL4hn17WVYwfyCb/96pYvL/9MD7aGIT//G4vfPI60C2+iHWrg7AiuwcqpQznDvnj9z+F4N1difhgcwxe+HEv3jhwFgWVpVi0LhSrzzWTThmEviYH3++NwP5iOQZNdfDdFowXF5C+2nkOF6U6yKqO4sUlfhP3Et5a44ff0xoypF5HetNj/W+0wmnqwdmkQ5jzlT9e2pCOqOJu2K860JCRTnolDoeqezDQZ0dH9mHMWxiGw516jN0gn8aiROGx4/hsSyze3hCH2bTeejOqAjaq7/SJSDyzKRmnlE4MSWvhF3AA/7YoAu/vTCS7HIb//nYnPk87h4iDCXjBL4d0sA5DVis0FdTmigiSHwVM+kpsIv9lT3Eb2irPYePmFJzR9sP+C/sts9hw8Xm+avrVipoQs3cv5m0vgK5fi+bsNLy87BDWVNSjsqYSOZVyYKgdh4MC8U/fk/DPrERLhwSOK12I2BGC//DNQ1V7ATasD8E/U6uhtJhh1vag+EIttBYJakqPYf7yCPhVdgsHyfO53rehIyXYRHUH4/29ObhAhKw+moTXfoxGeEUnlJJS7Nt4AH/4KhHZrVJo9RqoJ5Wfwb2gUCiE18xY2cvlciFOb9KhLiMNr66JQWSlBJqSdLyzaCeWHm0gI6VF6clYvLokHJFNGiiZR9z1aYhe0hakRfjjua1ZaBw2QnrxFOZ/HwyfwlaIKrLxKTmoazMbodI3IJmcwP96n+q52Il+cS4+9DmILxOr0C6RoehYBJ5bcADL83sg62yC/3Z/vB5eTG1ooLmDT55s8BzzE0B+a4rlSqXSwmLuRFZSFN7beAyp7SYMkdNxyD8IH5C85EtMGBDn44N1+/FTVj2aitIxd3EYoluVMBsaEbyWjP/BIsjECuQeDsfz244jV6xFV20DLmRfQINOe5smKj2sxnrEHAjEe775KFM74DBqofTo393g7jcvOlz9VlE5HZzmVpxKisYH1PfMFjUsrcXIqGxE/tkMfLZ0O348Uos2pR7VZ+Ixb3EoIurlkNZm4MXlodhe2EMLGQNkykZkFbbBSM68+imj5wxm8FsH2wpeJPBDArfd0OgcUF3Mwrs+YdiR3waRQomKzGxUynog0dVgNy2yPt8QjjfWZ6Ft1ApZRxU2UtyXMVVQDJGj092KutpLqFWZoPNoS812RVSA+ev34duMOijUFdi8nhbU0QVoEEtQdyoRz/54EM+R86lQqb34EU8PWOfy0za2FXzNPpDV1IajMWF4Z0sWzqkGYG3JwWfL9mBp1mU015Qgv6kbcusgGtJi8eJ3UUjNyURqm4FshRk1aWG0IEtBVlOP8Gb0XN9zqDE4MaztxOWGSuTLhmGqLcKiVb5YklgNBdn+ST6UmuaTbG79ySg8/+M+/JRehy6JGGcSw/H6uhOoUrYjOWA/5mzKhbJPh46C43htaTSWlFxGdV0lzpRLgeFO8gmCMG9HNqqaS7F+tz/ejixFh8aKwd5OnCpuhKhHDj3ZAle7aug0crR2VSExux1DvWq0FCXjn0vjENPQjopTh/HhmiM4Uq+EtaMMpyuaUV5ejpU7/PFjWg06tSY05iaTzYxAfHMP1N1nMWeFHzYWdkBOC2C1ug0hWwPw9t7zaLXb4VBJ0VpdhgqlARrPsU8DtodsF/mhqEAntQYGnQLyptP4flk4dlC/VeI2XCo/j5PtYhTnJOG91YcQWSeB1aJHa+5pfLA6DNtzW2GnOb9dtxoaTTeyz5agRaaCra8B22nB9GxMMZobTmMRLRC2Z7cJdddWFiOzqgep0UGYs/8sypVmKC4XYJGPr/BwxXKV3+gh33k/LTh6aPFvcqA5MwWvrQxDcLUcZrsVlo6LONmihFh5f34Vyzrf3OW3ztxyz9Do9LRgInv/YyQSKkUwmjSoSAnFC4uOoLirBw1lR/DMilCENZC/YJai/HwKvt94BGeaGxHh64tX/fPRc8WA9lNpQh2+pZ3oPH0Uc30OIbaiGzbyWdxtqWmutUojCuPD8cL6ZGSKjOij9mQtZTjXpUBDTireXBKBb3OqcP5EPN5ZnYiUZi3M9eexfM1mvB1UgBq5FV0lJzB/iS82nO+CXFJE+fZheU4zxOYm7FsbijcSitGhkKKtLBM/rozA1jIVTI1V2LDBH/MTLqG/V4TTxw7hnfWJSGySwaiZPFcqFfVT04Ck7Bp0iHUY1RVh1Rp//JDWiIsnEjBnQyKSm+Toae/ExXPFqOvuQvSeA3jfvxAtFg06Ss7gW58QrMlpxfXeOqzftx/zws6jhvSjrU+DC8kJeH1xAo1NCXufDepLJSjpJl9Lrb0vn4rpx3RkPX6bliR7Rg1K4hPwPNEnoa4HRoMWhoaTeGWFP7YUdkGhUaCpJAW/WxSID7JqYVR0ITf9EP68Jh7BVWo4dW45nsHTDI3BCE1jBXZu3oM3gi6g3iBFdcYRvPbebnybVgV9XxNi/ELwtwPZKFboMdKnRllRDbqkEsjFBVixPABLTneSDMjQkp9A8h+D0BoVBslOtHU3IJd0l7KyAN+Sfltysh69DhtUZVn4clcUDhY1oOpiBWpaxXBc7ULUzhD8x/5c4V7Cpg0heCOFbBXfS9DxvYQayLSsFzzsh16O2ppq5BU1wXZTi4vHEvHHpYfh22CCteIMPloShL1nm6C1mtB2Ng5zf4xCcnUPTEayNWdj8fclsTgq08Eor8YO8lHmhZbAaJGiNP8IPlgZjZBaGYas7chNjcXf1qYgpl2J64MG1FVdQn2bGt0FGXhn2UFszCZ9om1E8u5QPPt1GKIaxTAYdJBXpeEPP+zHC+uiEdxoRd+/QGZmsRGTSCSQSaW0IFNC5+DXUx2QGe3QWPtgdvTSQt0AhV4Pjd0BidYGBcXbyYgaaGGoo7wKilNa+uDUk+OgpImnMjZLL+R6ijfxZyMaKKQyqLV64UYDxyk1aohb29HY1onm9i40tXagVU7K0uaEtddOi3xyhFRm2C1O6Aw2yA0OWPr6YKI+WOVkZInBJNxnmcwrpJTGeNA0xsOkP0xZxnTpD1OW0dPTIzyVYmUvFospjvJLyGkx9BKdad5J2HtyEvHmwghE1MihJjopzH1wOA3kjIvRyXQiernR0imFSuckGjmI1sQvRHOTk2hEvGJQGIiP+kmYbJBSmon4ykz0MyvJcZKr4CA+MFrtRFc7DHYnHHZKs5rJqbLA0ttHgmaBkcfj0f/pxnevsT9M+oOUZVkyGAzCW1NuuZKQE6CxOmlcvaSUiO9pMaOz9gt8rlaT/BlN0NL8WO2kwHRWgec1NC8KI81nrxNGmxVGmRxakkP+JlSht0JNCwSjWQEROQ5NRBeWoWamS6cYerNV+MxOSvlkJI9SkhVvffUE95Xv/PKig69deTgvOQUmMwxEOznVJ7HSGIhOkoJkvLswBAFlEkonPjH1jvMJ1UfjNTl7obVwH2zQEA/YSDm72/bWPmO6NMbDpD9MWcZ06Q9TljFd+sOUZUyX/jBlGdOlP0xZxnTpD1OWMV36w5Rl3E+6t3jGk1o32w1eJLDtdtkNjpdCTk5Wn8NBfoANMtJXRgctOhQyKGRq2EmHsy3XOaxQSKhuijOxLaHFtox0nJL0iNGsh1TEtt9lT5pZl9Fvp46cTrZHdjWUpB+11K7e6vJJlHbSM2Qv9KQThX6M9/tufZ8ujfEw6Q9TlsFzyU8m2Va47bGE9K2R/Co72Qb2n7RkU422fuHJupbmxUwLeLXBArmJfCynnuK05GvRfBponskHs/WRbVDKhbdO+nrJN2OdbSYfjupUy3rISdbD3NsPPflUGqMC3T3kg7WO2w+27538aY+V/Cxq0+aAknS3imjl6NVApVRAR3bayvaeaKEmP9BCdktNY1DQ4l9DvCDRka9Gts5uNkBLfprWbiP73gsZjUVGPpydfER5TzfRuWOC5s1tXeiUqskGUr3UL5mJfAiir0Uhh4J8EoPT6RoHzYXGqIdSoRD8GDOB65Ub+2jxT/loASsj26cj/rDaFFDIef5VNFbXPgpch8LsgJ4WDSr5bZvoCW80Y3vIdpEfirr5X0r+rJwW2Qaycxqyf1KjAyryWVQKfghppPniOaIFucYMq9YuzLmJFuTidvZ53fPN9lpCfbKSDFF+ncuHcuo0UKq00HvUraS6NUqZ8PYT05VtsVTfCyvJno3oLVG7fQriD7K13GeFWiPkdcunguipo4W7nPjMc3x341MeK9/c5U/WWAe44zmvifps4nlWKEm+JUQvB/lzvbDQGkJh6yWaO2CmxZKEwrw2sNktMJjU5GM4YTORDiCfUEv8w/6iUWOBlX1E8nVMNJau9g40uvlR8GlEUBHf8l5EGiONm3hPQTxo0BCt2XclP8NG7Who3llu1LYBaJvOY8FyX6w43kTz6+I9m5PfPqExkD+jZT62UV+Jl7TUVxv1neVNQbJidVLfaHGkUJIfxf6XmfwzorfOYHLRlWiiJF7raiFaTvSzCx0iOTTEtyqzHRL2h0k2+E01rVYHJ9OFZFRJ82a0kV6TKqEnvmV9yO1KTTR3VNZG+lNCY1WR/jM7dNBoaZ0jlkGlpgUixemIp2QkI3oqp1XfSUs3fabSk2nJdGR6etJSJqG6yZfUU18V1Ge9gepUWwR/XEt0Ult0qCpOxrMraU1Qz/66S76NtFDXEq1YDjzb8cZHbnjrlyfuJ91bPGOmbu9p95M+kY/W32Yz6W4b+e2ki/Q2WpOR3rJYiQ/VtB7kTz5Z3wu6nHSajeJJJ8mIry3EL/x2l4zWKXLiX5ZrDfEP16MzmEkvaEgX2sle8JrQAA3xIK9nzH0UpvWQnuyV3uNeQp9eS7pURf4DySbpRAW16bqXQOsZ9hlYL4zbj8a2bnQpSReTnVFryS8w9MFuMsHEOp7sB7epYXtnUpFPQfJHestCcs/3JBQaBxykh1Q0HqWJ16/E21YL9OSzaHSGcT1OcqA10LrOKOgDtp1s54w2I/Ranks9yS7pLtJ7GtIf4qJUzFmRiCzSW3qzFsruVoTtC8Hb6fUwk33wJrNu3A+9vKUxpkufxQldXV0QiUQCuumaw93d3QL4uqurm9Juh11plLd7St7xX5E7PFHXeN1CXCe6yLjJ5EQ0mnAjKS8TgSffSs6MUtpBeVzlPXG7LgqP18WY6Pd9hKdLe9jwdGkPG54u7UHCHR0dwlsb/JSGr9153PPaQ8zdUXgUX21MRnJhEznnPQI/dBI9enpMJNgklEQnN73YMOlV5Jh3evCAQCdXm5No5k6jX892p6YzT7nDbrj77xmeLu1hw9Ol3Svc2dkJjUYjfNfO1648nmN15Z8YN5f3SJuc11WvEB6v3x3u6OyAjBShhR2RcZowbSy9pBCVEqJv50R5hre+eoa5Ts9+T83j7o9AW7EU3cUn8P2mBMTmNRCfuOvxqH/8V+g7l53S3tT275X2sOHp0h42PF3aw4anS3vY8HRpDxueLu1hw9OlPWx4urRHFZ4u7WHD06X93DDbCl4k8OLa0254wiXnt8tPyP14Ha58HjqN6umUKWlxTM6kW3+N2xUzLaIknO4u61GXUHY87G7LHe8tPF3aw4anS7ufMM8l3zzgN2xv2wrK5zFe91jd5TzDd9gSj2uhnvGw1zhqT67RC/6Xp/0wOqyQSMWU7irnLjuh2yfCU+ueHHb7cJPtAPl+dG2ghTA/WBLaFdqmBb9Z4xq3R353vbfL3277jn7QrzB/7rAHL97hp7r7NpF+O+x57Q5zWb4Zx09GJ9GJ807ph1DWI+yO6yRay9TaCR6/Pd+0yJdJhHon+jhd3d7mw51/Cjz7f7v87byTxuElzH3iG2T8eWF7e/uk9KltTwpPtDee3yPszuvOL1yP6wXmOaXOeJsn3bCZIRb3TJRzl53Ec9y38fq6yT+R1uRi/Y4YbE+thkwpHk8bHyfB1fbUsGfd3FdvYdJLnQqoaIE4ef1CC2KTAjIx03FKvwiedd/2k9zh2/k578Q4OE1o15XHa16P9OnCrGuYjkzPqbSczGeuX1e8CJKeDlSUZuCfOw4jvpHbvJ3/bm1NqvsRh6dLe9jwdGkPG54u7WHD06XdT3hynCefTuXDqWnjZSfCt/nCzcN3Ky+0NVGXl7rHfz3rFnSvWAID3yD20A/G3j5o9GohfaI818X9mGKX3GkT9uIu6fw7Vde65ud2uuu6G1qLAhVZWfh6fRhmrw3HnMPV6DBboW4txOatUXhr82FEtdhgN8loPO66J9PAMzxd2s8Nz+JONzc3o6Wl5RcHtzsJXvLM4NGhoaFBeGuD7+rztbc8rW3tZHA70NHWemf6VHo1T0mfARobG4VXY9l5b2pq8prnkeIR0YT7+iD99uSTVi/pM5jBDH4dYFvBiwR+SHA3u/HzMVV//Wt8kX8F2FbwG9W8B8ovYiu8Ycrc/1I2fXKbTzbNuX/8AIQfij40naaM+0n2oVjW3Zt5Pnq5nwZT58hbnnugta2NFn4d6Gxve2z+yaQ+ErzleVLA9OONxHkfxgejJfl3bR3jvp639BnM4JfGZLn718teK9raeT3UiW6Sk66ONld8a7tw8+lfLzst+P8B8bqeEsIy8hEAAAAASUVORK5CYII=;" vertex="1" parent="rKCySKITcyxOfwlai2oO-105">
          <mxGeometry x="1" y="3" width="869.5" height="15.93" as="geometry" />
        </mxCell>
        <mxCell id="rKCySKITcyxOfwlai2oO-106" value="&lt;b&gt;Final User Table Example&lt;/b&gt;" style="rounded=0;whiteSpace=wrap;html=1;strokeWidth=2;" vertex="1" parent="1">
          <mxGeometry x="80" y="440" width="170" height="27" as="geometry" />
        </mxCell>
      </root>
    </mxGraphModel>
  </diagram>
</mxfile>
